<?xml version="1.0" encoding="utf-8"?>
<!-- Generator: Adobe Illustrator 15.0.0, SVG Export Plug-In . SVG Version: 6.00 Build 0)  -->
<!DOCTYPE svg PUBLIC "-//W3C//DTD SVG 1.1//EN" "http://www.w3.org/Graphics/SVG/1.1/DTD/svg11.dtd">
<svg version="1.1" xmlns="http://www.w3.org/2000/svg" xmlns:xlink="http://www.w3.org/1999/xlink" x="0px" y="0px" width="720px"
	 height="360px" viewBox="0 0 720 360" enable-background="new 0 0 720 360" xml:space="preserve">
<g id="Layer_2">
	<g>
	</g>
	<g>
		<g>
			<path fill="#121478" d="M154.269,166.001h-4.38c-0.4-1.88-1.92-6.1-4.56-12.66h-8.88c-2.2,6.6-3.3,10.24-3.3,10.92
				c0,0.521-0.101,0.94-0.3,1.26c-0.16,0.28-0.87,0.46-2.13,0.54c-1.26,0.081-1.911,0.021-1.95-0.18c0.28-0.68,2.33-6.08,6.15-16.2
				c3.819-10.12,5.79-15.399,5.91-15.84c0.08-0.24,0.189-0.429,0.33-0.57c0.14-0.14,0.27-0.189,0.39-0.15
				c0.039-0.08,0.75,1.6,2.13,5.04c1.38,3.44,3.06,7.77,5.04,12.99C150.699,156.372,152.549,161.321,154.269,166.001z
				 M140.409,141.042c-0.16,0.28-0.46,1.07-0.9,2.37c-0.44,1.3-0.93,2.811-1.47,4.53c-0.54,1.72-0.87,2.781-0.99,3.18
				c4.8,0,7.299-0.1,7.5-0.3l-0.42-1.02c-0.28-0.68-0.61-1.5-0.99-2.46c-0.38-0.96-0.771-1.929-1.17-2.91
				c-0.4-0.98-0.75-1.8-1.05-2.46C140.619,141.312,140.449,141.002,140.409,141.042z"/>
		</g>
		<g>
			<path fill="#121478" d="M161.779,134.442h4.68v29.4c6.24-0.36,9.86-0.74,10.86-1.14c0.279-0.24,0.459-0.11,0.54,0.39
				c0.08,0.501,0.1,1.08,0.06,1.74c-0.04,0.66-0.04,1.17,0,1.53c-5.4,0.041-10.701-0.02-15.9-0.18L161.779,134.442z"/>
		</g>
		<g>
			<path fill="#121478" d="M186.552,166.001v-31.92h15.06v3.72c-2.52-0.439-6.1-0.78-10.74-1.02v11.22
				c3.279,0.12,6.859-0.08,10.74-0.6v3.54c-1.92-0.32-5.5-0.48-10.74-0.48v13.14c6.159-0.279,10.1-0.6,11.82-0.96v3.36H186.552z"/>
		</g>
		<g>
			<path fill="#121478" d="M213.618,133.781c0.16,0,0.62,0.431,1.38,1.29c0.76,0.861,1.58,1.89,2.46,3.09
				c1.68,2.24,4.14,5.5,7.38,9.78c3.24,4.281,5.66,7.48,7.26,9.6c-0.201-11.48-0.44-19.06-0.72-22.74h3.66
				c0,19.68-0.12,30.3-0.36,31.86c-0.24,0.32-0.46,0.4-0.66,0.24l-3.54-4.44c-1.36-1.8-3.741-4.939-7.14-9.42l-7.68-10.08
				c-0.081-0.04-0.141,0.041-0.18,0.24c-0.081,0.44-0.081,1.12,0,2.04c0.56,10.2,0.739,16.341,0.54,18.42
				c-0.12,0.76-0.021,1.38,0.3,1.86c0.72,0.6,0.36,0.96-1.08,1.08c-0.88,0.081-1.74,0.06-2.58-0.06
				c-0.16-19.839-0.1-30.459,0.18-31.86C212.997,134.082,213.258,133.781,213.618,133.781z"/>
		</g>
	</g>
	<g>
		<g>
			<path fill="#121478" d="M474.179,268.444c-0.04-0.08-0.04-0.15,0-0.21c0.039-0.061,0.109-0.1,0.21-0.12
				c0.1-0.02,0.199-0.04,0.3-0.061c0.1-0.02,0.24-0.029,0.42-0.029s0.32,0,0.42,0s0.229,0,0.391,0c0.159,0,0.279,0,0.359,0
				c-2.48,4.68-3.92,7.5-4.319,8.46c0.199,0.04,0.609,0.029,1.229-0.03c0.62-0.061,1.189-0.08,1.71-0.061
				c0.52,0.021,0.88,0.131,1.08,0.33c0.84,0.441,2.16,0.741,3.96,0.9c0,2.36-0.06,3.62-0.18,3.78l-1.44-0.601
				c-1-0.399-3.04-0.6-6.12-0.6s-4.94,0.2-5.58,0.6c-1.24,0.84-2.181,2.801-2.819,5.88c-0.84,3.96-0.671,7.581,0.51,10.86
				c1.18,3.28,3.15,5.64,5.91,7.08c1.52,0.761,3.3,1.061,5.34,0.9s3.72-0.68,5.04-1.561c0,0.24,0,0.57,0,0.99s-0.011,0.7-0.03,0.84
				c-0.021,0.141-0.07,0.33-0.149,0.57c-0.081,0.239-0.21,0.43-0.391,0.569c-0.18,0.141-0.45,0.291-0.81,0.45
				c-0.921,0.48-1.38,0.66-1.38,0.54c-0.081-0.039-0.4,0.081-0.96,0.36c-0.561,0.28-0.94,0.359-1.141,0.24
				c-0.359-0.12-0.64-0.04-0.84,0.239c-0.16,0.24-0.86,0.36-2.1,0.36c-1.24,0-1.94-0.12-2.101-0.36
				c-0.16-0.239-0.34-0.279-0.54-0.12c-0.32,0.201-1.25-0.14-2.79-1.02s-2.729-1.74-3.569-2.58c-1.601-1.6-2.781-3.24-3.54-4.92
				c-0.761-1.68-1.221-3.699-1.38-6.06c-0.24-3.16,0.439-6.26,2.04-9.301c1.599-3.039,3.72-5.199,6.359-6.479
				c0.48-0.24,0.88-0.5,1.2-0.78c0.319-0.279,0.6-0.479,0.84-0.6s0.64-0.181,1.2-0.181c0.72,0,1.08-0.06,1.08-0.18
				c0-0.24-0.681-1.58-2.04-4.02c-1.36-2.439-2.16-3.74-2.4-3.9c-0.44-0.279-0.32-0.42,0.36-0.42c0.199,0,0.54,0,1.02,0
				c0.399,0,0.66,0,0.78,0l2.76,5.939C473.558,270.864,474.258,268.964,474.179,268.444z"/>
		</g>
		<g>
			<path fill="#121478" d="M521.132,268.506c-0.081-0.199,0.399-0.3,1.44-0.3c0.119,0,0.279,0,0.479,0c0.12,0,0.2,0,0.24,0
				l-4.32,8.34c2.88-0.199,5.199,0.551,6.96,2.25c1.76,1.7,2.479,3.81,2.16,6.33c-0.2,1.601-0.98,3.16-2.34,4.68
				c-1.36,1.521-2.88,2.541-4.561,3.061c-1.08,0.32-1.619,0.54-1.619,0.66c0,0.16,1.879,2.63,5.64,7.409
				c3.759,4.78,5.82,7.311,6.18,7.591c0.399,0.32,0.48,0.5,0.24,0.54c-0.2,0.04-0.94,0.06-2.22,0.06h-2.761
				c-1.28-1.959-5.2-7.119-11.76-15.48l-0.24,15.48h-4.26v-31.92c2,0.04,4.72-0.1,8.16-0.42c-2.76-5.079-4.24-7.74-4.44-7.98
				c-0.239-0.319-0.26-0.499-0.06-0.54c0.12-0.039,0.42-0.06,0.9-0.06h1.319l2.761,6
				C520.472,270.846,521.171,268.946,521.132,268.506z M514.712,291.426h2.22c3.72,0,6.061-1.119,7.021-3.359
				c0.639-1.479,0.609-3.061-0.091-4.74c-0.7-1.681-1.79-2.78-3.27-3.3c-0.921-0.36-2.88-0.64-5.88-0.841V291.426z"/>
		</g>
		<g>
			<path fill="#121478" d="M611.331,309.127h-4.319c-0.761-2.96-2.28-7.18-4.561-12.66h-8.88c-2.121,6.24-3.24,9.881-3.36,10.92
				c-0.08,0.801-0.261,1.29-0.54,1.47c-0.28,0.181-0.92,0.251-1.92,0.211l-1.92-0.12c3.52-9.08,7.58-19.86,12.181-32.341
				c0.119-0.319,0.319-0.439,0.6-0.359c0.039-0.08,0.739,1.59,2.1,5.01c1.359,3.42,3.04,7.75,5.04,12.99
				S609.611,304.447,611.331,309.127z M597.531,284.167c-0.4,0.6-1.521,3.96-3.36,10.08c4.76,0,7.239-0.1,7.44-0.3
				c0,0.04-0.33-0.76-0.99-2.4c-0.66-1.64-1.33-3.29-2.01-4.95C597.931,284.938,597.57,284.128,597.531,284.167z M602.932,273.307
				c-0.721,0.761-1.271,1.2-1.65,1.32c-0.381,0.12-1.17,0.18-2.37,0.18c1.561-2.04,2.42-3.339,2.58-3.899
				c0.12-0.399,0.29-0.67,0.51-0.811c0.22-0.14,0.67-0.229,1.351-0.27c1.159-0.08,1.8-0.14,1.92-0.181
				c0.68-0.159,0.18,0.761-1.5,2.761C603.491,272.688,603.211,272.987,602.932,273.307z"/>
		</g>
		<g>
			<path fill="#121478" d="M438.44,309.125v-31.92h15.061v3.72c-2.521-0.439-6.101-0.78-10.74-1.02v11.22
				c3.279,0.12,6.859-0.08,10.74-0.6v3.54c-1.92-0.32-5.501-0.48-10.74-0.48v13.14c6.159-0.279,10.1-0.6,11.82-0.96v3.36H438.44z"/>
		</g>
		<g>
			<path fill="#121478" d="M486.829,309.124v-31.92h15.061v3.72c-2.521-0.439-6.101-0.78-10.74-1.02v11.22
				c3.279,0.12,6.859-0.08,10.74-0.6v3.54c-1.92-0.32-5.501-0.48-10.74-0.48v13.14c6.159-0.279,10.1-0.6,11.82-0.96v3.36H486.829z"
				/>
		</g>
		<g>
			<path fill="#121478" d="M548.578,309.306c-1.32,0-2.25-0.06-2.79-0.18s-1.331-0.459-2.37-1.021
				c-2.641-1.439-4.681-3.549-6.12-6.329c-1.44-2.78-2.04-5.77-1.8-8.971c0.279-3.68,1.509-6.96,3.689-9.84
				c2.18-2.88,4.869-4.74,8.07-5.58c2.919-0.759,5.6-0.54,8.04,0.66c2.319,1.12,4.14,3.081,5.46,5.88
				c1.239,3.04,1.79,6.141,1.649,9.3c-0.141,3.161-1.01,6.15-2.609,8.971c-1.601,2.819-3.66,4.851-6.18,6.09
				C552.178,308.967,550.498,309.306,548.578,309.306z M551.218,280.866c-3.36-0.96-6.201-0.48-8.521,1.439
				c-1.76,1.521-2.78,4.5-3.06,8.94c-0.2,3.08,0.27,5.87,1.41,8.37c1.14,2.5,2.77,4.311,4.89,5.43c1.04,0.561,2.5,0.851,4.38,0.87
				c1.88,0.021,3.32-0.271,4.32-0.87c0.96-0.56,1.77-1.32,2.43-2.28s1.051-1.959,1.17-3c0.04-0.12,0.14-1.319,0.301-3.6
				c0.199-4.08-0.351-7.46-1.65-10.14C555.587,283.347,553.697,281.626,551.218,280.866z"/>
		</g>
		<g>
			<path fill="#121478" d="M562.905,275.646c0-0.119,0.8-0.18,2.4-0.18c1.6,0,2.539,0.18,2.819,0.54c0.2,0.24,0.28,0.471,0.24,0.69
				s-0.021,0.471,0.061,0.75c0.159,0.12,0.26,0.25,0.3,0.39c0.039,0.141,0.06,0.311,0.06,0.51c0,0.201,0.04,0.4,0.12,0.601
				l1.561,4.5c3.759,10.68,5.739,16.04,5.939,16.08c0.279-0.28,1.46-3.65,3.54-10.11c2.079-6.459,3.159-10.11,3.24-10.95
				c0.159-1.479,0.36-2.35,0.6-2.61c0.24-0.259,0.92-0.39,2.04-0.39c1.2,0,1.85,0.131,1.95,0.39c0.1,0.261-0.171,1.131-0.81,2.61
				c-0.681,1.601-2.471,6.21-5.37,13.83c-2.9,7.62-4.57,12.13-5.01,13.53c-0.881,2.96-1.62,3.34-2.221,1.14
				c-0.12-0.439-1.62-4.649-4.5-12.63s-4.42-12.35-4.62-13.11C565.006,280.107,564.226,278.247,562.905,275.646z"/>
		</g>
	</g>
	<path fill="#121478" stroke="#6EDCB4" stroke-width="2" stroke-miterlimit="10" d="M464.191,162.968
		c-0.487-1.259-3.635-1.89-9.45-1.89c-5.429,0-8.722,0.631-9.886,1.89c-1.163,1.262-2.135,5.478-2.907,12.647
		c-0.391,4.07-5.624,21.759-15.699,53.06c-10.083,31.306-15.801,47.637-17.154,48.989c-0.973-0.188-10.567-26.166-28.784-77.917
		c-10.987-31.212-23.678-61.821-36.158-92.458c-10.302-25.294-19.044-46.273-26.224-62.946
		c-7.181-16.668-10.879-24.808-11.083-24.422c-0.625-0.19-1.303,0.05-2.029,0.727c-0.732,0.682-1.303,1.599-1.717,2.762
		c-0.624,2.135-10.878,27.72-30.751,76.756c-19.878,49.041-30.547,75.208-32,78.501c0.205,0.972,3.59,1.262,10.146,0.872
		c6.557-0.387,10.25-1.259,11.083-2.617c1.039-1.549,1.561-3.035,1.561-5.556c0-3.294,5.722-19.367,17.171-52.367h46.206
		c11.73,28,21.998,56.249,33.231,84.802c2.639,6.704,4.697,13.132,7.119,19.913c3.491,9.77,7.019,19.283,10.541,29.042
		c13.954,38.669,21.224,58.952,21.805,61.084c2.907,10.661,6.492,8.759,10.758-5.586c2.131-6.784,10.221-28.67,24.276-65.595
		c14.052-36.923,22.725-59.274,26.022-67.029C463.362,168.461,464.672,164.23,464.191,162.968z M283.43,107.145
		c0.625-1.936,2.342-7.074,5.152-15.41c2.81-8.332,5.356-15.65,7.649-21.952c2.288-6.296,3.849-10.126,4.683-11.484
		c0.205-0.19,1.092,1.309,2.653,4.507c1.562,3.199,3.381,7.173,5.464,11.92c2.078,4.752,4.107,9.449,6.088,14.101
		c1.976,4.652,3.692,8.626,5.151,11.92l2.186,4.942C321.411,106.663,308.406,107.145,283.43,107.145z"/>
</g>
<g id="Layer_3" display="none">
	<g display="inline">
		
			<polyline fill="none" stroke="#000000" stroke-width="10" stroke-linecap="square" stroke-linejoin="round" stroke-miterlimit="10" points="
			227.571,158.571 272.143,52.286 383.571,274.571 434.429,151.714 		"/>
		
			<line fill="none" stroke="#000000" stroke-width="10" stroke-linecap="square" stroke-linejoin="round" stroke-miterlimit="10" x1="249" y1="112" x2="300" y2="112"/>
	</g>
</g>
</svg>
