<?xml version="1.0" encoding="utf-8"?>
<!-- Generator: Adobe Illustrator 15.0.0, SVG Export Plug-In . SVG Version: 6.00 Build 0)  -->
<!DOCTYPE svg PUBLIC "-//W3C//DTD SVG 1.1//EN" "http://www.w3.org/Graphics/SVG/1.1/DTD/svg11.dtd">
<svg version="1.1" id="Layer_1" xmlns="http://www.w3.org/2000/svg" xmlns:xlink="http://www.w3.org/1999/xlink" x="0px" y="0px"
	 width="1800px" height="1296px" viewBox="0 0 1800 1296" enable-background="new 0 0 1800 1296" xml:space="preserve">
<polygon fill="#FBD4D3" points="1920.883,1704.054 -248.359,1704.054 -239.583,-314.587 1929.658,-314.587 "/>
<path fill="none" stroke="#A73C96" stroke-width="13" stroke-linecap="round" stroke-miterlimit="10" d="M348.11,780.046
	c-20.232-32.207-71.579-50.039-107.037-35.27c-86.521,36.047,21.248,164.123,50.458,206.529
	c29.445,42.752,24.145,90.686-26.792,111.996c-46.571,19.482-112.233,17.752-145.812-25.635
	c-29.902-38.654,12.968-67.732,43.842-84.078c45.267-23.967,95.104-38.828,139.545-64.348c19.917-11.438,74.262-46.902,86.461-6.953
	c7.879,25.803-2.426,59.24-7.203,84.879c-2.222,11.924-4.792,23.74-7.88,35.471c2.89-21.418,12.87-41.902,18.615-62.666
	c3.991-14.426,8.93-29.422,16.843-42.225c11.245-18.193,33.775-24.537,53.314-19.912c11.142,2.639,12.646,10.957,15.417,21.77
	c2.773,10.822,2.242,18.447-0.667,29.332c-6.471,24.217-14.504,49.033-19.333,74c3.563-16.266,7.659-36.77,14.109-53.307
	c8.74-22.41,37.637-77.98,71.33-65.695c19.986,7.289,13.752,39.621,9.337,51.695c-5.355,14.646-9.181,32.84-1.38,47.57
	c4.15,7.838,13.732,11.236,22.439,9.561c40.341-7.766,54.534-48.502,70.708-80.594c5.905-11.717,10.439-24.648,19.46-34.451
	c-13.962,15.152-15.859,40.68-19.817,59.926c-4.33,21.057,3.299,59.859,34.312,48.574c21.753-7.916,36.825-32.602,49.154-50.846
	c16.678-24.682,35.002-51.498,60.68-67.619c25.306-15.887,54.468-11.371,72.617,12.197c16.324-51.41,22.426-93.543,36.162-141.986"
	/>
<path fill="none" stroke="#A73C96" stroke-width="13" stroke-miterlimit="10" d="M729.091,934.538
	c-4.996,18.443,1.603,43.625,20.997,50.959c19.138,7.236,39.835-4.293,55.335-14.643c34.188-22.826,55.068-58.893,55.849-99.018
	c-4.044,28.422-6.185,54.471-7.98,82.996c-2.053,32.594,19.892,56.197,47.785,29.863c19.484-18.396,26.129-43.551,38.004-66.354
	c12.609-24.211,21-49.803,29.502-76.834c1.449-4.609,26.291,10.965,28.834,13.738c13.869,15.133,8.578,37.811,6.584,56.082
	c-2.635,24.113,2.418,47.674,20.852,64.578c18.537,17.002,40.246,16.188,56.367-4.463c24.254-31.07,37.453-70.941,63.48-100.49
	c18.701-21.232,74.037-38.965,79.367,3.586"/>
<path fill="none" stroke="#A73C96" stroke-width="13" stroke-linecap="round" stroke-miterlimit="10" d="M1102.572,939.038
	c-4.77,12.539-5.23,35.387,4.551,45.941c46.814,50.461,116.15-76.236,116.943-110.439c2.654,30.664-19.246,43.447-19.498,74.996
	c-0.246,30.668,15.49,49.67,44.596,47.914c44.062-2.66,98.664-75.066,120.881-109.133c19.836-30.416,24.145-52.266,22.502-89.91
	c-3.582-82.121-77.312-137.16-148.365-158.91c-88.123-26.974-178.053-13.873-268.25-11.78
	c-118.696,2.753-237.554-0.352-356.247,2.658c-41.937,1.063-235.105,37.231-218.767-49.745
	c3.238-17.236,21.184-25.768,35.818-31.717c48.877-19.872,107.107-20.162,159.032-23.043c117.237-6.507,234.54-6.996,351.905-8.975
	c69.744-1.176,145.725,14.245,214.135-3.709c27.027-7.093,46.482-26.921,26.695-53.291c-25.549-34.043-84.26-32.038-122.539-34.709
	c-57.426-4.007-114.975,2.857-172.392,3.548c-97.129,1.168-194.501-7.885-291.474-4.919c-19.961,0.61-87.714,10.681-86.302-22.5
	c0.892-20.949,42.576-35.413,57.705-40.46c28.806-9.611,56.298-8.682,85.981-10.543c55.38-3.472,110.831,0.726,166.242,0.443
	c51.618-0.263,103.559-5.152,155.072-0.168c33.174,3.21,73.637,16.301,105.375,0.14c64.111-32.648-28.121-89.012-59.252-94.762
	c-60.348-11.147-121.221,2.291-181.772,1.896c-36.136-0.236-72.271-1.015-108.331-3.438c-14.149-0.951-67.438,3.109-70.879-14.31
	c-3.908-19.785,63.218-43.628,78.414-46.064c51.974-8.333,105.151,1.754,157.336,1.76c19.582,0.002,65.346,2.025,73.236-22.956
	c7.248-22.94-24.311-39.88-41.078-46.097c-37.763-14.001-80.025-8.059-118.854-2.792"/>
<circle fill="#A73C96" stroke="#A73C96" stroke-miterlimit="10" cx="672.991" cy="819.962" r="11"/>
<path fill="#FFFFFF" stroke="#000000" stroke-linecap="round" stroke-miterlimit="10" d="M307.684,547.936
	c8.94,4.658,17.078,11.551,23.037,19.829c1.49,2.07,2.844,4.246,3.999,6.531c0.996,1.969,1.388,4.276,2.39,6.195
	c0.815,1.564,2.3,2.709,2.976,4.405c1.421,3.558-1.277,7.849-2.739,10.755c-1.091,2.17-2.211,3.511-2.525,5.892
	c-0.256,1.938-2.002,4.39-2.965,6.064c-1.497,2.6-3.123,5.124-4.917,7.519c-3.56,4.749-7.824,9.097-12.983,11.998
	c-3.694,2.077-7.62,3.532-11.318,5.548c-2.752,1.5-5.191,2.835-8.346,3.731c-4.696,1.333-9.802,0.284-14.455-1.029
	c-3.813-1.076-7.409-1.432-10.913-3.473c-4.224-2.461-7.776-6.024-11.167-9.542c-7.4-7.675-20.091-26.608-3.04-31.274
	c15.941-4.359,31.978,7.606,44.442,15.631c-5.896-10.477-17.004-16.939-24.017-26.6c-5.611-7.731-12.286-24.775-5.06-33.146
	C277.805,538.025,298.768,543.293,307.684,547.936z"/>
<path fill="#FFFFFF" stroke="#000000" stroke-linecap="round" stroke-miterlimit="10" d="M426.182,663.015
	c2.133-6.223,2.704-13.167-0.415-19.153c-2.765-5.308-7.77-8.944-12.948-11.512c-6.913-3.428-14.526-5.285-22.062-6.607
	c-3.499-0.614-7.021-1.115-10.551-1.499c-5.365-0.584-11.625-1.214-16.955-0.439c-7.367,1.072-11.874,3.848-16.022,10.018
	c-6.557,9.754-8.937,20.988-12.369,32.13c-1.451,4.713-3.174,9.307-4.534,14.062c-3.715,12.988,7.176,24.24,17.502,29.959
	c9.699,5.371,39.333,17.537,36.905-6.148c-0.859-8.379-6.832-13.711-12.473-19.111c-4.669-4.473-5.77-9.455-10.614-13.791
	c5.878,2.074,10.58,1.375,16.75,2.75c6.426,1.436,13.417,5.396,19.71,6.195C408.308,681.167,422.765,672.983,426.182,663.015z"/>
<path fill="#FCF5A3" stroke="#000000" stroke-linecap="round" stroke-miterlimit="10" d="M356.669,672.972
	c3.646-3.867,4.937-8.844,5.152-14.078c0.05-1.205-3.139-21.536-5.021-20.71c8.329-3.649,16.586-4.495,20.432-14.264
	c8.902-22.619-2.515-48.099-28.386-44.947c-16.528,2.013-23.762,13.004-25.933,28.481c-4.99-0.698-11.814-2.396-16.792-1.346
	c-4.844,1.021-8.466,4.482-13.034,7.5c-21.314,14.083-19.83,31.517-11.712,52.302c3.331,8.525,4.366,17.02,6.287,26.277
	c13.082,0.768,23.32-1.887,35.35-5.826C335.104,682.407,347.104,683.114,356.669,672.972z"/>
<path fill="none" stroke="#000000" stroke-linecap="round" stroke-miterlimit="10" d="M322.914,607.455
	c-0.01,22.186,13.838,30.729,33.886,30.729"/>
<path stroke="#000000" stroke-linecap="round" stroke-miterlimit="10" d="M322.864,686.354
	c-12.282,0.467-22.602-5.822-31.384-14.043c-2.795-2.617-5.539-5.33-7.497-8.68c-1.828-3.125-3.219-6.891-6.251-9.031
	c-0.103,3.824,2.289,7.844,3.644,11.311c3.331,8.525,4.366,17.02,6.287,26.277c0.321,1.541,16.519-0.854,18.241-1.176
	c5.737-1.082,11.596-2.582,17.071-4.662C322.938,686.353,322.901,686.354,322.864,686.354z"/>
<path stroke="#000000" stroke-linecap="round" stroke-miterlimit="10" d="M360.771,658.931c-0.129-0.027-0.257-0.062-0.386-0.088
	c-12.581,4.779-23.556-2.73-34.367-9.753c-3.402-2.21-6.734-5.259-9.683-8.559c-3.584-2.794-6.894-6.141-10.052-9.204
	c-4.603-4.469-8.007-9.835-10.653-15.719c-0.505-1.122-0.713-2.22-0.701-3.267c-0.601,0.427-1.211,0.852-1.842,1.268
	c-8.081,5.34-12.881,11.164-15.289,17.466c-0.102,0.268,11.583,10.844,12.713,11.973c4.243,4.247,8.653,8.349,13.666,11.625
	c5.951,3.891,11.768,8.012,17.944,11.525c3.937,2.24,8.075,4.094,11.957,6.434c3.609,2.18,6.772,5.863,10.752,7.279
	c0.33,0.119,0.633,0.256,0.926,0.404c3.871-1.557,7.544-3.771,10.912-7.344c3.603-3.818,4.901-8.727,5.14-13.891
	C361.471,659.052,361.127,659.009,360.771,658.931z"/>
<path fill="none" stroke="#000000" stroke-linecap="round" stroke-miterlimit="10" d="M368.874,539.388
	c0,7.563,0.805,15.091,1.055,22.643c0.229,6.947,0.397,14.617-2.271,21.147"/>
<ellipse fill="#FCF5A3" stroke="#000000" stroke-linecap="round" stroke-miterlimit="10" cx="365.93" cy="532.536" rx="7.037" ry="7.209"/>
<path fill="none" stroke="#000000" stroke-linecap="round" stroke-miterlimit="10" d="M376.345,592.257
	c3.995-3.993,10.129-3.092,15.246-3.13c8.089-0.059,16.165,0.571,24.196,1.527"/>
<ellipse fill="#FCF5A3" stroke="#000000" stroke-linecap="round" stroke-miterlimit="10" cx="422.042" cy="590.661" rx="5.387" ry="5.519"/>
<path fill="none" stroke="#A73C96" stroke-width="13" stroke-linecap="round" stroke-miterlimit="10" d="M321.49,694.13
	c-2.714-1.355-39.755,7.168-40.245,4.346c-2.328-13.42-4.707-32.359-14.59-42.422"/>
<path fill="none" stroke="#000000" stroke-width="10" stroke-linecap="round" stroke-miterlimit="10" d="M896.327,1087.296
	c-9.127-7.266-24.472-21.283-37.289-15.311c-30.623,14.271,13.401,61.668,14.363,80.326c0.516,9.988-6.832,15.719-15.75,18.955
	c-25.42,9.227-59.624-9.16-69.993-33.303"/>
<path fill="none" stroke="#000000" stroke-width="10" stroke-linecap="round" stroke-miterlimit="10" d="M940.932,1086.265
	c-4.535,11.865-6.438,24.5-8.592,36.957c-1.484,8.598-4.695,17.262-5.676,25.879c-0.719,6.338,0.82,13.387,8.072,14.936
	c18.824,4.018,35.334-36.926,39.904-49.857c-6.404,18.121-3.748,61.125,24.854,54.299c18.52-4.422,20.275-30.816,22.742-45.992
	c1.619-9.959,2.521-20.035,4.24-29.977"/>
<path fill="none" stroke="#000000" stroke-width="10" stroke-linecap="round" stroke-miterlimit="10" d="M1044.324,1117.962
	c18.793,5.303,41.875,9.057,58.719-3.693c17.443-13.201,9.461-37.326-13.07-34.725c-20.908,2.414-34.113,22.246-36.078,41.766
	c-1.367,13.594-1.027,44.146,14.816,50.316c16.799,6.539,33.184-13.645,48.281-17.664"/>
<path fill="none" stroke="#000000" stroke-width="10" stroke-linecap="round" stroke-miterlimit="10" d="M1139.92,1113.944
	c18.793,5.301,41.873,9.057,58.719-3.693c17.441-13.203,9.461-37.328-13.072-34.725c-20.908,2.414-34.111,22.246-36.076,41.764
	c-1.369,13.596-1.029,44.146,14.814,50.316c16.799,6.541,33.186-13.645,48.281-17.662"/>
<path fill="none" stroke="#000000" stroke-width="10" stroke-linecap="round" stroke-miterlimit="10" d="M1272.992,1018.63
	c0.443,29.996-1.158,59.41-3.877,89.268c-1.512,16.6-4.383,33.734-3.02,50.473c0.646,7.959,4.604,17.611,13.336,19.299
	c10.287,1.986,17.258-7.428,23.561-13.707"/>
<path fill="none" stroke="#000000" stroke-width="10" stroke-linecap="round" stroke-miterlimit="10" d="M1237.658,1063.296
	c19.564,0.008,39.102,1.322,58.666,1.334"/>
<path fill="none" stroke="#000000" stroke-width="10" stroke-linecap="round" stroke-miterlimit="10" d="M1418.992,1077.296
	c-9.227-12.621-32.396-19.125-46.629-14.008c-38.309,13.777-9.672,54.135,7.316,73.4c5.637,6.395,12.943,12.477,17.672,19.541
	c9.703,14.504-2.174,24.652-16.422,25.533c-17.072,1.055-35.348-7.641-46.639-20.32c-4.928-5.533-10.52-17.367-5.697-24.82
	c7.102-10.973,28.602-11.172,39.979-11.781c86.414-4.629,172.182-17.164,258.654-21.855c25.248-1.369,50.506-2.529,75.766-3.689"/>
</svg>
