<?xml version="1.0" encoding="utf-8"?>
<!-- Generator: Adobe Illustrator 15.0.0, SVG Export Plug-In . SVG Version: 6.00 Build 0)  -->
<!DOCTYPE svg PUBLIC "-//W3C//DTD SVG 1.1//EN" "http://www.w3.org/Graphics/SVG/1.1/DTD/svg11.dtd">
<svg version="1.1" id="Layer_1" xmlns="http://www.w3.org/2000/svg" xmlns:xlink="http://www.w3.org/1999/xlink" x="0px" y="0px"
	 width="720px" height="360px" viewBox="0 0 720 360" enable-background="new 0 0 720 360" xml:space="preserve">
<path fill="none" stroke="#C83796" stroke-width="10" stroke-linecap="round" stroke-miterlimit="10" d="M152.912,102.42
	c-10.562-16.815-37.37-26.124-55.884-18.414c-68.605,28.57,69.644,118.128,20.455,159.236
	c-18.945,15.834-56.827,16.505-77.685,3.534c-53.876-33.509,51.852-83.392,74.238-90.614c7.345-2.371,55.555-15.271,60.107-0.36
	c4.114,13.471-1.268,30.929-3.76,44.313c-1.162,6.227-2.503,12.396-4.115,18.52c1.51-11.182,6.721-21.876,9.719-32.717
	c2.084-7.531,4.663-15.361,8.794-22.044c5.87-9.5,17.634-12.811,27.835-10.397c5.816,1.376,6.604,5.72,8.049,11.366
	c1.449,5.65,1.171,9.632-0.348,15.313c-3.379,12.646-7.572,25.601-10.093,38.638c1.859-8.494,3.997-19.198,7.364-27.833
	c4.563-11.701,19.651-40.713,37.242-34.298c10.435,3.805,7.18,20.684,4.875,26.989c-2.797,7.647-4.794,17.146-0.721,24.835
	c2.167,4.094,7.168,5.866,11.715,4.991c28.915-5.562,30.657-40.773,46.753-59.716c-9.141,10.759-20.956,66.796,7.892,56.3
	c11.356-4.134,19.227-17.021,25.663-26.547c8.709-12.885,18.276-26.887,31.682-35.302c13.213-8.296,28.438-5.939,37.913,6.368
	c8.523-26.842,11.708-48.839,18.88-74.132"/>
<path fill="none" stroke="#C83796" stroke-width="10" stroke-miterlimit="10" d="M351.823,183.08
	c-2.609,9.629,0.835,22.777,10.961,26.607c9.992,3.778,20.799-2.242,28.891-7.646c17.849-11.918,28.751-30.748,29.159-51.698
	c-2.112,14.84-3.229,28.439-4.167,43.333c-1.072,17.017,10.386,29.34,24.949,15.589c20.067-18.947,27.248-49.33,35.243-74.755
	c0.758-2.406,13.727,5.725,15.054,7.172c16.002,17.436-5.234,45.061,14.324,62.998c9.68,8.875,21.013,8.449,29.429-2.33
	c12.664-16.223,19.556-37.04,33.145-52.467c9.763-11.084,38.653-20.342,41.436,1.872"/>
<path fill="none" stroke="#C83796" stroke-width="10" stroke-linecap="round" stroke-miterlimit="10" d="M546.815,185.431
	c-3.699,9.896-2.218,23.183,7.997,28.381c6.791,3.456,14.11,1.041,20.042-3.005c14.925-10.179,25.486-28.729,31.854-45.243
	c1.688-4.374,3.37-9.074,3.537-13.809c1.153,13.147-8.571,23.03-9.975,35.649c-1.226,11.036,2.356,24.024,14.064,27.601
	c22.671,6.924,44.588-19.897,56.836-35.057c9.352-11.576,19.484-24.425,24.146-38.723"/>
<path fill="none" stroke="#C83796" stroke-width="10" stroke-linecap="round" stroke-miterlimit="10" d="M150.251,52.748
	c-1.416-0.706-20.755,3.743-21.01,2.269c-1.217-7.006-2.459-16.894-7.617-22.148"/>
<path fill="none" stroke="#231F20" stroke-width="10" stroke-linecap="round" stroke-miterlimit="10" d="M489.661,250.152
	c-4.817-6.59-16.913-9.984-24.345-7.313c-20.001,7.193-5.049,28.264,3.819,38.321c2.943,3.339,6.758,6.515,9.227,10.203
	c5.066,7.572-1.135,12.871-8.573,13.332c-8.914,0.549-18.455-3.992-24.35-10.61c-2.573-2.889-5.492-9.067-2.975-12.959
	c3.708-5.729,14.932-5.831,20.872-6.15c45.115-2.418,89.896-8.961,135.043-11.412c13.182-0.713,26.367-1.318,39.557-1.926"/>
<ellipse fill="#C83796" cx="331.706" cy="123.088" rx="9.731" ry="10.479"/>
<g>
	<path fill="#231F20" stroke="#231F20" stroke-width="2" stroke-miterlimit="10" d="M165.732,244.5
		c8.67,0,15.576,3.395,20.716,10.182c2.284,2.97,3.984,6.349,5.102,10.135c1.116,3.788,1.674,7.591,1.674,11.409
		c0,3.817-0.559,7.621-1.674,11.408c-1.117,3.788-2.817,7.167-5.102,10.136c-5.14,6.787-12.046,10.181-20.716,10.181h-15.654
		c-0.987,0-1.818-0.394-2.492-1.182c-0.675-0.787-1.013-1.757-1.013-2.909v-55.178c0-1.15,0.337-2.136,1.013-2.954
		c0.674-0.818,1.505-1.228,2.492-1.228H165.732z M164.876,300.224c6.438,0,11.63-2.212,15.576-6.636
		c3.842-4.423,5.763-10.211,5.763-17.362c0-7.15-1.921-12.938-5.763-17.363c-3.946-4.423-9.139-6.636-15.576-6.636h-11.215v47.997
		H164.876z"/>
	<path fill="#231F20" stroke="#231F20" stroke-width="2" stroke-miterlimit="10" d="M242.095,301.359
		c0.649,0.759,0.974,1.682,0.974,2.772s-0.325,2-0.974,2.728c-0.65,0.728-1.441,1.091-2.375,1.091h-31.23
		c-0.987,0-1.818-0.394-2.492-1.182c-0.675-0.787-1.013-1.757-1.013-2.909v-55.178c0-1.15,0.337-2.136,1.013-2.954
		c0.674-0.818,1.505-1.228,2.492-1.228h31.23c0.935,0,1.726,0.379,2.375,1.137c0.649,0.758,0.974,1.682,0.974,2.772
		s-0.325,2-0.974,2.727c-0.65,0.728-1.441,1.091-2.375,1.091h-27.647v20.09h24.844c0.935,0,1.726,0.379,2.375,1.136
		c0.649,0.759,0.974,1.683,0.974,2.773s-0.325,1.999-0.974,2.727c-0.65,0.728-1.441,1.091-2.375,1.091h-24.844v20.181h27.647
		C240.654,300.224,241.445,300.603,242.095,301.359z"/>
	<path fill="#231F20" stroke="#231F20" stroke-width="2" stroke-miterlimit="10" d="M271.104,301.042
		c9.085,0,13.629-3.484,13.629-10.454c0-2.909-1.74-5.241-5.218-7c-1.506-0.727-3.259-1.377-5.257-1.954
		c-2-0.575-4.024-1.196-6.075-1.863c-2.052-0.666-4.077-1.423-6.075-2.272c-2-0.849-3.777-1.939-5.335-3.272
		c-3.427-3.03-5.14-7.029-5.14-11.999c0-5.332,1.713-9.695,5.14-13.091c3.738-3.695,8.748-5.545,15.031-5.545
		c5.659,0,10.826,1,15.499,3c1.453,0.606,2.181,1.818,2.181,3.636c0,0.909-0.272,1.773-0.818,2.591
		c-0.545,0.818-1.143,1.228-1.791,1.228c-0.65,0-1.545-0.241-2.687-0.728c-3.375-1.393-7.243-2.091-11.604-2.091
		c-3.999,0-7.295,0.88-9.891,2.637c-2.648,1.818-3.972,4.395-3.972,7.727c0,3.454,1.713,6.061,5.14,7.817
		c1.558,0.85,3.322,1.546,5.296,2.091c1.973,0.546,3.998,1.122,6.075,1.728c2.076,0.606,4.101,1.318,6.075,2.136
		c1.973,0.818,3.738,1.895,5.296,3.228c3.427,2.908,5.14,7.09,5.14,12.544c0,5.213-1.791,9.454-5.374,12.727
		c-3.687,3.334-8.542,5-14.564,5c-6.594,0-12.772-1.455-18.536-4.363c-0.572-0.303-1.078-0.787-1.519-1.455
		c-0.441-0.666-0.662-1.468-0.662-2.408c0-0.939,0.285-1.787,0.857-2.546c0.571-0.757,1.233-1.136,1.986-1.136
		c0.752,0,1.687,0.288,2.804,0.863c1.116,0.577,2.946,1.259,5.491,2.045C264.77,300.648,267.729,301.042,271.104,301.042z"/>
	<path fill="#231F20" stroke="#231F20" stroke-width="2" stroke-miterlimit="10" d="M306.15,244.046c0.986,0,1.83,0.409,2.531,1.227
		c0.701,0.818,1.051,1.805,1.051,2.955v56.087c0,1.151-0.351,2.122-1.051,2.908c-0.701,0.787-1.545,1.182-2.531,1.182
		c-0.987,0-1.818-0.395-2.492-1.182c-0.675-0.786-1.013-1.757-1.013-2.908v-56.087c0-1.15,0.337-2.137,1.013-2.955
		C304.333,244.455,305.164,244.046,306.15,244.046z"/>
	<path fill="#231F20" stroke="#231F20" stroke-width="2" stroke-miterlimit="10" d="M349.84,301.042c4.881,0,9.424-1.333,13.631-4
		v-16.453h-12.852c-0.883,0-1.635-0.364-2.258-1.091c-0.623-0.728-0.936-1.605-0.936-2.637c0-1.029,0.312-1.909,0.936-2.636
		c0.623-0.728,1.375-1.091,2.258-1.091h15.344c1.037,0,1.92,0.425,2.646,1.272c0.727,0.85,1.092,1.879,1.092,3.091v20.635
		c0,1.272-0.273,2.409-0.818,3.409c-0.545,0.999-1.26,1.742-2.143,2.227c-5.814,3.395-11.76,5.091-17.834,5.091
		c-8.152,0-14.746-3.029-19.782-9.091c-5.037-6.12-7.555-13.938-7.555-23.452c0-9.636,2.622-17.574,7.866-23.816
		c5.036-5.938,11.448-8.909,19.236-8.909c4.414,0,8.139,0.637,11.176,1.909c3.039,1.272,5.775,2.818,8.217,4.636
		c1.039,0.668,1.559,1.622,1.559,2.864s-0.287,2.242-0.857,2.999c-0.572,0.759-1.26,1.137-2.064,1.137s-1.467-0.15-1.984-0.455
		c-5.037-3.393-10.125-5.09-15.266-5.09c-6.023,0-10.956,2.122-14.797,6.363c-3.999,4.485-5.997,10.605-5.997,18.362
		c0,7.151,1.869,13.03,5.607,17.635C338.106,298.678,343.299,301.042,349.84,301.042z"/>
	<path fill="#231F20" stroke="#231F20" stroke-width="2" stroke-miterlimit="10" d="M426.63,244.046c0.985,0,1.83,0.409,2.531,1.227
		c0.701,0.818,1.051,1.805,1.051,2.955v54.269c0,1.636-0.506,3.031-1.519,4.182c-1.012,1.151-2.22,1.727-3.621,1.727h-0.935
		c-1.714,0-3.09-0.817-4.128-2.454l-30.14-50.814v49.179c0,1.151-0.351,2.122-1.052,2.908c-0.7,0.787-1.545,1.182-2.531,1.182
		s-1.817-0.395-2.492-1.182c-0.675-0.786-1.012-1.757-1.012-2.908v-54.27c0-1.636,0.492-3.045,1.479-4.227
		c0.985-1.182,2.181-1.772,3.582-1.772h1.013c1.609,0,3.037,0.909,4.283,2.727l29.984,50.542v-49.087
		c0-1.15,0.337-2.137,1.013-2.955C424.812,244.455,425.643,244.046,426.63,244.046z"/>
</g>
</svg>
