<?xml version="1.0" encoding="utf-8"?>
<!-- Generator: Adobe Illustrator 15.0.0, SVG Export Plug-In . SVG Version: 6.00 Build 0)  -->
<!DOCTYPE svg PUBLIC "-//W3C//DTD SVG 1.1//EN" "http://www.w3.org/Graphics/SVG/1.1/DTD/svg11.dtd">
<svg version="1.1" id="Layer_1" xmlns="http://www.w3.org/2000/svg" xmlns:xlink="http://www.w3.org/1999/xlink" x="0px" y="0px"
	 width="50px" height="50px" viewBox="0 0 50 50" enable-background="new 0 0 50 50" xml:space="preserve">
<g>
	<g>
		<g enable-background="new    ">
			<g enable-background="new    ">
				<defs>
					<path id="SVGID_1_" enable-background="new    " d="M12.666,46.753c3.527,2.004,7.749,2.878,12.288,2.268
						C20.415,49.631,16.193,48.757,12.666,46.753c-0.677-0.402-1.584-0.938-2.211-1.414c-1.213-0.921-2.171-1.647-3.076-2.598
						c-1.369-1.438-1.695-1.779-2.623-3.056c-1.338-1.842-2.073-3.383-2.104-3.447c-0.823-1.737-0.971-2.051-1.529-3.774
						c-0.329-1.015-0.658-2.406-0.814-3.462c-0.179-1.203-0.325-2.825-0.318-4.041C0,23.274,0.089,22.637,0.353,20.744
						c0.002-0.017,0.262-1.783,1.038-4.005C1.864,15.384,2,15.113,3.056,13.005c0.012-0.024,1.261-2.491,3.755-5.158
						c2.291-2.449,6.282-5.676,12.286-7.142c6.536-1.596,11.945-0.094,13.967,0.625c0.672,0.239,1.796,0.64,2.988,1.243
						c1.301,0.659,2.382,1.297,3.214,1.898c0.846,0.61,1.805,1.303,3.01,2.458c1.32,1.266,2.228,2.403,2.651,2.968
						c0.433,0.578,1.239,1.655,2.162,3.377c0.549,1.022,1.133,2.461,1.547,3.545c0.414,1.086,1.143,3.824,1.29,6.182
						c0.047,0.747,0.115,1.747,0.074,2.494c-0.095,1.735-0.163,2.988-0.439,4.215c-0.438,1.947-0.571,2.534-1.123,4.016
						c-0.77,2.066-1.677,3.601-1.777,3.77c-0.581,0.969-1.446,2.207-2.127,3.11c-0.419,0.556-1.065,1.225-1.531,1.741
						c-0.364,0.405-0.896,0.903-1.307,1.261c-0.583,0.508-1.394,1.146-2.005,1.621c-0.136,0.106-3.386,2.607-7.915,3.841
						c-1.223,0.332-4.942,1.346-9.804,0.756c-2.449-0.297-4.265-0.896-5.041-1.152c-0.521-0.172-1.207-0.429-1.707-0.654
						C14.444,47.668,13.422,47.154,12.666,46.753z"/>
				</defs>
				<clipPath id="SVGID_2_">
					<use xlink:href="#SVGID_1_"  overflow="visible"/>
				</clipPath>
				<g clip-path="url(#SVGID_2_)" enable-background="new    ">
					<path fill="#4C9AD5" d="M12.666,46.753c22.077,11.71,42.827-9.751,36.032-29.756C45.418,7.341,36.408,0.521,26.278,0.026
						C15.911-0.48,6.458,5.289,2.197,14.724C-2.372,24.843-0.244,39.094,12.666,46.753c3.527,2.004,7.749,2.878,12.288,2.268
						C20.415,49.631,16.193,48.757,12.666,46.753"/>
					<g>
						<path fill="#4C9AD5" d="M24.954,49.021c-4.539,0.61-8.761-0.264-12.288-2.268c0.383,0.203,0.895,0.475,1.279,0.678
							c0.576,0.265,1.346,0.616,1.933,0.856l1.055,0.387c0.371,0.117,0.865,0.279,1.239,0.387l0.854,0.227
							c0.269,0.062,0.627,0.146,0.897,0.203l0.712,0.137c0.215,0.035,0.501,0.084,0.717,0.116l0.622,0.083
							c0.185,0.021,0.431,0.051,0.617,0.067l0.568,0.049c0.169,0.011,0.394,0.027,0.563,0.035L24.264,50
							c0.163,0.003,0.379,0.01,0.542,0.01l0.542-0.002c0.165-0.004,0.383-0.014,0.548-0.014l0.567-0.026
							c0.176-0.013,0.409-0.026,0.584-0.041l0.627-0.06l0.273-0.031l-0.319,0.031c-1.39,0.083-1.886-0.232-2.311-0.592
							C25.296,49.258,24.965,49.022,24.954,49.021"/>
						<path fill="#4C9AD5" d="M24.954,49.021c0.149-0.181-0.031-0.546-0.044-0.779c-0.325-5.746-0.606-10.71,6.022-14.793
							c9.459-5.829,16.632,0.261,16.63,1.642c-0.001,0.466-0.214,1.116-0.633,1.931l0.859-1.718c0.22-0.539,0.532-1.251,0.731-1.798
							l0.594-1.866c0.147-0.637,0.364-1.48,0.484-2.123l0.281-1.987c0.045-0.745,0.119-1.739,0.127-2.485l-0.079-2.042
							c-0.078-0.653-0.161-1.527-0.268-2.176l-0.407-1.944c-0.183-0.619-0.406-1.451-0.615-2.062l-0.708-1.81
							c-0.279-0.579-0.637-1.36-0.941-1.927l-0.974-1.638c-0.375-0.535-0.862-1.257-1.26-1.774l-1.193-1.421
							c-0.475-0.488-1.101-1.146-1.597-1.613l-1.317-1.134c-1.745-1.304-1.928-1.441-3.315-2.251l-1.278-0.678
							c-0.577-0.265-1.347-0.616-1.934-0.856L33.064,1.33c-0.371-0.118-0.865-0.279-1.239-0.387l-0.853-0.226
							c-0.27-0.061-0.628-0.146-0.897-0.203l-0.713-0.137c-0.215-0.035-0.501-0.084-0.716-0.116l-0.623-0.083
							c-0.185-0.02-0.432-0.048-0.616-0.067l-0.568-0.048c-0.169-0.011-0.395-0.023-0.563-0.035l-0.543-0.022
							c-0.163-0.003-0.379-0.01-0.542-0.01l-0.542,0.002C24.484,0,24.265,0.009,24.101,0.009l-0.568,0.027
							c-0.175,0.013-0.409,0.026-0.583,0.042l-0.627,0.06c-0.198,0.024-0.461,0.053-0.659,0.08l-0.819,0.125
							c-2.377,0.449-3.52,0.816-5.335,1.522L14.216,2.44c-1.676,0.864-1.776,0.916-2.744,1.534l-1.395,0.967
							C9.478,5.42,8.682,6.061,8.108,6.569L6.811,7.847c-0.457,0.521-1.074,1.209-1.507,1.75L4.2,11.12
							c-0.347,0.563-0.823,1.307-1.145,1.885l-0.858,1.719c-0.245,0.604-0.588,1.402-0.806,2.015l-0.575,1.875
							c-0.142,0.638-0.35,1.486-0.463,2.13l-0.261,1.994c-0.033,0.667-0.098,1.556-0.102,2.224l0.079,2.042
							c0.128,1.071,0.336,2.498,0.541,3.558l0.512,1.903c0.216,0.606,0.486,1.422,0.728,2.019l0.801,1.756
							c0.312,0.564,0.713,1.326,1.05,1.877l1.054,1.57c0.408,0.519,0.94,1.22,1.37,1.72l1.252,1.336
							c0.513,0.473,1.19,1.11,1.724,1.559l1.353,1.039c0.655,0.437,1.534,1.012,2.211,1.414
							C16.193,48.757,20.415,49.631,24.954,49.021"/>
					</g>
					<g>
						<path fill="#4A97D0" d="M26.33,49.975c-0.968-0.001-1.189-0.048-1.716-0.248c-0.284-0.108-0.34-0.417-0.531-0.607
							c-4.208,0.395-8.117-0.491-11.417-2.366c0.383,0.203,0.895,0.475,1.279,0.678c0.576,0.265,1.346,0.616,1.933,0.856
							l1.055,0.387c0.371,0.117,0.865,0.279,1.239,0.387l0.854,0.227c0.269,0.062,0.627,0.146,0.897,0.203l0.712,0.137
							c0.215,0.035,0.501,0.084,0.717,0.116l0.622,0.083c0.185,0.021,0.431,0.051,0.617,0.067l0.568,0.049
							c0.169,0.011,0.394,0.027,0.563,0.035L24.264,50c0.163,0.003,0.379,0.01,0.542,0.01l0.542-0.002
							c0.165-0.004,0.383-0.014,0.548-0.014c0.147-0.007,0.345-0.016,0.492-0.022C26.37,49.973,26.347,49.975,26.33,49.975"/>
						<path fill="#4A97D0" d="M24.083,49.119c-1.227-2.436-0.151-9.926,3.069-13.006c5.303-5.072,10.654-6.804,15.906-5.145
							c4.925,1.557,5.812,1.837,4.569,4.682l0.756-1.78l0.136-0.365l0.594-1.866c0.147-0.637,0.364-1.48,0.484-2.123l0.281-1.987
							c0.045-0.745,0.119-1.739,0.127-2.485l-0.079-2.042c-0.078-0.653-0.161-1.527-0.268-2.176l-0.407-1.944
							c-0.183-0.619-0.406-1.451-0.615-2.062l-0.708-1.81c-0.279-0.579-0.637-1.36-0.941-1.927l-0.974-1.638
							c-0.375-0.535-0.862-1.257-1.26-1.774l-1.193-1.421c-0.475-0.488-1.101-1.146-1.597-1.613l-1.317-1.134
							c-1.745-1.304-1.928-1.441-3.315-2.251l-1.278-0.678c-0.577-0.265-1.347-0.616-1.934-0.856L33.064,1.33
							c-0.371-0.118-0.865-0.279-1.239-0.387l-0.853-0.226c-0.27-0.061-0.628-0.146-0.897-0.203l-0.713-0.137
							c-0.215-0.035-0.501-0.084-0.716-0.116l-0.623-0.083c-0.185-0.02-0.432-0.048-0.616-0.067l-0.568-0.048
							c-0.169-0.011-0.395-0.023-0.563-0.035l-0.543-0.022c-0.163-0.003-0.379-0.01-0.542-0.01l-0.542,0.002
							C24.484,0,24.265,0.009,24.101,0.009l-0.568,0.027c-0.175,0.013-0.409,0.026-0.583,0.042l-0.627,0.06
							c-0.198,0.024-0.461,0.053-0.659,0.08l-0.819,0.125c-2.377,0.449-3.52,0.816-5.335,1.522L14.216,2.44
							c-1.676,0.864-1.776,0.916-2.744,1.534l-1.395,0.967C9.478,5.42,8.682,6.061,8.108,6.569L6.811,7.847
							c-0.457,0.521-1.074,1.209-1.507,1.75L4.2,11.12c-0.347,0.563-0.823,1.307-1.145,1.885l-0.858,1.719
							c-0.245,0.604-0.588,1.402-0.806,2.015l-0.575,1.875c-0.142,0.638-0.35,1.486-0.463,2.13l-0.261,1.994
							c-0.033,0.667-0.098,1.556-0.102,2.224l0.079,2.042c0.128,1.071,0.336,2.498,0.541,3.558l0.512,1.903
							c0.216,0.606,0.486,1.422,0.728,2.019l0.801,1.756c0.312,0.564,0.713,1.326,1.05,1.877l1.054,1.57
							c0.408,0.519,0.94,1.22,1.37,1.72l1.252,1.336c0.513,0.473,1.19,1.11,1.724,1.559l1.353,1.039
							c0.655,0.437,1.534,1.012,2.211,1.414C15.966,48.628,19.875,49.514,24.083,49.119"/>
					</g>
					<g>
						<path fill="#4994CC" d="M24.767,50.002c-1.008-0.066-1.008-0.063-2.076-0.801c-3.678,0.101-7.092-0.782-10.026-2.449
							c0.383,0.203,0.895,0.475,1.279,0.678c0.576,0.265,1.346,0.617,1.933,0.857l1.055,0.387c0.371,0.117,0.865,0.279,1.239,0.387
							l0.854,0.227c0.269,0.062,0.627,0.146,0.897,0.203l0.712,0.137c0.215,0.035,0.501,0.084,0.717,0.116l0.622,0.083
							c0.185,0.021,0.431,0.051,0.617,0.067l0.568,0.049c0.169,0.011,0.394,0.027,0.563,0.035l0.542,0.018
							C24.426,49.998,24.643,50,24.806,50c0.037,0,0.085,0,0.122,0C24.879,50,24.815,50.004,24.767,50.002"/>
						<path fill="#4994CC" d="M22.691,49.204c0.049-0.066-0.039-0.189-0.071-0.266c-0.037-0.089-1.845-10.008,8.498-16.562
							c7.181-4.552,17.319-2.485,17.421,0.444c0.006,0.178-0.013,0.676-0.315,1.462c0.298-0.781,0.636-1.846,0.89-2.644
							c0.147-0.637,0.364-1.48,0.484-2.123l0.281-1.987c0.045-0.745,0.119-1.739,0.127-2.485l-0.079-2.042
							c-0.078-0.653-0.161-1.527-0.268-2.176l-0.407-1.944c-0.183-0.619-0.406-1.451-0.615-2.062l-0.708-1.81
							c-0.279-0.579-0.637-1.36-0.941-1.927l-0.974-1.638c-0.375-0.535-0.862-1.257-1.26-1.774l-1.193-1.421
							c-0.475-0.488-1.101-1.146-1.597-1.613l-1.317-1.134c-1.745-1.304-1.928-1.441-3.315-2.251l-1.278-0.678
							c-0.577-0.265-1.347-0.616-1.934-0.856L33.064,1.33c-0.371-0.118-0.865-0.279-1.239-0.387l-0.853-0.226
							c-0.27-0.061-0.628-0.146-0.897-0.203l-0.713-0.137c-0.215-0.035-0.501-0.084-0.716-0.116l-0.623-0.083
							c-0.185-0.02-0.432-0.048-0.616-0.067l-0.568-0.048c-0.169-0.011-0.395-0.023-0.563-0.035l-0.543-0.022
							c-0.163-0.003-0.379-0.01-0.542-0.01l-0.542,0.002C24.484,0,24.265,0.009,24.101,0.009l-0.568,0.027
							c-0.175,0.013-0.409,0.026-0.583,0.042l-0.627,0.06c-0.198,0.024-0.461,0.053-0.659,0.08l-0.819,0.125
							c-2.377,0.449-3.52,0.816-5.335,1.522L14.216,2.44c-1.676,0.864-1.776,0.916-2.744,1.534l-1.395,0.967
							C9.478,5.42,8.682,6.061,8.108,6.569L6.811,7.847c-0.457,0.521-1.074,1.209-1.507,1.75L4.2,11.12
							c-0.347,0.563-0.823,1.307-1.145,1.885l-0.858,1.719c-0.245,0.604-0.588,1.402-0.806,2.015l-0.575,1.875
							c-0.142,0.638-0.35,1.486-0.463,2.13l-0.261,1.994c-0.033,0.667-0.098,1.556-0.102,2.224l0.079,2.042
							c0.128,1.071,0.336,2.498,0.541,3.558l0.512,1.903c0.216,0.606,0.486,1.422,0.728,2.019l0.801,1.756
							c0.312,0.564,0.713,1.326,1.05,1.877l1.054,1.57c0.408,0.519,0.94,1.22,1.37,1.72l1.252,1.336
							c0.513,0.473,1.19,1.11,1.724,1.559l1.353,1.039c0.655,0.437,1.534,1.012,2.211,1.414
							C15.599,48.42,19.014,49.305,22.691,49.204"/>
					</g>
					<g>
						<path fill="#4791C8" d="M23.475,49.964c-1.099-0.115-1.5-0.346-1.896-0.76c-3.254-0.088-6.278-0.954-8.914-2.451
							c0.383,0.203,0.895,0.475,1.279,0.678c0.576,0.265,1.346,0.616,1.933,0.856l1.055,0.387c0.371,0.117,0.865,0.279,1.239,0.387
							l0.854,0.227c0.269,0.062,0.627,0.146,0.897,0.203l0.712,0.137c0.215,0.035,0.501,0.084,0.717,0.116l0.622,0.083
							c0.185,0.021,0.431,0.051,0.617,0.067l0.568,0.049l0.371,0.024L23.475,49.964"/>
						<path fill="#4791C8" d="M21.579,49.204c-2.153-3.739,6.312-24.759,25.586-19.309c2.027,0.573,1.858,1.889,1.541,3.075
							l0.552-1.885l0.34-1.57l0.281-1.987c0.045-0.745,0.119-1.739,0.127-2.485l-0.079-2.042c-0.078-0.653-0.161-1.527-0.268-2.176
							l-0.407-1.944c-0.183-0.619-0.406-1.451-0.615-2.062l-0.708-1.81c-0.279-0.579-0.637-1.36-0.941-1.927l-0.974-1.638
							c-0.375-0.535-0.862-1.257-1.26-1.774l-1.193-1.421c-0.475-0.488-1.101-1.146-1.597-1.613l-1.317-1.134
							c-1.745-1.304-1.928-1.441-3.315-2.251l-1.278-0.678c-0.577-0.265-1.347-0.616-1.934-0.856L33.064,1.33
							c-0.371-0.118-0.865-0.279-1.239-0.387l-0.853-0.226c-0.27-0.061-0.628-0.146-0.897-0.203l-0.713-0.137
							c-0.215-0.035-0.501-0.084-0.716-0.116l-0.623-0.083c-0.185-0.02-0.432-0.048-0.616-0.067l-0.568-0.048
							c-0.169-0.011-0.395-0.023-0.563-0.035l-0.543-0.022c-0.163-0.003-0.379-0.01-0.542-0.01l-0.542,0.002
							C24.484,0,24.265,0.009,24.101,0.009l-0.568,0.027c-0.175,0.013-0.409,0.026-0.583,0.042l-0.627,0.06
							c-0.198,0.024-0.461,0.053-0.659,0.08l-0.819,0.125c-2.377,0.449-3.52,0.816-5.335,1.522L14.216,2.44
							c-1.676,0.864-1.776,0.916-2.744,1.534l-1.395,0.967C9.478,5.42,8.682,6.061,8.108,6.569L6.811,7.847
							c-0.457,0.521-1.074,1.209-1.507,1.75L4.2,11.12c-0.347,0.563-0.823,1.307-1.145,1.885l-0.858,1.719
							c-0.245,0.604-0.588,1.402-0.806,2.015l-0.575,1.875c-0.142,0.638-0.35,1.486-0.463,2.13l-0.261,1.994
							c-0.033,0.667-0.098,1.556-0.102,2.224l0.079,2.042c0.128,1.071,0.336,2.498,0.541,3.558l0.512,1.903
							c0.216,0.606,0.486,1.422,0.728,2.019l0.801,1.756c0.312,0.564,0.713,1.326,1.05,1.877l1.054,1.57
							c0.408,0.519,0.94,1.22,1.37,1.72l1.252,1.336c0.513,0.473,1.19,1.11,1.724,1.559l1.353,1.039
							c0.655,0.437,1.534,1.012,2.211,1.414C15.301,48.25,18.325,49.116,21.579,49.204"/>
					</g>
					<g>
						<path fill="#468EC4" d="M21.975,49.823c-0.919-0.151-1.327-0.489-1.488-0.679c-2.839-0.231-5.482-1.063-7.821-2.392
							c0.383,0.203,0.895,0.475,1.279,0.678c0.576,0.265,1.346,0.616,1.933,0.856l1.055,0.387c0.371,0.117,0.865,0.279,1.239,0.387
							l0.854,0.227c0.269,0.062,0.627,0.146,0.897,0.203l0.712,0.137c0.215,0.035,0.501,0.084,0.717,0.116l0.622,0.083l0.195,0.023
							L21.975,49.823"/>
						<path fill="#468EC4" d="M20.486,49.145c-2.438-2.867,5.116-22.357,24.251-20.753c2.693,0.227,5.02,0.421,4.358,3.31
							l0.453-1.926l0.049-0.26l0.281-1.987c0.045-0.745,0.119-1.739,0.127-2.485l-0.079-2.042c-0.078-0.653-0.161-1.527-0.268-2.176
							l-0.407-1.944c-0.183-0.619-0.406-1.451-0.615-2.062l-0.708-1.81c-0.279-0.579-0.637-1.36-0.941-1.927l-0.974-1.638
							c-0.375-0.535-0.862-1.257-1.26-1.774l-1.193-1.421c-0.475-0.488-1.101-1.146-1.597-1.613l-1.317-1.134
							c-1.745-1.304-1.928-1.441-3.315-2.251l-1.278-0.678c-0.577-0.265-1.347-0.616-1.934-0.856L33.064,1.33
							c-0.371-0.118-0.865-0.279-1.239-0.387l-0.853-0.226c-0.27-0.061-0.628-0.146-0.897-0.203l-0.713-0.137
							c-0.215-0.035-0.501-0.084-0.716-0.116l-0.623-0.083c-0.185-0.02-0.432-0.048-0.616-0.067l-0.568-0.048
							c-0.169-0.011-0.395-0.023-0.563-0.035l-0.543-0.022c-0.163-0.003-0.379-0.01-0.542-0.01l-0.542,0.002
							C24.484,0,24.265,0.009,24.101,0.009l-0.568,0.027c-0.175,0.013-0.409,0.026-0.583,0.042l-0.627,0.06
							c-0.198,0.024-0.461,0.053-0.659,0.08l-0.819,0.125c-2.377,0.449-3.52,0.816-5.335,1.522L14.216,2.44
							c-1.676,0.864-1.776,0.916-2.744,1.534l-1.395,0.967C9.478,5.42,8.682,6.061,8.108,6.569L6.811,7.847
							c-0.457,0.521-1.074,1.209-1.507,1.75L4.2,11.12c-0.347,0.563-0.823,1.307-1.145,1.885l-0.858,1.719
							c-0.245,0.604-0.588,1.402-0.806,2.015l-0.575,1.875c-0.142,0.638-0.35,1.486-0.463,2.13l-0.261,1.994
							c-0.033,0.667-0.098,1.556-0.102,2.224l0.079,2.042c0.128,1.071,0.336,2.498,0.541,3.558l0.512,1.903
							c0.216,0.606,0.486,1.422,0.728,2.019l0.801,1.756c0.312,0.564,0.713,1.326,1.05,1.877l1.054,1.57
							c0.408,0.519,0.94,1.22,1.37,1.72l1.252,1.336c0.513,0.473,1.19,1.11,1.724,1.559l1.353,1.039
							c0.655,0.437,1.534,1.012,2.211,1.414C15.004,48.081,17.647,48.913,20.486,49.145"/>
					</g>
					<g>
						<path fill="#448BC0" d="M20.757,49.647c-0.283-0.063-0.946-0.211-1.336-0.619c-2.436-0.333-4.712-1.115-6.755-2.275
							c0.383,0.203,0.895,0.475,1.279,0.678c0.576,0.265,1.346,0.616,1.933,0.856l1.055,0.387c0.371,0.117,0.865,0.279,1.239,0.387
							l0.854,0.227c0.269,0.062,0.627,0.146,0.897,0.203l0.712,0.137l0.22,0.038L20.757,49.647"/>
						<path fill="#448BC0" d="M19.421,49.028c-3.046-3.015,6.091-21.26,23.33-21.621c4.536-0.096,7.273-0.152,6.663,3.02
							c0.174-0.863,0.342-2.026,0.465-2.898c0.045-0.745,0.119-1.739,0.127-2.485l-0.079-2.042
							c-0.078-0.653-0.161-1.527-0.268-2.176l-0.407-1.944c-0.183-0.619-0.406-1.451-0.615-2.062l-0.708-1.81
							c-0.279-0.579-0.637-1.36-0.941-1.927l-0.974-1.638c-0.375-0.535-0.862-1.257-1.26-1.774l-1.193-1.421
							c-0.475-0.488-1.101-1.146-1.597-1.613l-1.317-1.134c-1.745-1.304-1.928-1.441-3.315-2.251l-1.278-0.678
							c-0.577-0.265-1.347-0.616-1.934-0.856L33.064,1.33c-0.371-0.118-0.865-0.279-1.239-0.387l-0.853-0.226
							c-0.27-0.061-0.628-0.146-0.897-0.203l-0.713-0.137c-0.215-0.035-0.501-0.084-0.716-0.116l-0.623-0.083
							c-0.185-0.02-0.432-0.048-0.616-0.067l-0.568-0.048c-0.169-0.011-0.395-0.023-0.563-0.035l-0.543-0.022
							c-0.163-0.003-0.379-0.01-0.542-0.01l-0.542,0.002C24.484,0,24.265,0.009,24.101,0.009l-0.568,0.027
							c-0.175,0.013-0.409,0.026-0.583,0.042l-0.627,0.06c-0.198,0.024-0.461,0.053-0.659,0.08l-0.819,0.125
							c-2.377,0.449-3.52,0.816-5.335,1.522L14.216,2.44c-1.676,0.864-1.776,0.916-2.744,1.534l-1.395,0.967
							C9.478,5.42,8.682,6.061,8.108,6.569L6.811,7.847c-0.457,0.521-1.074,1.209-1.507,1.75L4.2,11.12
							c-0.347,0.563-0.823,1.307-1.145,1.885l-0.858,1.719c-0.245,0.604-0.588,1.402-0.806,2.015l-0.575,1.875
							c-0.142,0.638-0.35,1.486-0.463,2.13l-0.261,1.994c-0.033,0.667-0.098,1.556-0.102,2.224l0.079,2.042
							c0.128,1.071,0.336,2.498,0.541,3.558l0.512,1.903c0.216,0.606,0.486,1.422,0.728,2.019l0.801,1.756
							c0.312,0.564,0.713,1.326,1.05,1.877l1.054,1.57c0.408,0.519,0.94,1.22,1.37,1.72l1.252,1.336
							c0.513,0.473,1.19,1.11,1.724,1.559l1.353,1.039c0.655,0.437,1.534,1.012,2.211,1.414
							C14.708,47.913,16.985,48.695,19.421,49.028"/>
					</g>
					<g>
						<path fill="#4388BC" d="M19.454,49.388c-0.369-0.105-0.751-0.215-1.087-0.533c-2.04-0.396-3.956-1.11-5.702-2.102
							c0.383,0.203,0.895,0.475,1.279,0.678c0.576,0.265,1.346,0.616,1.933,0.856l1.055,0.387c0.371,0.117,0.865,0.279,1.239,0.387
							l0.854,0.227l0.527,0.123L19.454,49.388"/>
						<path fill="#4388BC" d="M18.367,48.854c-3.72-3.444,8.352-22.378,26.838-22.625c3.497-0.046,4.789,0.794,4.46,2.9l0.251-1.997
							c0.027-0.627,0.088-1.462,0.09-2.09l-0.079-2.042c-0.078-0.653-0.161-1.527-0.268-2.176l-0.407-1.944
							c-0.183-0.619-0.406-1.451-0.615-2.062l-0.708-1.81c-0.279-0.579-0.637-1.36-0.941-1.927l-0.974-1.638
							c-0.375-0.535-0.862-1.257-1.26-1.774l-1.193-1.421c-0.475-0.488-1.101-1.146-1.597-1.613l-1.317-1.134
							c-1.745-1.304-1.928-1.441-3.315-2.251l-1.278-0.678c-0.577-0.265-1.347-0.616-1.934-0.856L33.064,1.33
							c-0.371-0.118-0.865-0.279-1.239-0.387l-0.853-0.226c-0.27-0.061-0.628-0.146-0.897-0.203l-0.713-0.137
							c-0.215-0.035-0.501-0.084-0.716-0.116l-0.623-0.083c-0.185-0.02-0.432-0.048-0.616-0.067l-0.568-0.048
							c-0.169-0.011-0.395-0.023-0.563-0.035l-0.543-0.022c-0.163-0.003-0.379-0.01-0.542-0.01l-0.542,0.002
							C24.484,0,24.265,0.009,24.101,0.009l-0.568,0.027c-0.175,0.013-0.409,0.026-0.583,0.042l-0.627,0.06
							c-0.198,0.024-0.461,0.053-0.659,0.08l-0.819,0.125c-2.377,0.449-3.52,0.816-5.335,1.522L14.216,2.44
							c-1.676,0.864-1.776,0.916-2.744,1.534l-1.395,0.967C9.478,5.42,8.682,6.061,8.108,6.569L6.811,7.847
							c-0.457,0.521-1.074,1.209-1.507,1.75L4.2,11.12c-0.347,0.563-0.823,1.307-1.145,1.885l-0.858,1.719
							c-0.245,0.604-0.588,1.402-0.806,2.015l-0.575,1.875c-0.142,0.638-0.35,1.486-0.463,2.13l-0.261,1.994
							c-0.033,0.667-0.098,1.556-0.102,2.224l0.079,2.042c0.128,1.071,0.336,2.498,0.541,3.558l0.512,1.903
							c0.216,0.606,0.486,1.422,0.728,2.019l0.801,1.756c0.312,0.564,0.713,1.326,1.05,1.877l1.054,1.57
							c0.408,0.519,0.94,1.22,1.37,1.72l1.252,1.336c0.513,0.473,1.19,1.11,1.724,1.559l1.353,1.039
							c0.655,0.437,1.534,1.012,2.211,1.414C14.411,47.744,16.327,48.459,18.367,48.854"/>
					</g>
					<g>
						<path fill="#4285B7" d="M18.084,49.031c-0.199-0.068-0.471-0.163-0.77-0.411c-1.648-0.418-3.207-1.048-4.649-1.867
							c0.383,0.203,0.895,0.475,1.279,0.678c0.576,0.265,1.346,0.616,1.933,0.856l1.055,0.387c0.371,0.117,0.865,0.279,1.239,0.387
							c0.024,0.007,0.055,0.016,0.079,0.022C18.2,49.067,18.134,49.048,18.084,49.031"/>
						<path fill="#4285B7" d="M17.314,48.62c-3.266-2.508,5.9-13.35,7.304-14.616c6.769-6.107,13.808-8.094,18.521-8.685
							c3.177-0.398,6.778-0.85,6.708,2.499l0.146-2.026l0.013-0.748l-0.079-2.042c-0.078-0.653-0.161-1.527-0.268-2.176
							l-0.407-1.944c-0.183-0.619-0.406-1.451-0.615-2.062l-0.708-1.81c-0.279-0.579-0.637-1.36-0.941-1.927l-0.974-1.638
							c-0.375-0.535-0.862-1.257-1.26-1.774l-1.193-1.421c-0.475-0.488-1.101-1.146-1.597-1.613l-1.317-1.134
							c-1.745-1.304-1.928-1.441-3.315-2.251l-1.278-0.678c-0.577-0.265-1.347-0.616-1.934-0.856L33.064,1.33
							c-0.371-0.118-0.865-0.279-1.239-0.387l-0.853-0.226c-0.27-0.061-0.628-0.146-0.897-0.203l-0.713-0.137
							c-0.215-0.035-0.501-0.084-0.716-0.116l-0.623-0.083c-0.185-0.02-0.432-0.048-0.616-0.067l-0.568-0.048
							c-0.169-0.011-0.395-0.023-0.563-0.035l-0.543-0.022c-0.163-0.003-0.379-0.01-0.542-0.01l-0.542,0.002
							C24.484,0,24.265,0.009,24.101,0.009l-0.568,0.027c-0.175,0.013-0.409,0.026-0.583,0.042l-0.627,0.06
							c-0.198,0.024-0.461,0.053-0.659,0.08l-0.819,0.125c-2.377,0.449-3.52,0.816-5.335,1.522L14.216,2.44
							c-1.676,0.864-1.776,0.916-2.744,1.534l-1.395,0.967C9.478,5.42,8.682,6.061,8.108,6.569L6.811,7.847
							c-0.457,0.521-1.074,1.209-1.507,1.75L4.2,11.12c-0.347,0.563-0.823,1.307-1.145,1.885l-0.858,1.719
							c-0.245,0.604-0.588,1.402-0.806,2.015l-0.575,1.875c-0.142,0.638-0.35,1.486-0.463,2.13l-0.261,1.994
							c-0.033,0.667-0.098,1.556-0.102,2.224l0.079,2.042c0.128,1.071,0.336,2.498,0.541,3.558l0.512,1.903
							c0.216,0.606,0.486,1.422,0.728,2.019l0.801,1.756c0.312,0.564,0.713,1.326,1.05,1.877l1.054,1.57
							c0.408,0.519,0.94,1.22,1.37,1.72l1.252,1.336c0.513,0.473,1.19,1.11,1.724,1.559l1.353,1.039
							c0.655,0.437,1.534,1.012,2.211,1.414C14.107,47.572,15.666,48.202,17.314,48.62"/>
					</g>
					<g>
						<path fill="#4082B3" d="M16.635,48.553c-0.119-0.061-0.27-0.153-0.376-0.233c-1.261-0.398-2.463-0.925-3.593-1.566
							c0.383,0.203,0.895,0.475,1.279,0.678c0.576,0.265,1.346,0.616,1.933,0.856l1.055,0.387l0.046,0.016l-0.289-0.111
							C16.673,48.57,16.651,48.561,16.635,48.553"/>
						<path fill="#4082B3" d="M16.259,48.319c-4.119-3.034,7.86-20.604,27.043-24.193c6.611-1.237,6.648,1.343,6.663,2.314
							c0.03-1.032,0.002-2.408-0.038-3.439c-0.078-0.653-0.161-1.527-0.268-2.176l-0.407-1.944
							c-0.183-0.619-0.406-1.451-0.615-2.062l-0.708-1.81c-0.279-0.579-0.637-1.36-0.941-1.927l-0.974-1.638
							c-0.375-0.535-0.862-1.257-1.26-1.774l-1.193-1.421c-0.475-0.488-1.101-1.146-1.597-1.613l-1.317-1.134
							c-1.745-1.304-1.928-1.441-3.315-2.251l-1.278-0.678c-0.577-0.265-1.347-0.616-1.934-0.856L33.064,1.33
							c-0.371-0.118-0.865-0.279-1.239-0.387l-0.853-0.226c-0.27-0.061-0.628-0.146-0.897-0.203l-0.713-0.137
							c-0.215-0.035-0.501-0.084-0.716-0.116l-0.623-0.083c-0.185-0.02-0.432-0.048-0.616-0.067l-0.568-0.048
							c-0.169-0.011-0.395-0.023-0.563-0.035l-0.543-0.022c-0.163-0.003-0.379-0.01-0.542-0.01l-0.542,0.002
							C24.484,0,24.265,0.009,24.101,0.009l-0.568,0.027c-0.175,0.013-0.409,0.026-0.583,0.042l-0.627,0.06
							c-0.198,0.024-0.461,0.053-0.659,0.08l-0.819,0.125c-2.377,0.449-3.52,0.816-5.335,1.522L14.216,2.44
							c-1.676,0.864-1.776,0.916-2.744,1.534l-1.395,0.967C9.478,5.42,8.682,6.061,8.108,6.569L6.811,7.847
							c-0.457,0.521-1.074,1.209-1.507,1.75L4.2,11.12c-0.347,0.563-0.823,1.307-1.145,1.885l-0.858,1.719
							c-0.245,0.604-0.588,1.402-0.806,2.015l-0.575,1.875c-0.142,0.638-0.35,1.486-0.463,2.13l-0.261,1.994
							c-0.033,0.667-0.098,1.556-0.102,2.224l0.079,2.042c0.128,1.071,0.336,2.498,0.541,3.558l0.512,1.903
							c0.216,0.606,0.486,1.422,0.728,2.019l0.801,1.756c0.312,0.564,0.713,1.326,1.05,1.877l1.054,1.57
							c0.408,0.519,0.94,1.22,1.37,1.72l1.252,1.336c0.513,0.473,1.19,1.11,1.724,1.559l1.353,1.039
							c0.655,0.437,1.534,1.012,2.211,1.414C13.796,47.395,14.998,47.921,16.259,48.319"/>
					</g>
					<g>
						<path fill="#3F7EAF" d="M15.662,48.201c-0.221-0.092-0.279-0.129-0.471-0.255c-0.875-0.336-1.718-0.735-2.525-1.193
							c0.383,0.203,0.895,0.475,1.279,0.678c0.519,0.239,1.21,0.56,1.738,0.778L15.662,48.201"/>
						<path fill="#3F7EAF" d="M15.19,47.946c-5.317-3.724,11.04-21.92,28.235-25.072c1.754-0.322,6.414-1.176,6.58,2.16
							l-0.079-2.042c-0.078-0.65-0.161-1.521-0.268-2.167l-0.407-1.944c-0.183-0.619-0.406-1.451-0.615-2.062l-0.708-1.81
							c-0.279-0.579-0.637-1.36-0.941-1.927l-0.974-1.638c-0.375-0.535-0.862-1.257-1.26-1.774l-1.193-1.421
							c-0.475-0.488-1.101-1.146-1.597-1.613l-1.317-1.134c-1.745-1.304-1.928-1.441-3.315-2.251l-1.278-0.678
							c-0.577-0.265-1.347-0.616-1.934-0.856L33.064,1.33c-0.371-0.118-0.865-0.279-1.239-0.387l-0.853-0.226
							c-0.27-0.061-0.628-0.146-0.897-0.203l-0.713-0.137c-0.215-0.035-0.501-0.084-0.716-0.116l-0.623-0.083
							c-0.185-0.02-0.432-0.048-0.616-0.067l-0.568-0.048c-0.169-0.011-0.395-0.023-0.563-0.035l-0.543-0.022
							c-0.163-0.003-0.379-0.01-0.542-0.01l-0.542,0.002C24.484,0,24.265,0.009,24.101,0.009l-0.568,0.027
							c-0.175,0.013-0.409,0.026-0.583,0.042l-0.627,0.06c-0.198,0.024-0.461,0.053-0.659,0.08l-0.819,0.125
							c-2.377,0.449-3.52,0.816-5.335,1.522L14.216,2.44c-1.676,0.864-1.776,0.916-2.744,1.534l-1.395,0.967
							C9.478,5.42,8.682,6.061,8.108,6.569L6.811,7.847c-0.457,0.521-1.074,1.209-1.507,1.75L4.2,11.12
							c-0.347,0.563-0.823,1.307-1.145,1.885l-0.858,1.719c-0.245,0.604-0.588,1.402-0.806,2.015l-0.575,1.875
							c-0.142,0.638-0.35,1.486-0.463,2.13l-0.261,1.994c-0.033,0.667-0.098,1.556-0.102,2.224l0.079,2.042
							c0.128,1.071,0.336,2.498,0.541,3.558l0.512,1.903c0.216,0.606,0.486,1.422,0.728,2.019l0.801,1.756
							c0.312,0.564,0.713,1.326,1.05,1.877l1.054,1.57c0.408,0.519,0.94,1.22,1.37,1.72l1.252,1.336
							c0.513,0.473,1.19,1.11,1.724,1.559l1.353,1.039c0.655,0.437,1.534,1.012,2.211,1.414
							C13.472,47.211,14.315,47.61,15.19,47.946"/>
					</g>
					<g>
						<path fill="#3D7BAB" d="M14.082,47.479c-0.483-0.223-0.956-0.465-1.417-0.727c0.383,0.203,0.895,0.475,1.279,0.678
							l0.417,0.202l-0.265-0.144L14.082,47.479"/>
						<path fill="#3D7BAB" d="M14.082,47.479c-5.968-4.032,13.029-22.644,29.425-26.017c2.301-0.473,6.199-0.837,6.455,2.044
							l-0.2-2.011l-0.103-0.67l-0.407-1.944c-0.183-0.619-0.406-1.451-0.615-2.062l-0.708-1.81c-0.279-0.579-0.637-1.36-0.941-1.927
							l-0.974-1.638c-0.375-0.535-0.862-1.257-1.26-1.774l-1.193-1.421c-0.475-0.488-1.101-1.146-1.597-1.613l-1.317-1.134
							c-1.745-1.304-1.928-1.441-3.315-2.251l-1.278-0.678c-0.577-0.265-1.347-0.616-1.934-0.856L33.064,1.33
							c-0.371-0.118-0.865-0.279-1.239-0.387l-0.853-0.226c-0.27-0.061-0.628-0.146-0.897-0.203l-0.713-0.137
							c-0.215-0.035-0.501-0.084-0.716-0.116l-0.623-0.083c-0.185-0.02-0.432-0.048-0.616-0.067l-0.568-0.048
							c-0.169-0.011-0.395-0.023-0.563-0.035l-0.543-0.022c-0.163-0.003-0.379-0.01-0.542-0.01l-0.542,0.002
							C24.484,0,24.265,0.009,24.101,0.009l-0.568,0.027c-0.175,0.013-0.409,0.026-0.583,0.042l-0.627,0.06
							c-0.198,0.024-0.461,0.053-0.659,0.08l-0.819,0.125c-2.377,0.449-3.52,0.816-5.335,1.522L14.216,2.44
							c-1.676,0.864-1.776,0.916-2.744,1.534l-1.395,0.967C9.478,5.42,8.682,6.061,8.108,6.569L6.811,7.847
							c-0.457,0.521-1.074,1.209-1.507,1.75L4.2,11.12c-0.347,0.563-0.823,1.307-1.145,1.885l-0.858,1.719
							c-0.245,0.604-0.588,1.402-0.806,2.015l-0.575,1.875c-0.142,0.638-0.35,1.486-0.463,2.13l-0.261,1.994
							c-0.033,0.667-0.098,1.556-0.102,2.224l0.079,2.042c0.128,1.071,0.336,2.498,0.541,3.558l0.512,1.903
							c0.216,0.606,0.486,1.422,0.728,2.019l0.801,1.756c0.312,0.564,0.713,1.326,1.05,1.877l1.054,1.57
							c0.408,0.519,0.94,1.22,1.37,1.72l1.252,1.336c0.513,0.473,1.19,1.11,1.724,1.559l1.353,1.039
							c0.655,0.437,1.534,1.012,2.211,1.414C13.126,47.015,13.599,47.257,14.082,47.479"/>
					</g>
					<g>
						<path fill="#3C78A7" d="M12.962,46.918c-0.1-0.055-0.199-0.109-0.297-0.165c0.105,0.059,0.247,0.137,0.352,0.196
							C13.001,46.939,12.979,46.927,12.962,46.918"/>
						<path fill="#3C78A7" d="M12.962,46.918c-6.864-4.482,14.844-23.625,30.563-26.952c2.185-0.462,5.967-0.57,6.293,1.958
							c-0.134-0.919-0.376-2.134-0.566-3.043c-0.183-0.619-0.406-1.451-0.615-2.062l-0.708-1.81
							c-0.279-0.579-0.637-1.36-0.941-1.927l-0.974-1.638c-0.375-0.535-0.862-1.257-1.26-1.774l-1.193-1.421
							c-0.475-0.488-1.101-1.146-1.597-1.613l-1.317-1.134c-1.745-1.304-1.928-1.441-3.315-2.251l-1.278-0.678
							c-0.577-0.265-1.347-0.616-1.934-0.856L33.064,1.33c-0.371-0.118-0.865-0.279-1.239-0.387l-0.853-0.226
							c-0.27-0.061-0.628-0.146-0.897-0.203l-0.713-0.137c-0.215-0.035-0.501-0.084-0.716-0.116l-0.623-0.083
							c-0.185-0.02-0.432-0.048-0.616-0.067l-0.568-0.048c-0.169-0.011-0.395-0.023-0.563-0.035l-0.543-0.022
							c-0.163-0.003-0.379-0.01-0.542-0.01l-0.542,0.002C24.484,0,24.265,0.009,24.101,0.009l-0.568,0.027
							c-0.175,0.013-0.409,0.026-0.583,0.042l-0.627,0.06c-0.198,0.024-0.461,0.053-0.659,0.08l-0.819,0.125
							c-2.377,0.449-3.52,0.816-5.335,1.522L14.216,2.44c-1.676,0.864-1.776,0.916-2.744,1.534l-1.395,0.967
							C9.478,5.42,8.682,6.061,8.108,6.569L6.811,7.847c-0.457,0.521-1.074,1.209-1.507,1.75L4.2,11.12
							c-0.347,0.563-0.823,1.307-1.145,1.885l-0.858,1.719c-0.245,0.604-0.588,1.402-0.806,2.015l-0.575,1.875
							c-0.142,0.638-0.35,1.486-0.463,2.13l-0.261,1.994c-0.033,0.667-0.098,1.556-0.102,2.224l0.079,2.042
							c0.128,1.071,0.336,2.498,0.541,3.558l0.512,1.903c0.216,0.606,0.486,1.422,0.728,2.019l0.801,1.756
							c0.312,0.564,0.713,1.326,1.05,1.877l1.054,1.57c0.408,0.519,0.94,1.22,1.37,1.72l1.252,1.336
							c0.513,0.473,1.19,1.11,1.724,1.559l1.353,1.039c0.655,0.437,1.534,1.012,2.211,1.414
							C12.764,46.809,12.863,46.863,12.962,46.918"/>
					</g>
					<path fill="#3A75A2" d="M11.082,45.734c-5.719-5.5,21.303-27.221,34.42-27.668c2.281-0.078,3.646,0.661,4.056,2.195
						l-0.45-1.928l-0.471-1.515l-0.708-1.81c-0.279-0.579-0.637-1.36-0.941-1.927l-0.974-1.638c-0.375-0.535-0.862-1.257-1.26-1.774
						l-1.193-1.421c-0.475-0.488-1.101-1.146-1.597-1.613l-1.317-1.134c-1.745-1.304-1.928-1.441-3.315-2.251l-1.278-0.678
						c-0.577-0.265-1.347-0.616-1.934-0.856L33.064,1.33c-0.371-0.118-0.865-0.279-1.239-0.387l-0.853-0.226
						c-0.27-0.061-0.628-0.146-0.897-0.203l-0.713-0.137c-0.215-0.035-0.501-0.084-0.716-0.116l-0.623-0.083
						c-0.185-0.02-0.432-0.048-0.616-0.067l-0.568-0.048c-0.169-0.011-0.395-0.023-0.563-0.035l-0.543-0.022
						c-0.163-0.003-0.379-0.01-0.542-0.01l-0.542,0.002C24.484,0,24.265,0.009,24.101,0.009l-0.568,0.027
						c-0.175,0.013-0.409,0.026-0.583,0.042l-0.627,0.06c-0.198,0.024-0.461,0.053-0.659,0.08l-0.819,0.125
						c-2.377,0.449-3.52,0.816-5.335,1.522L14.216,2.44c-1.676,0.864-1.776,0.916-2.744,1.534l-1.395,0.967
						C9.478,5.42,8.682,6.061,8.108,6.569L6.811,7.847c-0.457,0.521-1.074,1.209-1.507,1.75L4.2,11.12
						c-0.347,0.563-0.823,1.307-1.145,1.885l-0.858,1.719c-0.245,0.604-0.588,1.402-0.806,2.015l-0.575,1.875
						c-0.142,0.638-0.35,1.486-0.463,2.13l-0.261,1.994c-0.033,0.667-0.098,1.556-0.102,2.224l0.079,2.042
						c0.128,1.071,0.336,2.498,0.541,3.558l0.512,1.903c0.216,0.606,0.486,1.422,0.728,2.019l0.801,1.756
						c0.312,0.564,0.713,1.326,1.05,1.877l1.054,1.57c0.408,0.519,0.94,1.22,1.37,1.72l1.252,1.336
						c0.513,0.473,1.19,1.11,1.724,1.559l1.353,1.039l1.059,0.718l-0.36-0.261C11.133,45.776,11.103,45.754,11.082,45.734"/>
					<path fill="#39729E" d="M9.646,44.729c-5.723-5.887,22.221-28.21,35.596-28.436c2.655-0.045,3.563,1.072,3.858,2.017
						c-0.312-1.003-0.789-2.323-1.172-3.302c-0.279-0.579-0.637-1.36-0.941-1.927l-0.974-1.638c-0.375-0.535-0.862-1.257-1.26-1.774
						l-1.193-1.421c-0.475-0.488-1.101-1.146-1.597-1.613l-1.317-1.134c-1.745-1.304-1.928-1.441-3.315-2.251l-1.278-0.678
						c-0.577-0.265-1.347-0.616-1.934-0.856L33.064,1.33c-0.371-0.118-0.865-0.279-1.239-0.387l-0.853-0.226
						c-0.27-0.061-0.628-0.146-0.897-0.203l-0.713-0.137c-0.215-0.035-0.501-0.084-0.716-0.116l-0.623-0.083
						c-0.185-0.02-0.432-0.048-0.616-0.067l-0.568-0.048c-0.169-0.011-0.395-0.023-0.563-0.035l-0.543-0.022
						c-0.163-0.003-0.379-0.01-0.542-0.01l-0.542,0.002C24.484,0,24.265,0.009,24.101,0.009l-0.568,0.027
						c-0.175,0.013-0.409,0.026-0.583,0.042l-0.627,0.06c-0.198,0.024-0.461,0.053-0.659,0.08l-0.819,0.125
						c-2.377,0.449-3.52,0.816-5.335,1.522L14.216,2.44c-1.676,0.864-1.776,0.916-2.744,1.534l-1.395,0.967
						C9.478,5.42,8.682,6.061,8.108,6.569L6.811,7.847c-0.457,0.521-1.074,1.209-1.507,1.75L4.2,11.12
						c-0.347,0.563-0.823,1.307-1.145,1.885l-0.858,1.719c-0.245,0.604-0.588,1.402-0.806,2.015l-0.575,1.875
						c-0.142,0.638-0.35,1.486-0.463,2.13l-0.261,1.994c-0.033,0.667-0.098,1.556-0.102,2.224l0.079,2.042
						c0.128,1.071,0.336,2.498,0.541,3.558l0.512,1.903c0.216,0.606,0.486,1.422,0.728,2.019l0.801,1.756
						c0.312,0.564,0.713,1.326,1.05,1.877l1.054,1.57c0.408,0.519,0.94,1.22,1.37,1.72l1.252,1.336
						c0.513,0.473,1.19,1.11,1.724,1.559c0.213,0.169,0.497,0.395,0.71,0.563C9.762,44.823,9.693,44.772,9.646,44.729"/>
					<path fill="#376F9A" d="M7.432,42.696c-4.23-7.323,28.391-31.261,38.782-28.459c1.432,0.386,1.858,1.225,2.089,1.675
						l-0.773-1.773l-0.542-1.056l-0.974-1.638c-0.375-0.535-0.862-1.257-1.26-1.774l-1.193-1.421
						c-0.475-0.488-1.101-1.146-1.597-1.613l-1.317-1.134c-1.745-1.304-1.928-1.441-3.315-2.251l-1.278-0.678
						c-0.577-0.265-1.347-0.616-1.934-0.856L33.064,1.33c-0.371-0.118-0.865-0.279-1.239-0.387l-0.853-0.226
						c-0.27-0.061-0.628-0.146-0.897-0.203l-0.713-0.137c-0.215-0.035-0.501-0.084-0.716-0.116l-0.623-0.083
						c-0.185-0.02-0.432-0.048-0.616-0.067l-0.568-0.048c-0.169-0.011-0.395-0.023-0.563-0.035l-0.543-0.022
						c-0.163-0.003-0.379-0.01-0.542-0.01l-0.542,0.002C24.484,0,24.265,0.009,24.101,0.009l-0.568,0.027
						c-0.175,0.013-0.409,0.026-0.583,0.042l-0.627,0.06c-0.198,0.024-0.461,0.053-0.659,0.08l-0.819,0.125
						c-2.377,0.449-3.52,0.816-5.335,1.522L14.216,2.44c-1.676,0.864-1.776,0.916-2.744,1.534l-1.395,0.967
						C9.478,5.42,8.682,6.061,8.108,6.569L6.811,7.847c-0.457,0.521-1.074,1.209-1.507,1.75L4.2,11.12
						c-0.347,0.563-0.823,1.307-1.145,1.885l-0.858,1.719c-0.245,0.604-0.588,1.402-0.806,2.015l-0.575,1.875
						c-0.142,0.638-0.35,1.486-0.463,2.13l-0.261,1.994c-0.033,0.667-0.098,1.556-0.102,2.224l0.079,2.042
						c0.128,1.071,0.336,2.498,0.541,3.558l0.512,1.903c0.216,0.606,0.486,1.422,0.728,2.019l0.801,1.756
						c0.312,0.564,0.713,1.326,1.05,1.877l1.054,1.57c0.408,0.519,0.94,1.22,1.37,1.72l1.252,1.336l0.439,0.425l-0.296-0.331
						C7.497,42.791,7.456,42.739,7.432,42.696"/>
					<path fill="#4D9DD9" d="M25.478,43.308l0.838,5.694c0.717,0.982,2.95,0.619,3.685,0.5l0.88-0.197
						c1.368-0.358,1.87-0.498,3.324-1.052l1.278-0.55c1.609-0.802,1.777-0.886,2.812-1.527l1.396-0.946
						c0.61-0.476,1.421-1.114,2.005-1.621l1.307-1.261c0.464-0.518,1.091-1.202,1.531-1.741l1.118-1.51l0.387-0.583l0.493-0.867
						c0.347-0.948,0.646-1.768,0.146-2.318c-0.069-0.076-5.231-3.314-5.268-3.33c-1.25-0.52-3.899-1.162-7.597,0.365
						C33.726,32.4,24.932,36.121,25.478,43.308"/>
					<path fill="#4FA0DD" d="M26.192,43.324c0.007,0.045,1.559,5.303,1.82,5.556c0.499,0.482,1.368,0.874,4.035,0.112l0.911-0.285
						c0.375-0.134,0.875-0.311,1.246-0.454l1.278-0.55c1.609-0.802,1.777-0.886,2.812-1.527l1.396-0.946
						c0.61-0.476,1.421-1.114,2.005-1.621l1.307-1.261c0.464-0.518,1.091-1.202,1.531-1.741c0.308-0.394,0.69-0.939,0.973-1.351
						c1.272-2.223,1.272-2.223-2.7-5.444c-0.941-0.764-2.9-2.353-6.271-1.831C33.173,32.501,25.157,36.641,26.192,43.324"/>
					<path fill="#50A3E1" d="M26.841,43.078c0.107,0.61,2.817,5.556,2.839,5.571c0.357,0.263,1.196,0.88,4.312-0.313
						c0.452-0.177,1.045-0.44,1.491-0.633c1.609-0.802,1.777-0.886,2.812-1.527l1.396-0.946c0.61-0.476,1.421-1.114,2.005-1.621
						l1.307-1.261l0.241-0.253l0.347-0.38c0.681-0.845,2.274-2.821,1.501-3.818c-0.103-0.132-0.245-0.303-0.356-0.427
						c-0.094-0.104-0.253-0.209-0.347-0.313c-1.168-1.291-1.93-2.942-3.466-3.906c-0.519-0.325-1.895-1.188-4.521-0.807
						C33.23,32.905,25.73,36.746,26.841,43.078"/>
					<path fill="#52A6E5" d="M27.232,41.737c0.161,2.021,0.883,2.688,3.026,4.669c0.459,0.424,0.659,1.022,1.019,1.514
						c0.108,0.148,0.363,0.496,0.857,0.517c3.253,0.131,8.447-3.447,10.739-6.07c0.504-0.576,1.33-1.683,1.204-2.612l-2.133-4.225
						c-0.913-1.307-2.162-3.097-5.682-2.629C31.582,33.523,26.939,38.065,27.232,41.737"/>
					<path fill="#53A9EA" d="M27.828,41.771c0.002,0.016,0.22,1.556,1.371,2.608c0.997,0.911,2.387,1.104,3.45,1.893
						c0.523,0.388,0.696,1.188,1.486,1.264c2.215,0.211,6.489-2.847,7.651-4.437c0.712-0.976,0.702-1.211,0.687-1.601
						c-0.005-0.123-0.005-0.289-0.027-0.41c-0.056-0.288-0.332-0.608-0.391-0.895l-0.346-2.676c-0.022-0.313-0.036-0.759-0.193-1.03
						c-1.165-2.006-1.165-2.006-2.151-2.58c-0.643-0.374-1.37-0.798-3.241-0.559C31.537,33.934,27.351,38.185,27.828,41.771"/>
					<path fill="#55ACEE" d="M28.418,41.812c0.121,0.87,1.163,1.897,1.174,1.905c0.925,0.663,1.271,0.911,3.114,1.17
						c1.173,0.164,5.395,0.031,5.414,0.026c0.593-0.135,0.941-1.064,1.294-1.561c0.057-0.08,0.163-0.177,0.18-0.273
						c0.021-0.12-0.056-0.285-0.036-0.405c0.093-0.59,0.625-1.249,0.823-1.812c0.185-0.525,0.266-1.275,0.447-1.802
						c0.303-0.874-0.148-2.847-0.154-2.862c-0.238-0.664-1.28-2.798-4.693-2.406C32.967,34.139,27.806,37.446,28.418,41.812"/>
					<path fill="#6BB7F0" d="M28.961,41.456c0.191,1.396,1.746,2.796,4.705,2.574c3.308-0.247,4.851-2.339,5.592-3.345
						c0.975-1.321,1.021-3.9,0.532-4.82c-0.121-0.229-1.643-1.399-1.654-1.404c-0.642-0.265-1.612-0.298-2.304-0.228
						C33.463,34.473,28.409,37.45,28.961,41.456"/>
					<path fill="#74BBF1" d="M29.837,41.945c0.37,0.926,1.558,1.27,1.57,1.272c0.892,0.231,1.299,0.336,3.138-0.055
						c0.027-0.006,2.797-0.725,4.192-3.108c0.809-1.381,1.206-2.267-0.019-4.424c-0.154-0.271-0.494-0.578-0.79-0.673
						c-0.648-0.205-1.57-0.346-2.248-0.288c-0.188,0.016-2.56,0.903-2.758,1.032c-1.173,0.762-1.526,0.991-2.804,2.582
						c-0.37,0.46-0.673,1.243-0.719,1.832C29.357,40.679,29.627,41.422,29.837,41.945"/>
					<path fill="#7BBFF2" d="M30.54,41.913c0.285,0.416,1.964,1.668,4.972,0.197c2.865-1.4,3.295-3.448,3.348-4.265
						c0.035-0.559-1.156-2.333-1.169-2.341c-0.553-0.37-1.534-0.423-2.192-0.327c-0.869,0.126-1.985,0.587-2.735,1.044
						c-0.694,0.423-2.716,2.217-2.738,3.953C30.018,40.719,30.232,41.465,30.54,41.913"/>
					<path fill="#81C2F2" d="M30.639,40.24c-0.004,0.282,0.084,0.685,0.263,0.902c0.299,0.365,0.846,0.713,1.253,0.95
						c0.437,0.255,1.179,0.015,1.684,0.014c0.68-0.001,1.512-0.511,2.097-0.856c0.386-0.228,0.769-0.707,1.085-1.023
						c0.341-0.34,0.976-0.974,1.119-2.598c0.044-0.486-0.366-1.151-0.761-1.439c-0.519-0.377-1.454-0.502-2.094-0.442
						c-0.73,0.067-1.663,0.472-2.292,0.85C32.897,36.654,30.671,38.018,30.639,40.24"/>
					<path fill="#86C4F3" d="M31.242,40.313c0,0.081,1.294,1.131,1.307,1.135c0.519,0.186,1.29,0.001,1.834-0.084
						c0.25-0.04,0.583-0.164,0.777-0.327c0.545-0.456,1.389-0.98,1.758-1.588c0.324-0.532,0.547-1.415,0.442-2.029
						c-0.032-0.188-0.136-0.473-0.307-0.556c-0.558-0.27-1.38-0.666-1.989-0.555c-1.475,0.27-3.23,1.925-3.351,2.145
						C31.438,38.959,31.242,39.738,31.242,40.313"/>
					<path fill="#8BC6F3" d="M32.642,40.518c0.049,0.108,0.181,0.229,0.293,0.267c0.754,0.256,4.169-1.051,3.524-2.77
						c-0.005-0.014-1.396-1.182-1.621-1.15c-0.149,0.021-2.314,1.681-2.321,1.695C32.275,39.097,32.4,39.98,32.642,40.518"/>
					<path fill="#90C9F4" d="M33.681,39.386c0.312,0.19,0.796-0.306,1.138-0.437c-0.185-0.193-0.349-0.62-0.614-0.646
						c-0.218-0.021-0.503,0.225-0.592,0.424C33.53,38.908,33.512,39.281,33.681,39.386"/>
				</g>
			</g>
			<g enable-background="new    ">
				<defs>
					<path id="SVGID_3_" enable-background="new    " d="M28.332,49.787c-4.067,0.545-7.093-0.042-8.385-0.292
						c-0.814-0.157-2.144-0.48-3.856-1.126c-1.083-0.407-2.075-0.876-3.425-1.616C6.559,43.283,2.534,36.427,2.55,28.021
						C2.574,14.758,12.646,2.651,25.043,0.984C12.646,2.651,2.574,14.758,2.55,28.021c-0.016,8.406,4.009,15.263,10.116,18.732
						c-0.427-0.263-1.011-0.589-1.424-0.873c-0.658-0.452-1.517-1.081-2.14-1.58c-0.852-0.682-1.876-1.722-2.632-2.508
						c-1.135-1.181-2.918-3.685-3.709-5.342c-0.929-1.943-1.096-2.293-1.578-3.799c-0.587-1.834-0.764-2.961-0.935-4.051
						c-0.169-1.081-0.267-2.545-0.256-3.64c0.012-1.216,0.163-2.836,0.333-4.04c0.219-1.545,1.003-4.383,1.78-5.987
						c1.132-2.337,1.132-2.337,1.927-3.558c1.06-1.628,2.074-2.77,2.461-3.186C9.121,5.37,11.015,4.23,12.74,3.209
						c0.651-0.385,3.041-1.707,6.44-2.524c3-0.722,5.368-0.731,7.095-0.658c2.408,0.101,5.039,0.692,6.578,1.233
						c0.776,0.273,1.741,0.612,2.541,1c0.866,0.421,2.314,1.125,3.375,1.875c0.42,0.297,0.993,0.676,1.397,0.993
						c0.555,0.434,1.28,1.031,1.797,1.509c1.601,1.48,2.673,2.879,2.79,3.034c0.585,0.774,1.314,1.738,2.233,3.412
						c0.558,1.016,1.152,2.448,1.575,3.527c0.194,0.495,1.13,3.275,1.35,6.211c0.128,1.703,0.128,1.703,0.008,4.263
						c-0.035,0.735-0.168,1.712-0.322,2.432c-0.387,1.802-0.532,2.477-1.078,3.989c-0.734,2.035-1.604,3.55-1.702,3.716
						c-0.921,1.577-3.077,5.272-7.812,8.491C35,48.436,30.99,49.431,28.332,49.787z"/>
				</defs>
				<clipPath id="SVGID_4_">
					<use xlink:href="#SVGID_3_"  overflow="visible"/>
				</clipPath>
				<g clip-path="url(#SVGID_4_)" enable-background="new    ">
					<path fill="#55ACEE" d="M28.332,49.787c-5.405,0.724-10.676-0.297-15.667-3.034C6.559,43.283,2.534,36.427,2.55,28.021
						C2.574,14.758,12.646,2.651,25.043,0.984C12.646,2.651,2.574,14.758,2.55,28.021c-0.016,8.406,4.009,15.263,10.116,18.732
						C-0.141,38.901-0.564,27.198,0.323,20.921C1.43,13.094,7.803,3.422,19.18,0.685c8-1.925,19.208-0.172,26.676,10.52
						c4.518,6.467,6.436,17.873-0.028,27.632C41.853,44.839,35.476,48.83,28.332,49.787"/>
					<path fill="#55ACEE" d="M14.83,4.979C12.809,5.127,9.048,5.404,9.8,9.407c-4.446,4.985-7.238,11.639-7.25,18.613
						c-0.016,8.406,4.009,15.263,10.116,18.732c-0.427-0.263-0.997-0.611-1.424-0.873c-0.651-0.462-1.514-1.085-2.14-1.58
						l-1.355-1.2c-0.491-0.504-1.153-1.169-1.621-1.694l-1.177-1.459c-0.377-0.547-0.894-1.268-1.247-1.831L2.76,36.45
						c-0.276-0.589-0.66-1.367-0.909-1.968l-0.668-1.831c-0.174-0.626-0.425-1.457-0.572-2.091l-0.363-1.96
						c-0.112-1.089-0.223-2.546-0.256-3.64l0.086-2.042c0.081-0.653,0.167-1.527,0.276-2.176l0.414-1.941
						c0.185-0.62,0.413-1.453,0.624-2.064l0.712-1.804c0.283-0.58,0.644-1.362,0.952-1.93l0.975-1.628
						c0.378-0.536,0.872-1.26,1.273-1.779l1.188-1.406C6.973,7.7,7.606,7.038,8.108,6.569l1.315-1.124
						c0.607-0.451,1.419-1.051,2.049-1.471l1.269-0.765c1.682-0.885,1.748-0.919,2.77-1.344l0.917-0.354
						c1.647-0.561,2.821-0.928,5.236-1.293l0.65-0.079c0.19-0.018,0.444-0.044,0.635-0.061l0.582-0.041
						c0.171-0.008,0.399-0.017,0.57-0.027l0.548-0.013c0.163-0.001,0.379-0.002,0.542-0.002l0.542,0.01
						c0.163,0.006,0.38,0.022,0.543,0.022l0.561,0.035c0.171,0.015,0.4,0.033,0.571,0.048l0.607,0.066
						c0.189,0.025,0.442,0.056,0.632,0.084l0.691,0.112c0.221,0.042,0.517,0.096,0.737,0.141L30.902,0.7
						c0.277,0.072,0.647,0.165,0.923,0.243l1.028,0.316c0.381,0.136,0.89,0.312,1.266,0.458l1.275,0.542
						c0.586,0.289,1.364,0.678,1.937,0.992l1.438,0.883c1.748,1.243,1.973,1.402,3.194,2.502l1.304,1.295
						c0.45,0.518,1.06,1.202,1.486,1.739l1.103,1.534c0.343,0.562,0.813,1.302,1.131,1.878l0.853,1.726
						c0.242,0.603,0.581,1.399,0.797,2.011l0.568,1.879c0.139,0.638,0.343,1.484,0.454,2.127l0.253,1.995
						c0.03,0.667,0.093,1.555,0.094,2.222l-0.086,2.041c-0.091,0.73-0.196,1.707-0.322,2.432l-0.434,1.934
						c-0.19,0.617-0.427,1.447-0.645,2.056L47.79,35.3c-0.289,0.577-0.658,1.356-0.973,1.921l-0.989,1.615
						c-0.385,0.534-0.887,1.254-1.294,1.771l-1.199,1.391c-0.487,0.488-1.13,1.146-1.639,1.611l-1.318,1.104
						c-0.617,0.449-1.442,1.045-2.082,1.463l-1.257,0.74c-1.648,0.847-1.748,0.897-2.834,1.337l-0.907,0.338
						c-1.264,0.416-2.571,0.845-4.966,1.196l-0.649,0.079c-0.19,0.018-0.444,0.044-0.636,0.061l-0.581,0.041
						c-0.171,0.008-0.399,0.021-0.57,0.026l-0.548,0.014c-0.163,0.001-0.379,0.002-0.542,0.002L24.264,50
						c-0.163-0.007-0.38-0.022-0.543-0.022l-0.561-0.035c-0.171-0.015-0.4-0.029-0.571-0.049l-0.608-0.066
						c-0.189-0.025-0.442-0.057-0.631-0.084l-0.692-0.112c-0.221-0.042-0.517-0.095-0.737-0.141l-0.827-0.187
						c-0.277-0.072-0.647-0.165-0.923-0.243l-1.028-0.316c-0.38-0.136-0.889-0.312-1.265-0.457l-1.276-0.543
						c-0.585-0.289-1.364-0.678-1.936-0.991C6.559,43.283,2.534,36.427,2.55,28.021C2.562,21.046,5.354,14.392,9.8,9.407
						c-0.154,0.407-0.36,0.949-0.514,1.356c-1.351,4.616,3.446,6.746,7.48,4.597c6.198-3.302,6.275-8.904,1.646-10.066
						C18.316,5.271,15.551,4.87,14.83,4.979c3.066-2.088,6.537-3.5,10.213-3.995C21.367,1.478,17.896,2.891,14.83,4.979"/>
					<path fill="#53A9EA" d="M17.234,3.526C12.108-0.176,7.521,8.771,7.55,8.917l0.772,2.29C4.744,15.939,2.561,21.855,2.55,28.021
						c-0.016,8.406,4.009,15.263,10.116,18.732c-0.427-0.263-0.997-0.611-1.424-0.873c-0.651-0.462-1.514-1.085-2.14-1.58
						l-1.355-1.2c-0.491-0.504-1.153-1.169-1.621-1.694l-1.177-1.459c-0.377-0.547-0.894-1.268-1.247-1.831L2.76,36.45
						c-0.276-0.589-0.66-1.367-0.909-1.968l-0.668-1.831c-0.174-0.626-0.425-1.457-0.572-2.091l-0.363-1.96
						c-0.112-1.089-0.223-2.546-0.256-3.64l0.086-2.042c0.081-0.653,0.167-1.527,0.276-2.176l0.414-1.941
						c0.185-0.62,0.413-1.453,0.624-2.064l0.712-1.804c0.283-0.58,0.644-1.362,0.952-1.93l0.975-1.628
						c0.378-0.536,0.872-1.26,1.273-1.779l1.188-1.406C6.973,7.7,7.606,7.038,8.108,6.569l1.315-1.124
						c0.607-0.451,1.419-1.051,2.049-1.471l1.269-0.765c1.682-0.885,1.748-0.919,2.77-1.344l0.917-0.354
						c1.647-0.561,2.821-0.928,5.236-1.293l0.65-0.079c0.19-0.018,0.444-0.044,0.635-0.061l0.582-0.041
						c0.171-0.008,0.399-0.017,0.57-0.027l0.548-0.013c0.163-0.001,0.379-0.002,0.542-0.002l0.542,0.01
						c0.163,0.006,0.38,0.022,0.543,0.022l0.561,0.035c0.171,0.015,0.4,0.033,0.571,0.048l0.607,0.066
						c0.189,0.025,0.442,0.056,0.632,0.084l0.691,0.112c0.221,0.042,0.517,0.096,0.737,0.141L30.902,0.7
						c0.277,0.072,0.647,0.165,0.923,0.243l1.028,0.316c0.381,0.136,0.89,0.312,1.266,0.458l1.275,0.542
						c0.586,0.289,1.364,0.678,1.937,0.992l1.438,0.883c1.748,1.243,1.973,1.402,3.194,2.502l1.304,1.295
						c0.45,0.518,1.06,1.202,1.486,1.739l1.103,1.534c0.343,0.562,0.813,1.302,1.131,1.878l0.853,1.726
						c0.242,0.603,0.581,1.399,0.797,2.011l0.568,1.879c0.139,0.638,0.343,1.484,0.454,2.127l0.253,1.995
						c0.03,0.667,0.093,1.555,0.094,2.222l-0.086,2.041c-0.091,0.73-0.196,1.707-0.322,2.432l-0.434,1.934
						c-0.19,0.617-0.427,1.447-0.645,2.056L47.79,35.3c-0.289,0.577-0.658,1.356-0.973,1.921l-0.989,1.615
						c-0.385,0.534-0.887,1.254-1.294,1.771l-1.199,1.391c-0.487,0.488-1.13,1.146-1.639,1.611l-1.318,1.104
						c-0.617,0.449-1.442,1.045-2.082,1.463l-1.257,0.74c-1.648,0.847-1.748,0.897-2.834,1.337l-0.907,0.338
						c-1.264,0.416-2.571,0.845-4.966,1.196l-0.649,0.079c-0.19,0.018-0.444,0.044-0.636,0.061l-0.581,0.041
						c-0.171,0.008-0.399,0.021-0.57,0.026l-0.548,0.014c-0.163,0.001-0.379,0.002-0.542,0.002L24.264,50
						c-0.163-0.007-0.38-0.022-0.543-0.022l-0.561-0.035c-0.171-0.015-0.4-0.029-0.571-0.049l-0.608-0.066
						c-0.189-0.025-0.442-0.057-0.631-0.084l-0.692-0.112c-0.221-0.042-0.517-0.095-0.737-0.141l-0.827-0.187
						c-0.277-0.072-0.647-0.165-0.923-0.243l-1.028-0.316c-0.38-0.136-0.889-0.312-1.265-0.457l-1.276-0.543
						c-0.585-0.289-1.364-0.678-1.936-0.991C6.559,43.283,2.534,36.427,2.55,28.021c0.011-6.166,2.194-12.081,5.772-16.814
						c0.005,0.35,0.011,0.816,0.016,1.167c1.003,7.703,10.478,3.58,12.944-0.543c0.371-0.62,1.494-2.816,0.389-5.083
						C20.764,4.886,18.48,4.92,17.234,3.526c2.433-1.292,5.064-2.173,7.809-2.542C22.298,1.353,19.667,2.234,17.234,3.526"/>
					<path fill="#52A6E5" d="M19.132,2.62c-0.9-0.191-1.484-1.198-2.541-0.983c-0.383,0.078-2.449,0.57-5.562,2.629
						c-1.101,0.729-6.503,4.481-4.727,6.842c0.359,0.477,0.69,0.974,1.065,1.439C4.359,17.034,2.56,22.424,2.55,28.021
						c-0.016,8.406,4.009,15.263,10.116,18.732c-0.427-0.263-0.997-0.611-1.424-0.873c-0.651-0.462-1.514-1.085-2.14-1.58
						l-1.355-1.2c-0.491-0.504-1.153-1.169-1.621-1.694l-1.177-1.459c-0.377-0.547-0.894-1.268-1.247-1.831L2.76,36.45
						c-0.276-0.589-0.66-1.367-0.909-1.968l-0.668-1.831c-0.174-0.626-0.425-1.457-0.572-2.091l-0.363-1.96
						c-0.112-1.089-0.223-2.546-0.256-3.64l0.086-2.042c0.081-0.653,0.167-1.527,0.276-2.176l0.414-1.941
						c0.185-0.62,0.413-1.453,0.624-2.064l0.712-1.804c0.283-0.58,0.644-1.362,0.952-1.93l0.975-1.628
						c0.378-0.536,0.872-1.26,1.273-1.779l1.188-1.406C6.973,7.7,7.606,7.038,8.108,6.569l1.315-1.124
						c0.607-0.451,1.419-1.051,2.049-1.471l1.269-0.765c1.682-0.885,1.748-0.919,2.77-1.344l0.917-0.354
						c1.647-0.561,2.821-0.928,5.236-1.293l0.65-0.079c0.19-0.018,0.444-0.044,0.635-0.061l0.582-0.041
						c0.171-0.008,0.399-0.017,0.57-0.027l0.548-0.013c0.163-0.001,0.379-0.002,0.542-0.002l0.542,0.01
						c0.163,0.006,0.38,0.022,0.543,0.022l0.561,0.035c0.171,0.015,0.4,0.033,0.571,0.048l0.607,0.066
						c0.189,0.025,0.442,0.056,0.632,0.084l0.691,0.112c0.221,0.042,0.517,0.096,0.737,0.141L30.902,0.7
						c0.277,0.072,0.647,0.165,0.923,0.243l1.028,0.316c0.381,0.136,0.89,0.312,1.266,0.458l1.275,0.542
						c0.586,0.289,1.364,0.678,1.937,0.992l1.438,0.883c1.748,1.243,1.973,1.402,3.194,2.502l1.304,1.295
						c0.45,0.518,1.06,1.202,1.486,1.739l1.103,1.534c0.343,0.562,0.813,1.302,1.131,1.878l0.853,1.726
						c0.242,0.603,0.581,1.399,0.797,2.011l0.568,1.879c0.139,0.638,0.343,1.484,0.454,2.127l0.253,1.995
						c0.03,0.667,0.093,1.555,0.094,2.222l-0.086,2.041c-0.091,0.73-0.196,1.707-0.322,2.432l-0.434,1.934
						c-0.19,0.617-0.427,1.447-0.645,2.056L47.79,35.3c-0.289,0.577-0.658,1.356-0.973,1.921l-0.989,1.615
						c-0.385,0.534-0.887,1.254-1.294,1.771l-1.199,1.391c-0.487,0.488-1.13,1.146-1.639,1.611l-1.318,1.104
						c-0.617,0.449-1.442,1.045-2.082,1.463l-1.257,0.74c-1.648,0.847-1.748,0.897-2.834,1.337l-0.907,0.338
						c-1.264,0.416-2.571,0.845-4.966,1.196l-0.649,0.079c-0.19,0.018-0.444,0.044-0.636,0.061l-0.581,0.041
						c-0.171,0.008-0.399,0.021-0.57,0.026l-0.548,0.014c-0.163,0.001-0.379,0.002-0.542,0.002L24.264,50
						c-0.163-0.007-0.38-0.022-0.543-0.022l-0.561-0.035c-0.171-0.015-0.4-0.029-0.571-0.049l-0.608-0.066
						c-0.189-0.025-0.442-0.057-0.631-0.084l-0.692-0.112c-0.221-0.042-0.517-0.095-0.737-0.141l-0.827-0.187
						c-0.277-0.072-0.647-0.165-0.923-0.243l-1.028-0.316c-0.38-0.136-0.889-0.312-1.265-0.457l-1.276-0.543
						c-0.585-0.289-1.364-0.678-1.936-0.991C6.559,43.283,2.534,36.427,2.55,28.021c0.01-5.596,1.81-10.987,4.818-15.474
						c0.006,0.137,0.013,0.319,0.019,0.456c4,9.628,14.271,0.419,15.18-2.982c0.691-2.585-0.618-4.097-1.773-5.431
						C20.231,3.94,20.227,2.82,19.132,2.62c1.884-0.802,3.866-1.361,5.911-1.636C22.998,1.259,21.016,1.818,19.132,2.62"/>
					<g>
						<path fill="#50A3E1" d="M2.55,28.021c-0.016,8.406,4.009,15.263,10.116,18.732c-0.427-0.263-0.997-0.611-1.424-0.873
							c-0.651-0.462-1.514-1.085-2.14-1.58l-1.355-1.2c-0.491-0.504-1.153-1.169-1.621-1.694l-1.177-1.459
							c-0.377-0.547-0.894-1.268-1.247-1.831L2.76,36.45c-0.276-0.589-0.66-1.367-0.909-1.968l-0.668-1.831
							c-0.174-0.626-0.425-1.457-0.572-2.091l-0.363-1.96c-0.112-1.089-0.223-2.546-0.256-3.64l0.086-2.042
							c0.081-0.653,0.167-1.527,0.276-2.176l0.414-1.941c0.185-0.62,0.413-1.453,0.624-2.064l0.712-1.804
							c0.283-0.58,0.644-1.362,0.952-1.93l0.975-1.628c0.378-0.536,0.872-1.26,1.273-1.779l1.188-1.406l0.259-0.28L6.405,8.29
							c-2.602,3.227-1.895,3.787,0.203,5.451C4.059,17.976,2.559,22.912,2.55,28.021"/>
						<path fill="#50A3E1" d="M20.796,1.984c-0.876-0.966-1.456-1.604-4.864-0.288l0.921-0.336c1.142-0.366,2.562-0.822,4.811-1.143
							l0.65-0.079c0.19-0.018,0.444-0.044,0.635-0.061l0.582-0.041c0.171-0.008,0.399-0.017,0.57-0.027l0.548-0.013
							c0.163-0.001,0.379-0.002,0.542-0.002l0.542,0.01c0.163,0.006,0.38,0.022,0.543,0.022l0.561,0.035
							c0.171,0.015,0.4,0.033,0.571,0.048l0.607,0.066c0.189,0.025,0.442,0.056,0.632,0.084l0.691,0.112
							c0.221,0.042,0.517,0.096,0.737,0.141L30.902,0.7c0.277,0.072,0.647,0.165,0.923,0.243l1.028,0.316
							c0.381,0.136,0.89,0.312,1.266,0.458l1.275,0.542c0.586,0.289,1.364,0.678,1.937,0.992l1.438,0.883
							c1.748,1.243,1.973,1.402,3.194,2.502l1.304,1.295c0.45,0.518,1.06,1.202,1.486,1.739l1.103,1.534
							c0.343,0.562,0.813,1.302,1.131,1.878l0.853,1.726c0.242,0.603,0.581,1.399,0.797,2.011l0.568,1.879
							c0.139,0.638,0.343,1.484,0.454,2.127l0.253,1.995c0.03,0.667,0.093,1.555,0.094,2.222l-0.086,2.041
							c-0.091,0.73-0.196,1.707-0.322,2.432l-0.434,1.934c-0.19,0.617-0.427,1.447-0.645,2.056L47.79,35.3
							c-0.289,0.577-0.658,1.356-0.973,1.921l-0.989,1.615c-0.385,0.534-0.887,1.254-1.294,1.771l-1.199,1.391
							c-0.487,0.488-1.13,1.146-1.639,1.611l-1.318,1.104c-0.617,0.449-1.442,1.045-2.082,1.463l-1.257,0.74
							c-1.648,0.847-1.748,0.897-2.834,1.337l-0.907,0.338c-1.264,0.416-2.571,0.845-4.966,1.196l-0.649,0.079
							c-0.19,0.018-0.444,0.044-0.636,0.061l-0.581,0.041c-0.171,0.008-0.399,0.021-0.57,0.026l-0.548,0.014
							c-0.163,0.001-0.379,0.002-0.542,0.002L24.264,50c-0.163-0.007-0.38-0.022-0.543-0.022l-0.561-0.035
							c-0.171-0.015-0.4-0.029-0.571-0.049l-0.608-0.066c-0.189-0.025-0.442-0.057-0.631-0.084l-0.692-0.112
							c-0.221-0.042-0.517-0.095-0.737-0.141l-0.827-0.187c-0.277-0.072-0.647-0.165-0.923-0.243l-1.028-0.316
							c-0.38-0.136-0.889-0.312-1.265-0.457l-1.276-0.543c-0.585-0.289-1.364-0.678-1.936-0.991
							C6.559,43.283,2.534,36.427,2.55,28.021c0.009-5.108,1.509-10.045,4.059-14.28c0.146,0.267,0.342,0.623,0.488,0.89
							c4.407,6.437,14.285,0.719,15.94-4.502c0.71-2.241-0.057-3.674-0.385-4.286L20.796,1.984c1.375-0.466,2.795-0.805,4.247-1
							C23.591,1.179,22.171,1.518,20.796,1.984"/>
					</g>
					<g>
						<path fill="#4FA0DD" d="M2.55,28.021c-0.016,8.406,4.009,15.263,10.116,18.732c-0.427-0.263-0.997-0.611-1.424-0.873
							c-0.651-0.462-1.514-1.085-2.14-1.58l-1.355-1.2c-0.491-0.504-1.153-1.169-1.621-1.694l-1.177-1.459
							c-0.377-0.547-0.894-1.268-1.247-1.831L2.76,36.45c-0.276-0.589-0.66-1.367-0.909-1.968l-0.668-1.831
							c-0.174-0.626-0.425-1.457-0.572-2.091l-0.363-1.96c-0.112-1.089-0.223-2.546-0.256-3.64l0.086-2.042
							c0.081-0.653,0.167-1.527,0.276-2.176l0.414-1.941c0.185-0.62,0.413-1.453,0.624-2.064l0.712-1.804
							c0.283-0.58,0.644-1.362,0.952-1.93l0.975-1.628l1.051-1.491l-0.595,0.868c-1.357,2.374-0.533,2.986,1.46,4.146
							C3.802,18.864,2.559,23.372,2.55,28.021"/>
						<path fill="#4FA0DD" d="M22.239,1.546c-2.346-1.07-2.346-1.07-4.346-0.518l0.915-0.251c0.955-0.227,1.645-0.39,2.856-0.561
							l0.65-0.079c0.19-0.018,0.444-0.044,0.635-0.061l0.582-0.041c0.171-0.008,0.399-0.017,0.57-0.027l0.548-0.013
							c0.163-0.001,0.379-0.002,0.542-0.002l0.542,0.01c0.163,0.006,0.38,0.022,0.543,0.022l0.561,0.035
							c0.171,0.015,0.4,0.033,0.571,0.048l0.607,0.066c0.189,0.025,0.442,0.056,0.632,0.084l0.691,0.112
							c0.221,0.042,0.517,0.096,0.737,0.141L30.902,0.7c0.277,0.072,0.647,0.165,0.923,0.243l1.028,0.316
							c0.381,0.136,0.89,0.312,1.266,0.458l1.275,0.542c0.586,0.289,1.364,0.678,1.937,0.992l1.438,0.883
							c1.748,1.243,1.973,1.402,3.194,2.502l1.304,1.295c0.45,0.518,1.06,1.202,1.486,1.739l1.103,1.534
							c0.343,0.562,0.813,1.302,1.131,1.878l0.853,1.726c0.242,0.603,0.581,1.399,0.797,2.011l0.568,1.879
							c0.139,0.638,0.343,1.484,0.454,2.127l0.253,1.995c0.03,0.667,0.093,1.555,0.094,2.222l-0.086,2.041
							c-0.091,0.73-0.196,1.707-0.322,2.432l-0.434,1.934c-0.19,0.617-0.427,1.447-0.645,2.056L47.79,35.3
							c-0.289,0.577-0.658,1.356-0.973,1.921l-0.989,1.615c-0.385,0.534-0.887,1.254-1.294,1.771l-1.199,1.391
							c-0.487,0.488-1.13,1.146-1.639,1.611l-1.318,1.104c-0.617,0.449-1.442,1.045-2.082,1.463l-1.257,0.74
							c-1.648,0.847-1.748,0.897-2.834,1.337l-0.907,0.338c-1.264,0.416-2.571,0.845-4.966,1.196l-0.649,0.079
							c-0.19,0.018-0.444,0.044-0.636,0.061l-0.581,0.041c-0.171,0.008-0.399,0.021-0.57,0.026l-0.548,0.014
							c-0.163,0.001-0.379,0.002-0.542,0.002L24.264,50c-0.163-0.007-0.38-0.022-0.543-0.022l-0.561-0.035
							c-0.171-0.015-0.4-0.029-0.571-0.049l-0.608-0.066c-0.189-0.025-0.442-0.057-0.631-0.084l-0.692-0.112
							c-0.221-0.042-0.517-0.095-0.737-0.141l-0.827-0.187c-0.277-0.072-0.647-0.165-0.923-0.243l-1.028-0.316
							c-0.38-0.136-0.889-0.312-1.265-0.457l-1.276-0.543c-0.585-0.289-1.364-0.678-1.936-0.991
							C6.559,43.283,2.534,36.427,2.55,28.021c0.009-4.649,1.252-9.156,3.397-13.121c0.197,0.221,0.459,0.516,0.655,0.737
							c7.161,6.775,17.037-2.119,17.318-7.326C24.035,6.181,22.259,1.554,22.239,1.546c0.919-0.246,1.854-0.435,2.804-0.562
							C24.093,1.111,23.158,1.3,22.239,1.546"/>
					</g>
					<g>
						<path fill="#4D9DD9" d="M2.55,28.021c-0.016,8.406,4.009,15.263,10.116,18.732c-0.427-0.263-0.997-0.611-1.424-0.873
							c-0.651-0.462-1.514-1.085-2.14-1.58l-1.355-1.2c-0.491-0.504-1.153-1.169-1.621-1.694l-1.177-1.459
							c-0.377-0.547-0.894-1.268-1.247-1.831L2.76,36.45c-0.276-0.589-0.66-1.367-0.909-1.968l-0.668-1.831
							c-0.174-0.626-0.425-1.457-0.572-2.091l-0.363-1.96c-0.112-1.089-0.223-2.546-0.256-3.64l0.086-2.042
							c0.081-0.653,0.167-1.527,0.276-2.176l0.414-1.941c0.185-0.62,0.413-1.453,0.624-2.064l0.712-1.804
							c0.283-0.58,0.644-1.362,0.952-1.93c0.271-0.455,0.631-1.061,0.902-1.516c-0.148,0.26-0.345,0.607-0.494,0.867
							c-0.822,2.253-0.235,2.637,1.928,3.622C3.589,19.673,2.558,23.788,2.55,28.021"/>
						<path fill="#4D9DD9" d="M23.766,1.194c-2.252-1.019-2.252-1.019-3.792-0.687l0.859-0.163c0.25-0.038,0.582-0.093,0.832-0.127
							l0.65-0.079c0.19-0.018,0.444-0.044,0.635-0.061l0.582-0.041c0.171-0.008,0.399-0.017,0.57-0.027l0.548-0.013
							c0.163-0.001,0.379-0.002,0.542-0.002l0.542,0.01c0.163,0.006,0.38,0.022,0.543,0.022l0.561,0.035
							c0.171,0.015,0.4,0.033,0.571,0.048l0.607,0.066c0.189,0.025,0.442,0.056,0.632,0.084l0.691,0.112
							c0.221,0.042,0.517,0.096,0.737,0.141L30.902,0.7c0.277,0.072,0.647,0.165,0.923,0.243l1.028,0.316
							c0.381,0.136,0.89,0.312,1.266,0.458l1.275,0.542c0.586,0.289,1.364,0.678,1.937,0.992l1.438,0.883
							c1.748,1.243,1.973,1.402,3.194,2.502l1.304,1.295c0.45,0.518,1.06,1.202,1.486,1.739l1.103,1.534
							c0.343,0.562,0.813,1.302,1.131,1.878l0.853,1.726c0.242,0.603,0.581,1.399,0.797,2.011l0.568,1.879
							c0.139,0.638,0.343,1.484,0.454,2.127l0.253,1.995c0.03,0.667,0.093,1.555,0.094,2.222l-0.086,2.041
							c-0.091,0.73-0.196,1.707-0.322,2.432l-0.434,1.934c-0.19,0.617-0.427,1.447-0.645,2.056L47.79,35.3
							c-0.289,0.577-0.658,1.356-0.973,1.921l-0.989,1.615c-0.385,0.534-0.887,1.254-1.294,1.771l-1.199,1.391
							c-0.487,0.488-1.13,1.146-1.639,1.611l-1.318,1.104c-0.617,0.449-1.442,1.045-2.082,1.463l-1.257,0.74
							c-1.648,0.847-1.748,0.897-2.834,1.337l-0.907,0.338c-1.264,0.416-2.571,0.845-4.966,1.196l-0.649,0.079
							c-0.19,0.018-0.444,0.044-0.636,0.061l-0.581,0.041c-0.171,0.008-0.399,0.021-0.57,0.026l-0.548,0.014
							c-0.163,0.001-0.379,0.002-0.542,0.002L24.264,50c-0.163-0.007-0.38-0.022-0.543-0.022l-0.561-0.035
							c-0.171-0.015-0.4-0.029-0.571-0.049l-0.608-0.066c-0.189-0.025-0.442-0.057-0.631-0.084l-0.692-0.112
							c-0.221-0.042-0.517-0.095-0.737-0.141l-0.827-0.187c-0.277-0.072-0.647-0.165-0.923-0.243l-1.028-0.316
							c-0.38-0.136-0.889-0.312-1.265-0.457l-1.276-0.543c-0.585-0.289-1.364-0.678-1.936-0.991
							C6.559,43.283,2.534,36.427,2.55,28.021c0.008-4.232,1.039-8.347,2.842-12.042c0.231,0.183,0.54,0.426,0.771,0.609
							c8.548,5.753,19.658-2.835,18.113-11.379c-0.073-0.403-0.226-0.932-0.278-1.339C23.886,2.98,24.804,1.918,23.766,1.194
							c0.423-0.083,0.849-0.152,1.277-0.21C24.614,1.042,24.188,1.111,23.766,1.194"/>
					</g>
					<g>
						<path fill="#4C9AD5" d="M24.922,0.902c-0.847-0.672-1.285-0.893-2.873-0.734l0.637-0.067l0.263-0.023l0.582-0.041
							c0.171-0.008,0.399-0.017,0.57-0.027l0.548-0.013c0.163-0.001,0.379-0.002,0.542-0.002l0.542,0.01
							c0.163,0.006,0.38,0.022,0.543,0.022l0.561,0.035c0.171,0.015,0.4,0.033,0.571,0.048l0.607,0.066
							c0.189,0.025,0.442,0.056,0.632,0.084l0.691,0.112c0.221,0.042,0.517,0.096,0.737,0.141L30.902,0.7
							c0.277,0.072,0.647,0.165,0.923,0.243l1.028,0.316c0.381,0.136,0.89,0.312,1.266,0.458l1.275,0.542
							c0.586,0.289,1.364,0.678,1.937,0.992l1.438,0.883c1.748,1.243,1.973,1.402,3.194,2.502l1.304,1.295
							c0.45,0.518,1.06,1.202,1.486,1.739l1.103,1.534c0.343,0.562,0.813,1.302,1.131,1.878l0.853,1.726
							c0.242,0.603,0.581,1.399,0.797,2.011l0.568,1.879c0.139,0.638,0.343,1.484,0.454,2.127l0.253,1.995
							c0.03,0.667,0.093,1.555,0.094,2.222l-0.086,2.041c-0.091,0.73-0.196,1.707-0.322,2.432l-0.434,1.934
							c-0.19,0.617-0.427,1.447-0.645,2.056L47.79,35.3c-0.289,0.577-0.658,1.356-0.973,1.921l-0.989,1.615
							c-0.385,0.534-0.887,1.254-1.294,1.771l-1.199,1.391c-0.487,0.488-1.13,1.146-1.639,1.611l-1.318,1.104
							c-0.617,0.449-1.442,1.045-2.082,1.463l-1.257,0.74c-1.648,0.847-1.748,0.897-2.834,1.337l-0.907,0.338
							c-1.264,0.416-2.571,0.845-4.966,1.196l-0.649,0.079c-0.19,0.018-0.444,0.044-0.636,0.061l-0.581,0.041
							c-0.171,0.008-0.399,0.021-0.57,0.026l-0.548,0.014c-0.163,0.001-0.379,0.002-0.542,0.002L24.264,50
							c-0.163-0.007-0.38-0.022-0.543-0.022l-0.561-0.035c-0.171-0.015-0.4-0.029-0.571-0.049l-0.608-0.066
							c-0.189-0.025-0.442-0.057-0.631-0.084l-0.692-0.112c-0.221-0.042-0.517-0.095-0.737-0.141l-0.827-0.187
							c-0.277-0.072-0.647-0.165-0.923-0.243l-1.028-0.316c-0.38-0.136-0.889-0.312-1.265-0.457l-1.276-0.543
							c-0.585-0.289-1.364-0.678-1.936-0.991C6.559,43.283,2.534,36.427,2.55,28.021c0.007-3.819,0.847-7.543,2.336-10.949
							c0.26,0.143,0.606,0.333,0.866,0.475c3.652,1.708,9.11,2.794,14.376-1.727c0.895-0.768,3.617-3.105,4.477-5.702
							c0.995-3.004,0.143-6.097,0.438-9.134l0,0C25.007,0.958,24.958,0.928,24.922,0.902"/>
						<path fill="#4C9AD5" d="M2.55,28.021c-0.016,8.406,4.009,15.263,10.116,18.732c-0.427-0.263-0.997-0.611-1.424-0.873
							c-0.651-0.462-1.514-1.085-2.14-1.58l-1.355-1.2c-0.491-0.504-1.153-1.169-1.621-1.694l-1.177-1.459
							c-0.377-0.547-0.894-1.268-1.247-1.831L2.76,36.45c-0.276-0.589-0.66-1.367-0.909-1.968l-0.668-1.831
							c-0.174-0.626-0.425-1.457-0.572-2.091l-0.363-1.96c-0.112-1.089-0.223-2.546-0.256-3.64l0.086-2.042
							c0.081-0.653,0.167-1.527,0.276-2.176l0.414-1.941c0.185-0.62,0.413-1.453,0.624-2.064l0.712-1.804
							c0.283-0.58,0.644-1.362,0.952-1.93l-0.205,0.4c-1.13,2.488,0.267,3.008,2.036,3.667C3.397,20.478,2.557,24.201,2.55,28.021"
							/>
					</g>
					<g>
						<path fill="#4A97D0" d="M24.101,0.009c0.431-0.015,0.651-0.015,1.09-0.015l0.542,0.01c0.163,0.006,0.38,0.022,0.543,0.022
							l0.561,0.035c0.171,0.015,0.4,0.033,0.571,0.048l0.607,0.066c0.189,0.025,0.442,0.056,0.632,0.084l0.691,0.112
							c0.221,0.042,0.517,0.096,0.737,0.141L30.902,0.7c0.277,0.072,0.647,0.165,0.923,0.243l1.028,0.316
							c0.381,0.136,0.89,0.312,1.266,0.458l1.275,0.542c0.586,0.289,1.364,0.678,1.937,0.992l1.438,0.883
							c1.748,1.243,1.973,1.402,3.194,2.502l1.304,1.295c0.45,0.518,1.06,1.202,1.486,1.739l1.103,1.534
							c0.343,0.562,0.813,1.302,1.131,1.878l0.853,1.726c0.242,0.603,0.581,1.399,0.797,2.011l0.568,1.879
							c0.139,0.638,0.343,1.484,0.454,2.127l0.253,1.995c0.03,0.667,0.093,1.555,0.094,2.222l-0.086,2.041
							c-0.091,0.73-0.196,1.707-0.322,2.432l-0.434,1.934c-0.19,0.617-0.427,1.447-0.645,2.056L47.79,35.3
							c-0.289,0.577-0.658,1.356-0.973,1.921l-0.989,1.615c-0.385,0.534-0.887,1.254-1.294,1.771l-1.199,1.391
							c-0.487,0.488-1.13,1.146-1.639,1.611l-1.318,1.104c-0.617,0.449-1.442,1.045-2.082,1.463l-1.257,0.74
							c-1.648,0.847-1.748,0.897-2.834,1.337l-0.907,0.338c-1.264,0.416-2.571,0.845-4.966,1.196l-0.649,0.079
							c-0.19,0.018-0.444,0.044-0.636,0.061l-0.581,0.041c-0.171,0.008-0.399,0.021-0.57,0.026l-0.548,0.014
							c-0.163,0.001-0.379,0.002-0.542,0.002L24.264,50c-0.163-0.007-0.38-0.022-0.543-0.022l-0.561-0.035
							c-0.171-0.015-0.4-0.029-0.571-0.049l-0.608-0.066c-0.189-0.025-0.442-0.057-0.631-0.084l-0.692-0.112
							c-0.221-0.042-0.517-0.095-0.737-0.141l-0.827-0.187c-0.277-0.072-0.647-0.165-0.923-0.243l-1.028-0.316
							c-0.38-0.136-0.889-0.312-1.265-0.457l-1.276-0.543c-0.585-0.289-1.364-0.678-1.936-0.991
							C6.559,43.283,2.534,36.427,2.55,28.021c0.006-3.42,0.681-6.764,1.892-9.872c0.279,0.109,0.651,0.254,0.93,0.363
							c16.193,5.306,22.725-12,20.909-16.984c-0.301-0.826-0.585-1.606-2.672-1.495C23.756,0.025,23.953,0.015,24.101,0.009"/>
						<path fill="#4A97D0" d="M2.55,28.021c-0.016,8.406,4.009,15.263,10.116,18.732c-0.427-0.263-0.997-0.611-1.424-0.873
							c-0.651-0.462-1.514-1.085-2.14-1.58l-1.355-1.2c-0.491-0.504-1.153-1.169-1.621-1.694l-1.177-1.459
							c-0.377-0.547-0.894-1.268-1.247-1.831L2.76,36.45c-0.276-0.589-0.66-1.367-0.909-1.968l-0.668-1.831
							c-0.174-0.626-0.425-1.457-0.572-2.091l-0.363-1.96c-0.112-1.089-0.223-2.546-0.256-3.64l0.086-2.042
							c0.081-0.653,0.167-1.527,0.276-2.176l0.414-1.941c0.185-0.62,0.413-1.453,0.624-2.064l0.712-1.804l0.265-0.58l-0.18,0.412
							c-0.607,2.087-0.271,2.593,2.253,3.383C3.23,21.256,2.556,24.6,2.55,28.021"/>
					</g>
					<g>
						<path fill="#4994CC" d="M25.19,0c0.362,0,0.723,0.029,1.085,0.029l0.561,0.034c0.171,0.015,0.4,0.032,0.571,0.047l0.607,0.066
							c0.189,0.025,0.442,0.056,0.632,0.084l0.691,0.112c0.221,0.042,0.517,0.096,0.737,0.141L30.902,0.7
							c0.277,0.072,0.647,0.165,0.923,0.243l1.028,0.316c0.381,0.136,0.89,0.312,1.266,0.458l1.275,0.542
							c0.586,0.289,1.364,0.678,1.937,0.992l1.438,0.883c1.748,1.243,1.973,1.402,3.194,2.502l1.304,1.295
							c0.45,0.518,1.06,1.202,1.486,1.739l1.103,1.534c0.343,0.562,0.813,1.302,1.131,1.878l0.853,1.726
							c0.242,0.603,0.581,1.399,0.797,2.011l0.568,1.879c0.139,0.638,0.343,1.484,0.454,2.127l0.253,1.995
							c0.03,0.667,0.093,1.555,0.094,2.222l-0.086,2.041c-0.091,0.73-0.196,1.707-0.322,2.432l-0.434,1.934
							c-0.19,0.617-0.427,1.447-0.645,2.056L47.79,35.3c-0.289,0.577-0.658,1.356-0.973,1.921l-0.989,1.615
							c-0.385,0.534-0.887,1.254-1.294,1.771l-1.199,1.391c-0.487,0.488-1.13,1.146-1.639,1.611l-1.318,1.104
							c-0.617,0.449-1.442,1.045-2.082,1.463l-1.257,0.74c-1.648,0.847-1.748,0.897-2.834,1.337l-0.907,0.338
							c-1.264,0.416-2.571,0.845-4.966,1.196l-0.649,0.079c-0.19,0.018-0.444,0.044-0.636,0.061l-0.581,0.041
							c-0.171,0.008-0.399,0.021-0.57,0.026l-0.548,0.014c-0.163,0.001-0.379,0.002-0.542,0.002L24.264,50
							c-0.163-0.007-0.38-0.022-0.543-0.022l-0.561-0.035c-0.171-0.015-0.4-0.029-0.571-0.049l-0.608-0.066
							c-0.189-0.025-0.442-0.057-0.631-0.084l-0.692-0.112c-0.221-0.042-0.517-0.095-0.737-0.141l-0.827-0.187
							c-0.277-0.072-0.647-0.165-0.923-0.243l-1.028-0.316c-0.38-0.136-0.889-0.312-1.265-0.457l-1.276-0.543
							c-0.585-0.289-1.364-0.678-1.936-0.991C6.559,43.283,2.534,36.427,2.55,28.021c0.005-3.023,0.533-5.986,1.491-8.779
							c0.295,0.07,0.688,0.163,0.982,0.232C24.912,23.92,28.978,3.148,27.198,0.753C26.658,0.026,25.504,0,25.069,0
							C25.105,0,25,0,25,0"/>
						<path fill="#4994CC" d="M2.55,28.021c-0.016,8.406,4.009,15.263,10.116,18.732c-0.427-0.263-0.997-0.611-1.424-0.873
							c-0.651-0.462-1.514-1.085-2.14-1.58l-1.355-1.2c-0.491-0.504-1.153-1.169-1.621-1.694l-1.177-1.459
							c-0.377-0.547-0.894-1.268-1.247-1.831L2.76,36.45c-0.276-0.589-0.66-1.367-0.909-1.968l-0.668-1.831
							c-0.174-0.626-0.425-1.457-0.572-2.091l-0.363-1.96c-0.112-1.089-0.223-2.546-0.256-3.64l0.086-2.042
							c0.081-0.653,0.167-1.527,0.276-2.176l0.414-1.941c0.185-0.62,0.413-1.453,0.624-2.064c0.115-0.306,0.268-0.713,0.382-1.019
							c-0.021,0.053-0.047,0.123-0.067,0.175c-0.584,2.194-0.028,2.686,2.335,3.347C3.083,22.035,2.555,24.998,2.55,28.021"/>
					</g>
					<g>
						<path fill="#4791C8" d="M27.407,0.11c0.743,0.081,0.857,0.093,1.239,0.151l0.691,0.112c0.221,0.042,0.517,0.096,0.737,0.141
							L30.902,0.7c0.277,0.072,0.647,0.165,0.923,0.243l1.028,0.316c0.381,0.136,0.89,0.312,1.266,0.458l1.275,0.542
							c0.586,0.289,1.364,0.678,1.937,0.992l1.438,0.883c1.748,1.243,1.973,1.402,3.194,2.502l1.304,1.295
							c0.45,0.518,1.06,1.202,1.486,1.739l1.103,1.534c0.343,0.562,0.813,1.302,1.131,1.878l0.853,1.726
							c0.242,0.603,0.581,1.399,0.797,2.011l0.568,1.879c0.139,0.638,0.343,1.484,0.454,2.127l0.253,1.995
							c0.03,0.667,0.093,1.555,0.094,2.222l-0.086,2.041c-0.091,0.73-0.196,1.707-0.322,2.432l-0.434,1.934
							c-0.19,0.617-0.427,1.447-0.645,2.056L47.79,35.3c-0.289,0.577-0.658,1.356-0.973,1.921l-0.989,1.615
							c-0.385,0.534-0.887,1.254-1.294,1.771l-1.199,1.391c-0.487,0.488-1.13,1.146-1.639,1.611l-1.318,1.104
							c-0.617,0.449-1.442,1.045-2.082,1.463l-1.257,0.74c-1.648,0.847-1.748,0.897-2.834,1.337l-0.907,0.338
							c-1.264,0.416-2.571,0.845-4.966,1.196l-0.649,0.079c-0.19,0.018-0.444,0.044-0.636,0.061l-0.581,0.041
							c-0.171,0.008-0.399,0.021-0.57,0.026l-0.548,0.014c-0.163,0.001-0.379,0.002-0.542,0.002L24.264,50
							c-0.163-0.007-0.38-0.022-0.543-0.022l-0.561-0.035c-0.171-0.015-0.4-0.029-0.571-0.049l-0.608-0.066
							c-0.189-0.025-0.442-0.057-0.631-0.084l-0.692-0.112c-0.221-0.042-0.517-0.095-0.737-0.141l-0.827-0.187
							c-0.277-0.072-0.647-0.165-0.923-0.243l-1.028-0.316c-0.38-0.136-0.889-0.312-1.265-0.457l-1.276-0.543
							c-0.585-0.289-1.364-0.678-1.936-0.991C6.559,43.283,2.534,36.427,2.55,28.021c0.005-2.629,0.405-5.214,1.139-7.68
							c0.301,0.052,0.702,0.121,1.002,0.172C26.784,23.411,29.297,1.976,28.442,0.855c-0.15-0.197-0.55-0.721-1.975-0.818
							l0.563,0.04L27.407,0.11"/>
						<path fill="#4791C8" d="M2.55,28.021c-0.016,8.406,4.009,15.263,10.116,18.732c-0.427-0.263-0.997-0.611-1.424-0.873
							c-0.651-0.462-1.514-1.085-2.14-1.58l-1.355-1.2c-0.491-0.504-1.153-1.169-1.621-1.694l-1.177-1.459
							c-0.377-0.547-0.894-1.268-1.247-1.831L2.76,36.45c-0.276-0.589-0.66-1.367-0.909-1.968l-0.668-1.831
							c-0.174-0.626-0.425-1.457-0.572-2.091l-0.363-1.96c-0.112-1.089-0.223-2.546-0.256-3.64l0.086-2.042
							c0.081-0.653,0.167-1.527,0.276-2.176l0.414-1.941l0.523-1.769l-0.177,0.74c-0.117,1.613,0.508,2.037,2.576,2.567
							C2.955,22.807,2.555,25.391,2.55,28.021"/>
					</g>
					<g>
						<path fill="#468EC4" d="M28.646,0.261c0.914,0.148,0.932,0.151,1.429,0.253L30.902,0.7c0.277,0.072,0.647,0.165,0.923,0.243
							l1.028,0.316c0.381,0.136,0.89,0.312,1.266,0.458l1.275,0.542c0.586,0.289,1.364,0.678,1.937,0.992l1.438,0.883
							c1.748,1.243,1.973,1.402,3.194,2.502l1.304,1.295c0.45,0.518,1.06,1.202,1.486,1.739l1.103,1.534
							c0.343,0.562,0.813,1.302,1.131,1.878l0.853,1.726c0.242,0.603,0.581,1.399,0.797,2.011l0.568,1.879
							c0.139,0.638,0.343,1.484,0.454,2.127l0.253,1.995c0.03,0.667,0.093,1.555,0.094,2.222l-0.086,2.041
							c-0.091,0.73-0.196,1.707-0.322,2.432l-0.434,1.934c-0.19,0.617-0.427,1.447-0.645,2.056L47.79,35.3
							c-0.289,0.577-0.658,1.356-0.973,1.921l-0.989,1.615c-0.385,0.534-0.887,1.254-1.294,1.771l-1.199,1.391
							c-0.487,0.488-1.13,1.146-1.639,1.611l-1.318,1.104c-0.617,0.449-1.442,1.045-2.082,1.463l-1.257,0.74
							c-1.648,0.847-1.748,0.897-2.834,1.337l-0.907,0.338c-1.264,0.416-2.571,0.845-4.966,1.196l-0.649,0.079
							c-0.19,0.018-0.444,0.044-0.636,0.061l-0.581,0.041c-0.171,0.008-0.399,0.021-0.57,0.026l-0.548,0.014
							c-0.163,0.001-0.379,0.002-0.542,0.002L24.264,50c-0.163-0.007-0.38-0.022-0.543-0.022l-0.561-0.035
							c-0.171-0.015-0.4-0.029-0.571-0.049l-0.608-0.066c-0.189-0.025-0.442-0.057-0.631-0.084l-0.692-0.112
							c-0.221-0.042-0.517-0.095-0.737-0.141l-0.827-0.187c-0.277-0.072-0.647-0.165-0.923-0.243l-1.028-0.316
							c-0.38-0.136-0.889-0.312-1.265-0.457l-1.276-0.543c-0.585-0.289-1.364-0.678-1.936-0.991
							C6.559,43.283,2.534,36.427,2.55,28.021c0.004-2.235,0.294-4.438,0.832-6.564c0.224,0.017,0.523,0.039,0.748,0.056
							C26.524,23.491,31.089,2.924,29.664,1.028c-0.497-0.661-1.271-0.784-1.835-0.874l0.618,0.078L28.646,0.261"/>
						<path fill="#468EC4" d="M2.55,28.021c-0.016,8.406,4.009,15.263,10.116,18.732c-0.427-0.263-0.997-0.611-1.424-0.873
							c-0.651-0.462-1.514-1.085-2.14-1.58l-1.355-1.2c-0.491-0.504-1.153-1.169-1.621-1.694l-1.177-1.459
							c-0.377-0.547-0.894-1.268-1.247-1.831L2.76,36.45c-0.276-0.589-0.66-1.367-0.909-1.968l-0.668-1.831
							c-0.174-0.626-0.425-1.457-0.572-2.091l-0.363-1.96c-0.112-1.089-0.223-2.546-0.256-3.64l0.086-2.042
							c0.081-0.653,0.167-1.527,0.276-2.176l0.414-1.941l0.133-0.5l-0.133,0.739c-0.055,1.758,1.182,2.062,2.614,2.415
							C2.844,23.582,2.554,25.785,2.55,28.021"/>
					</g>
					<g>
						<path fill="#448BC0" d="M30.075,0.514c1.054,0.237,1.14,0.256,1.75,0.429l1.028,0.316c0.381,0.136,0.89,0.312,1.266,0.458
							l1.275,0.542c0.586,0.289,1.364,0.678,1.937,0.992l1.438,0.883c1.748,1.243,1.973,1.402,3.194,2.502l1.304,1.295
							c0.45,0.518,1.06,1.202,1.486,1.739l1.103,1.534c0.343,0.562,0.813,1.302,1.131,1.878l0.853,1.726
							c0.242,0.603,0.581,1.399,0.797,2.011l0.568,1.879c0.139,0.638,0.343,1.484,0.454,2.127l0.253,1.995
							c0.03,0.667,0.093,1.555,0.094,2.222l-0.086,2.041c-0.091,0.73-0.196,1.707-0.322,2.432l-0.434,1.934
							c-0.19,0.617-0.427,1.447-0.645,2.056L47.79,35.3c-0.289,0.577-0.658,1.356-0.973,1.921l-0.989,1.615
							c-0.385,0.534-0.887,1.254-1.294,1.771l-1.199,1.391c-0.487,0.488-1.13,1.146-1.639,1.611l-1.318,1.104
							c-0.617,0.449-1.442,1.045-2.082,1.463l-1.257,0.74c-1.648,0.847-1.748,0.897-2.834,1.337l-0.907,0.338
							c-1.264,0.416-2.571,0.845-4.966,1.196l-0.649,0.079c-0.19,0.018-0.444,0.044-0.636,0.061l-0.581,0.041
							c-0.171,0.008-0.399,0.021-0.57,0.026l-0.548,0.014c-0.163,0.001-0.379,0.002-0.542,0.002L24.264,50
							c-0.163-0.007-0.38-0.022-0.543-0.022l-0.561-0.035c-0.171-0.015-0.4-0.029-0.571-0.049l-0.608-0.066
							c-0.189-0.025-0.442-0.057-0.631-0.084l-0.692-0.112c-0.221-0.042-0.517-0.095-0.737-0.141l-0.827-0.187
							c-0.277-0.072-0.647-0.165-0.923-0.243l-1.028-0.316c-0.38-0.136-0.889-0.312-1.265-0.457l-1.276-0.543
							c-0.585-0.289-1.364-0.678-1.936-0.991C6.559,43.283,2.534,36.427,2.55,28.021c0.003-1.84,0.2-3.658,0.57-5.429
							c0.305,0.017,0.711,0.04,1.015,0.056C26.244,23.22,32.51,2.99,30.692,1.064c-0.479-0.508-1.202-0.655-1.55-0.725l0.707,0.129
							L30.075,0.514"/>
						<path fill="#448BC0" d="M2.55,28.021c-0.016,8.406,4.009,15.263,10.116,18.732c-0.427-0.263-0.997-0.611-1.424-0.873
							c-0.651-0.462-1.514-1.085-2.14-1.58l-1.355-1.2c-0.491-0.504-1.153-1.169-1.621-1.694l-1.177-1.459
							c-0.377-0.547-0.894-1.268-1.247-1.831L2.76,36.45c-0.276-0.589-0.66-1.367-0.909-1.968l-0.668-1.831
							c-0.174-0.626-0.425-1.457-0.572-2.091l-0.363-1.96c-0.112-1.089-0.223-2.546-0.256-3.64l0.086-2.042
							c0.081-0.653,0.167-1.527,0.276-2.176c0.069-0.35,0.161-0.817,0.23-1.167c-0.027,0.223-0.064,0.52-0.091,0.743
							c0.011,1.635,1.401,1.973,2.628,2.272C2.75,24.362,2.553,26.181,2.55,28.021"/>
					</g>
					<g>
						<path fill="#4388BC" d="M31.825,0.943c1.3,0.4,1.436,0.442,2.294,0.774l1.275,0.542c0.586,0.289,1.364,0.678,1.937,0.992
							l1.438,0.883c1.748,1.243,1.973,1.402,3.194,2.502l1.304,1.295c0.45,0.518,1.06,1.202,1.486,1.739l1.103,1.534
							c0.343,0.562,0.813,1.302,1.131,1.878l0.853,1.726c0.242,0.603,0.581,1.399,0.797,2.011l0.568,1.879
							c0.139,0.638,0.343,1.484,0.454,2.127l0.253,1.995c0.03,0.667,0.093,1.555,0.094,2.222l-0.086,2.041
							c-0.091,0.73-0.196,1.707-0.322,2.432l-0.434,1.934c-0.19,0.617-0.427,1.447-0.645,2.056L47.79,35.3
							c-0.289,0.577-0.658,1.356-0.973,1.921l-0.989,1.615c-0.385,0.534-0.887,1.254-1.294,1.771l-1.199,1.391
							c-0.487,0.488-1.13,1.146-1.639,1.611l-1.318,1.104c-0.617,0.449-1.442,1.045-2.082,1.463l-1.257,0.74
							c-1.648,0.847-1.748,0.897-2.834,1.337l-0.907,0.338c-1.264,0.416-2.571,0.845-4.966,1.196l-0.649,0.079
							c-0.19,0.018-0.444,0.044-0.636,0.061l-0.581,0.041c-0.171,0.008-0.399,0.021-0.57,0.026l-0.548,0.014
							c-0.163,0.001-0.379,0.002-0.542,0.002L24.264,50c-0.163-0.007-0.38-0.022-0.543-0.022l-0.561-0.035
							c-0.171-0.015-0.4-0.029-0.571-0.049l-0.608-0.066c-0.189-0.025-0.442-0.057-0.631-0.084l-0.692-0.112
							c-0.221-0.042-0.517-0.095-0.737-0.141l-0.827-0.187c-0.277-0.072-0.647-0.165-0.923-0.243l-1.028-0.316
							c-0.38-0.136-0.889-0.312-1.265-0.457l-1.276-0.543c-0.585-0.289-1.364-0.678-1.936-0.991
							C6.559,43.283,2.534,36.427,2.55,28.021c0.002-1.441,0.124-2.87,0.354-4.272c0.218,0.003,0.51,0.006,0.729,0.009
							C24.7,24.076,34.479,3.948,31.776,1.255c-0.425-0.423-0.928-0.555-1.332-0.662l0.84,0.203L31.825,0.943"/>
						<path fill="#4388BC" d="M2.55,28.021c-0.016,8.406,4.009,15.263,10.116,18.732c-0.427-0.263-0.997-0.611-1.424-0.873
							c-0.651-0.462-1.514-1.085-2.14-1.58l-1.355-1.2c-0.491-0.504-1.153-1.169-1.621-1.694l-1.177-1.459
							c-0.377-0.547-0.894-1.268-1.247-1.831L2.76,36.45c-0.276-0.589-0.66-1.367-0.909-1.968l-0.668-1.831
							c-0.174-0.626-0.425-1.457-0.572-2.091l-0.363-1.96c-0.112-1.089-0.223-2.546-0.256-3.64l0.086-2.042
							c0.076-0.614,0.153-1.435,0.254-2.045l-0.049,0.744c0.303,1.333,0.72,1.671,2.622,2.13C2.674,25.151,2.552,26.579,2.55,28.021
							"/>
					</g>
					<g>
						<path fill="#4285B7" d="M31.825,0.943c0.608,0.179,1.237,0.365,2.294,0.774l1.275,0.542c0.586,0.289,1.364,0.678,1.937,0.992
							l1.438,0.883c1.748,1.243,1.973,1.402,3.194,2.502l1.304,1.295c0.45,0.518,1.06,1.202,1.486,1.739l1.103,1.534
							c0.343,0.562,0.813,1.302,1.131,1.878l0.853,1.726c0.242,0.603,0.581,1.399,0.797,2.011l0.568,1.879
							c0.139,0.638,0.343,1.484,0.454,2.127l0.253,1.995c0.03,0.667,0.093,1.555,0.094,2.222l-0.086,2.041
							c-0.091,0.73-0.196,1.707-0.322,2.432l-0.434,1.934c-0.19,0.617-0.427,1.447-0.645,2.056L47.79,35.3
							c-0.289,0.577-0.658,1.356-0.973,1.921l-0.989,1.615c-0.385,0.534-0.887,1.254-1.294,1.771l-1.199,1.391
							c-0.487,0.488-1.13,1.146-1.639,1.611l-1.318,1.104c-0.617,0.449-1.442,1.045-2.082,1.463l-1.257,0.74
							c-1.648,0.847-1.748,0.897-2.834,1.337l-0.907,0.338c-1.264,0.416-2.571,0.845-4.966,1.196l-0.649,0.079
							c-0.19,0.018-0.444,0.044-0.636,0.061l-0.581,0.041c-0.171,0.008-0.399,0.021-0.57,0.026l-0.548,0.014
							c-0.163,0.001-0.379,0.002-0.542,0.002L24.264,50c-0.163-0.007-0.38-0.022-0.543-0.022l-0.561-0.035
							c-0.171-0.015-0.4-0.029-0.571-0.049l-0.608-0.066c-0.189-0.025-0.442-0.057-0.631-0.084l-0.692-0.112
							c-0.221-0.042-0.517-0.095-0.737-0.141l-0.827-0.187c-0.277-0.072-0.647-0.165-0.923-0.243l-1.028-0.316
							c-0.38-0.136-0.889-0.312-1.265-0.457l-1.276-0.543c-0.585-0.289-1.364-0.678-1.936-0.991
							C6.559,43.283,2.534,36.427,2.55,28.021c0.002-1.035,0.065-2.064,0.186-3.081c0.299,0.004,0.698,0.01,0.997,0.014
							c0.108-0.001,11.054-0.304,19.175-6.84c6.035-4.857,12.313-14.438,9.955-16.606c-0.352-0.324-0.829-0.488-1.114-0.586
							C31.771,0.928,31.802,0.936,31.825,0.943"/>
						<path fill="#4285B7" d="M2.55,28.021c-0.016,8.406,4.009,15.263,10.116,18.732c-0.427-0.263-0.997-0.611-1.424-0.873
							c-0.651-0.462-1.514-1.085-2.14-1.58l-1.355-1.2c-0.491-0.504-1.153-1.169-1.621-1.694l-1.177-1.459
							c-0.377-0.547-0.894-1.268-1.247-1.831L2.76,36.45c-0.276-0.589-0.66-1.367-0.909-1.968l-0.668-1.831
							c-0.174-0.626-0.425-1.457-0.572-2.091l-0.363-1.96c-0.112-1.089-0.223-2.546-0.256-3.64l0.086-2.042l0.072-0.733
							l-0.014,0.669c0.391,1.527,1.129,1.713,2.601,2.083C2.615,25.957,2.552,26.985,2.55,28.021"/>
					</g>
					<g>
						<path fill="#4082B3" d="M34.119,1.717c1.531,0.651,1.85,0.787,3.212,1.534l1.438,0.883c1.748,1.243,1.973,1.402,3.194,2.502
							l1.304,1.295c0.45,0.518,1.06,1.202,1.486,1.739l1.103,1.534c0.343,0.562,0.813,1.302,1.131,1.878l0.853,1.726
							c0.242,0.603,0.581,1.399,0.797,2.011l0.568,1.879c0.139,0.638,0.343,1.484,0.454,2.127l0.253,1.995
							c0.03,0.667,0.093,1.555,0.094,2.222l-0.086,2.041c-0.091,0.73-0.196,1.707-0.322,2.432l-0.434,1.934
							c-0.19,0.617-0.427,1.447-0.645,2.056L47.79,35.3c-0.289,0.577-0.658,1.356-0.973,1.921l-0.989,1.615
							c-0.385,0.534-0.887,1.254-1.294,1.771l-1.199,1.391c-0.487,0.488-1.13,1.146-1.639,1.611l-1.318,1.104
							c-0.617,0.449-1.442,1.045-2.082,1.463l-1.257,0.74c-1.648,0.847-1.748,0.897-2.834,1.337l-0.907,0.338
							c-1.264,0.416-2.571,0.845-4.966,1.196l-0.649,0.079c-0.19,0.018-0.444,0.044-0.636,0.061l-0.581,0.041
							c-0.171,0.008-0.399,0.021-0.57,0.026l-0.548,0.014c-0.163,0.001-0.379,0.002-0.542,0.002L24.264,50
							c-0.163-0.007-0.38-0.022-0.543-0.022l-0.561-0.035c-0.171-0.015-0.4-0.029-0.571-0.049l-0.608-0.066
							c-0.189-0.025-0.442-0.057-0.631-0.084l-0.692-0.112c-0.221-0.042-0.517-0.095-0.737-0.141l-0.827-0.187
							c-0.277-0.072-0.647-0.165-0.923-0.243l-1.028-0.316c-0.38-0.136-0.889-0.312-1.265-0.457l-1.276-0.543
							c-0.585-0.289-1.364-0.678-1.936-0.991C6.559,43.283,2.534,36.427,2.55,28.021c0.001-0.62,0.024-1.238,0.068-1.854
							c0.287,0.001,0.67,0.001,0.957,0.002C19.76,26.09,38.99,6.227,33.949,1.823c-0.098-0.085-0.357-0.312-0.931-0.509l1.054,0.384
							L34.119,1.717"/>
						<path fill="#4082B3" d="M2.55,28.021c-0.016,8.406,4.009,15.263,10.116,18.732c-0.427-0.263-0.997-0.611-1.424-0.873
							c-0.651-0.462-1.514-1.085-2.14-1.58l-1.355-1.2c-0.491-0.504-1.153-1.169-1.621-1.694l-1.177-1.459
							c-0.377-0.547-0.894-1.268-1.247-1.831L2.76,36.45c-0.276-0.589-0.66-1.367-0.909-1.968l-0.668-1.831
							c-0.174-0.626-0.425-1.457-0.572-2.091l-0.363-1.96c-0.112-1.089-0.223-2.546-0.256-3.64c0.012-0.419,0.029-0.978,0.041-1.397
							c0.002,0.157,0.005,0.366,0.007,0.522c0.385,1.481,1.029,1.696,2.579,2.081C2.574,26.782,2.551,27.4,2.55,28.021"/>
					</g>
					<g>
						<path fill="#3F7EAF" d="M37.331,3.251c1.651,1.014,2.743,1.683,4.633,3.385l1.304,1.295c0.45,0.518,1.06,1.202,1.486,1.739
							l1.103,1.534c0.343,0.562,0.813,1.302,1.131,1.878l0.853,1.726c0.242,0.603,0.581,1.399,0.797,2.011l0.568,1.879
							c0.139,0.638,0.343,1.484,0.454,2.127l0.253,1.995c0.03,0.667,0.093,1.555,0.094,2.222l-0.086,2.041
							c-0.091,0.73-0.196,1.707-0.322,2.432l-0.434,1.934c-0.19,0.617-0.427,1.447-0.645,2.056L47.79,35.3
							c-0.289,0.577-0.658,1.356-0.973,1.921l-0.989,1.615c-0.385,0.534-0.887,1.254-1.294,1.771l-1.199,1.391
							c-0.487,0.488-1.13,1.146-1.639,1.611l-1.318,1.104c-0.617,0.449-1.442,1.045-2.082,1.463l-1.257,0.74
							c-1.648,0.847-1.748,0.897-2.834,1.337l-0.907,0.338c-1.264,0.416-2.571,0.845-4.966,1.196l-0.649,0.079
							c-0.19,0.018-0.444,0.044-0.636,0.061l-0.581,0.041c-0.171,0.008-0.399,0.021-0.57,0.026l-0.548,0.014
							c-0.163,0.001-0.379,0.002-0.542,0.002L24.264,50c-0.163-0.007-0.38-0.022-0.543-0.022l-0.561-0.035
							c-0.171-0.015-0.4-0.029-0.571-0.049l-0.608-0.066c-0.189-0.025-0.442-0.057-0.631-0.084l-0.692-0.112
							c-0.221-0.042-0.517-0.095-0.737-0.141l-0.827-0.187c-0.277-0.072-0.647-0.165-0.923-0.243l-1.028-0.316
							c-0.38-0.136-0.889-0.312-1.265-0.457l-1.276-0.543c-0.585-0.289-1.364-0.678-1.936-0.991
							C6.559,43.283,2.534,36.427,2.55,28.021c0-0.19,0.003-0.381,0.007-0.57c0.289,0.007,0.673,0.018,0.962,0.025
							C18.513,27.473,40.935,6.989,35.052,2.215c-0.069-0.056-0.326-0.252-0.737-0.42l1.277,0.556
							C36.116,2.616,36.823,2.955,37.331,3.251"/>
						<path fill="#3F7EAF" d="M2.55,28.021c-0.016,8.406,4.009,15.263,10.116,18.732c-0.427-0.263-0.997-0.611-1.424-0.873
							c-0.651-0.462-1.514-1.085-2.14-1.58l-1.355-1.2c-0.491-0.504-1.153-1.169-1.621-1.694l-1.177-1.459
							c-0.377-0.547-0.894-1.268-1.247-1.831L2.76,36.45c-0.276-0.589-0.66-1.367-0.909-1.968l-0.668-1.831
							c-0.174-0.626-0.425-1.457-0.572-2.091l-0.363-1.96c-0.112-1.086-0.223-2.539-0.256-3.631l0.019,0.375
							c0.372,1.415,0.927,1.673,2.548,2.105C2.553,27.64,2.55,27.83,2.55,28.021"/>
					</g>
					<g>
						<path fill="#3D7BAB" d="M37.331,3.251c1.651,1.014,2.743,1.683,4.633,3.385l1.304,1.295c0.45,0.518,1.06,1.202,1.486,1.739
							l1.103,1.534c0.343,0.562,0.813,1.302,1.131,1.878l0.853,1.726c0.242,0.603,0.581,1.399,0.797,2.011l0.568,1.879
							c0.139,0.638,0.343,1.484,0.454,2.127l0.253,1.995c0.03,0.667,0.093,1.555,0.094,2.222l-0.086,2.041
							c-0.091,0.73-0.196,1.707-0.322,2.432l-0.434,1.934c-0.19,0.617-0.427,1.447-0.645,2.056L47.79,35.3
							c-0.289,0.577-0.658,1.356-0.973,1.921l-0.989,1.615c-0.385,0.534-0.887,1.254-1.294,1.771l-1.199,1.391
							c-0.487,0.488-1.13,1.146-1.639,1.611l-1.318,1.104c-0.617,0.449-1.442,1.045-2.082,1.463l-1.257,0.74
							c-1.648,0.847-1.748,0.897-2.834,1.337l-0.907,0.338c-1.264,0.416-2.571,0.845-4.966,1.196l-0.649,0.079
							c-0.19,0.018-0.444,0.044-0.636,0.061l-0.581,0.041c-0.171,0.008-0.399,0.021-0.57,0.026l-0.548,0.014
							c-0.163,0.001-0.379,0.002-0.542,0.002L24.264,50c-0.163-0.007-0.38-0.022-0.543-0.022l-0.561-0.035
							c-0.171-0.015-0.4-0.029-0.571-0.049l-0.608-0.066c-0.189-0.025-0.442-0.057-0.631-0.084l-0.692-0.112
							c-0.221-0.042-0.517-0.095-0.737-0.141l-0.827-0.187c-0.277-0.072-0.647-0.165-0.923-0.243l-1.028-0.316
							c-0.38-0.136-0.889-0.312-1.265-0.457l-1.276-0.543c-0.585-0.289-1.364-0.678-1.936-0.991
							C6.751,43.393,2.79,36.855,2.56,28.811c0.282,0.007,0.657,0.016,0.938,0.022C17.787,28.764,40.975,8.602,36.571,3.068
							c-0.333-0.418-0.765-0.617-0.907-0.683l1.281,0.651L37.331,3.251"/>
						<path fill="#3D7BAB" d="M12.666,46.753c-1.708-1.048-2.063-1.266-3.564-2.453l-1.355-1.2
							c-0.491-0.504-1.153-1.169-1.621-1.694l-1.177-1.459c-0.377-0.547-0.894-1.268-1.247-1.831L2.76,36.45
							c-0.276-0.589-0.66-1.367-0.909-1.968l-0.668-1.831c-0.174-0.626-0.425-1.457-0.572-2.091l-0.363-1.96
							c-0.065-0.63-0.174-1.47-0.213-2.103l0.019,0.207c0.417,1.553,1.159,1.749,2.507,2.105
							C2.79,36.855,6.751,43.393,12.666,46.753"/>
					</g>
					<g>
						<path fill="#3C78A7" d="M37.331,3.251c1.803,1.057,3.102,2.006,4.633,3.385l1.304,1.295c0.45,0.518,1.06,1.202,1.486,1.739
							l1.103,1.534c0.343,0.562,0.813,1.302,1.131,1.878l0.853,1.726c0.242,0.603,0.581,1.399,0.797,2.011l0.568,1.879
							c0.139,0.638,0.343,1.484,0.454,2.127l0.253,1.995c0.03,0.667,0.093,1.555,0.094,2.222l-0.086,2.041
							c-0.091,0.73-0.196,1.707-0.322,2.432l-0.434,1.934c-0.19,0.617-0.427,1.447-0.645,2.056L47.79,35.3
							c-0.289,0.577-0.658,1.356-0.973,1.921l-0.989,1.615c-0.385,0.534-0.887,1.254-1.294,1.771l-1.199,1.391
							c-0.487,0.488-1.13,1.146-1.639,1.611l-1.318,1.104c-0.617,0.449-1.442,1.045-2.082,1.463l-1.257,0.74
							c-1.648,0.847-1.748,0.897-2.834,1.337l-0.907,0.338c-1.264,0.416-2.571,0.845-4.966,1.196l-0.649,0.079
							c-0.19,0.018-0.444,0.044-0.636,0.061l-0.581,0.041c-0.171,0.008-0.399,0.021-0.57,0.026l-0.548,0.014
							c-0.163,0.001-0.379,0.002-0.542,0.002L24.264,50c-0.163-0.007-0.38-0.022-0.543-0.022l-0.561-0.035
							c-0.171-0.015-0.4-0.029-0.571-0.049l-0.608-0.066c-0.189-0.025-0.442-0.057-0.631-0.084l-0.692-0.112
							c-0.221-0.042-0.517-0.095-0.737-0.141l-0.827-0.187c-0.277-0.072-0.647-0.165-0.923-0.243l-1.028-0.316
							c-0.38-0.136-0.889-0.312-1.265-0.457l-1.276-0.543c-0.585-0.289-1.364-0.678-1.936-0.991
							c-5.569-3.164-9.406-9.145-10.027-16.548c0.276,0.025,0.645,0.061,0.921,0.088c12.033,0.701,39.217-20.438,34.22-26.612
							c-0.086-0.106-0.409-0.4-0.72-0.582C37.142,3.145,37.251,3.204,37.331,3.251"/>
						<path fill="#3C78A7" d="M12.666,46.753c-1.708-1.048-2.063-1.266-3.564-2.453l-1.355-1.2
							c-0.491-0.504-1.153-1.169-1.621-1.694l-1.177-1.459c-0.377-0.547-0.894-1.268-1.247-1.831L2.76,36.45
							c-0.276-0.589-0.66-1.367-0.909-1.968l-0.668-1.831c-0.174-0.626-0.425-1.457-0.572-2.091l-0.363-1.96l-0.069-0.52
							l0.005,0.041c0.409,1.504,1.008,1.673,2.455,2.083C3.259,37.608,7.097,43.589,12.666,46.753"/>
					</g>
					<g>
						<path fill="#3A75A2" d="M41.964,6.636c1.673,1.661,1.809,1.796,2.79,3.034l1.103,1.534c0.343,0.562,0.813,1.302,1.131,1.878
							l0.853,1.726c0.242,0.603,0.581,1.399,0.797,2.011l0.568,1.879c0.139,0.638,0.343,1.484,0.454,2.127l0.253,1.995
							c0.03,0.667,0.093,1.555,0.094,2.222l-0.086,2.041c-0.091,0.73-0.196,1.707-0.322,2.432l-0.434,1.934
							c-0.19,0.617-0.427,1.447-0.645,2.056L47.79,35.3c-0.289,0.577-0.658,1.356-0.973,1.921l-0.989,1.615
							c-0.385,0.534-0.887,1.254-1.294,1.771l-1.199,1.391c-0.487,0.488-1.13,1.146-1.639,1.611l-1.318,1.104
							c-0.617,0.449-1.442,1.045-2.082,1.463l-1.257,0.74c-1.648,0.847-1.748,0.897-2.834,1.337l-0.907,0.338
							c-1.264,0.416-2.571,0.845-4.966,1.196l-0.649,0.079c-0.19,0.018-0.444,0.044-0.636,0.061l-0.581,0.041
							c-0.171,0.008-0.399,0.021-0.57,0.026l-0.548,0.014c-0.163,0.001-0.379,0.002-0.542,0.002L24.264,50
							c-0.163-0.007-0.38-0.022-0.543-0.022l-0.561-0.035c-0.171-0.015-0.4-0.029-0.571-0.049l-0.608-0.066
							c-0.189-0.025-0.442-0.057-0.631-0.084l-0.692-0.112c-0.221-0.042-0.517-0.095-0.737-0.141l-0.827-0.187
							c-0.277-0.072-0.647-0.165-0.923-0.243l-1.028-0.316c-0.38-0.136-0.889-0.312-1.265-0.457l-1.276-0.543
							c-0.585-0.289-1.364-0.678-1.936-0.991c-5.17-2.938-8.848-8.302-9.845-14.979c0.267,0.031,0.624,0.072,0.891,0.104
							c12.189,0.937,40.646-21.088,35.405-27.403c-0.152-0.184-0.429-0.394-0.578-0.49l1.405,0.976
							C40.559,5.452,41.391,6.097,41.964,6.636"/>
						<path fill="#3A75A2" d="M12.666,46.753c-1.708-1.048-2.063-1.266-3.564-2.453l-1.355-1.2
							c-0.491-0.504-1.153-1.169-1.621-1.694l-1.177-1.459c-0.377-0.547-0.894-1.268-1.247-1.831L2.76,36.45
							c-0.276-0.589-0.66-1.367-0.909-1.968l-0.668-1.831c-0.174-0.626-0.425-1.457-0.572-2.091
							c-0.051-0.245-0.12-0.573-0.171-0.818c0.055,0.168,0.128,0.393,0.184,0.561c0.518,0.96,0.976,1.1,2.198,1.471
							C3.818,38.451,7.496,43.815,12.666,46.753"/>
					</g>
					<g>
						<path fill="#39729E" d="M41.964,6.636c1.673,1.661,1.809,1.796,2.79,3.034l1.103,1.534c0.343,0.562,0.813,1.302,1.131,1.878
							l0.853,1.726c0.242,0.603,0.581,1.399,0.797,2.011l0.568,1.879c0.139,0.638,0.343,1.484,0.454,2.127l0.253,1.995
							c0.03,0.667,0.093,1.555,0.094,2.222l-0.086,2.041c-0.091,0.73-0.196,1.707-0.322,2.432l-0.434,1.934
							c-0.19,0.617-0.427,1.447-0.645,2.056L47.79,35.3c-0.289,0.577-0.658,1.356-0.973,1.921l-0.989,1.615
							c-0.385,0.534-0.887,1.254-1.294,1.771l-1.199,1.391c-0.487,0.488-1.13,1.146-1.639,1.611l-1.318,1.104
							c-0.617,0.449-1.442,1.045-2.082,1.463l-1.257,0.74c-1.648,0.847-1.748,0.897-2.834,1.337l-0.907,0.338
							c-1.264,0.416-2.571,0.845-4.966,1.196l-0.649,0.079c-0.19,0.018-0.444,0.044-0.636,0.061l-0.581,0.041
							c-0.171,0.008-0.399,0.021-0.57,0.026l-0.548,0.014c-0.163,0.001-0.379,0.002-0.542,0.002L24.264,50
							c-0.163-0.007-0.38-0.022-0.543-0.022l-0.561-0.035c-0.171-0.015-0.4-0.029-0.571-0.049l-0.608-0.066
							c-0.189-0.025-0.442-0.057-0.631-0.084l-0.692-0.112c-0.221-0.042-0.517-0.095-0.737-0.141l-0.827-0.187
							c-0.277-0.072-0.647-0.165-0.923-0.243l-1.028-0.316c-0.38-0.136-0.889-0.312-1.265-0.457l-1.276-0.543
							c-0.585-0.289-1.364-0.678-1.936-0.991c-4.713-2.678-8.187-7.374-9.519-13.242c0.257,0.037,0.599,0.086,0.856,0.123
							C16.4,34.887,46.139,12.009,40.577,5.497c-0.102-0.119-0.264-0.253-0.386-0.351l1.34,1.1L41.964,6.636"/>
						<path fill="#39729E" d="M12.666,46.753c-1.708-1.048-2.063-1.266-3.564-2.453l-1.355-1.2
							c-0.491-0.504-1.153-1.169-1.621-1.694l-1.177-1.459c-0.377-0.547-0.894-1.268-1.247-1.831L2.76,36.45
							c-0.276-0.589-0.66-1.367-0.909-1.968l-0.668-1.831l-0.287-0.958l0.228,0.55c0.471,0.802,0.862,0.919,2.023,1.268
							C4.479,39.379,7.952,44.075,12.666,46.753"/>
					</g>
					<g>
						<path fill="#376F9A" d="M44.754,9.67c1.427,1.985,1.513,2.104,2.233,3.412l0.853,1.726c0.242,0.603,0.581,1.399,0.797,2.011
							l0.568,1.879c0.139,0.638,0.343,1.484,0.454,2.127l0.253,1.995c0.03,0.667,0.093,1.555,0.094,2.222l-0.086,2.041
							c-0.091,0.73-0.196,1.707-0.322,2.432l-0.434,1.934c-0.19,0.617-0.427,1.447-0.645,2.056L47.79,35.3
							c-0.289,0.577-0.658,1.356-0.973,1.921l-0.989,1.615c-0.385,0.534-0.887,1.254-1.294,1.771l-1.199,1.391
							c-0.487,0.488-1.13,1.146-1.639,1.611l-1.318,1.104c-0.617,0.449-1.442,1.045-2.082,1.463l-1.257,0.74
							c-1.648,0.847-1.748,0.897-2.834,1.337l-0.907,0.338c-1.264,0.416-2.571,0.845-4.966,1.196l-0.649,0.079
							c-0.19,0.018-0.444,0.044-0.636,0.061l-0.581,0.041c-0.171,0.008-0.399,0.021-0.57,0.026l-0.548,0.014
							c-0.163,0.001-0.379,0.002-0.542,0.002L24.264,50c-0.163-0.007-0.38-0.022-0.543-0.022l-0.561-0.035
							c-0.171-0.015-0.4-0.029-0.571-0.049l-0.608-0.066c-0.189-0.025-0.442-0.057-0.631-0.084l-0.692-0.112
							c-0.221-0.042-0.517-0.095-0.737-0.141l-0.827-0.187c-0.277-0.072-0.647-0.165-0.923-0.243l-1.028-0.316
							c-0.38-0.136-0.889-0.312-1.265-0.457l-1.276-0.543c-0.585-0.289-1.364-0.678-1.936-0.991
							c-4.128-2.346-7.304-6.238-8.925-11.11c0.246,0.054,0.574,0.126,0.82,0.181c11.227,1.892,42.482-21.56,38.003-28.516
							c-0.096-0.149-0.249-0.333-0.374-0.46l1.29,1.313C43.863,8.612,44.397,9.196,44.754,9.67"/>
						<path fill="#376F9A" d="M12.666,46.753c-1.708-1.048-2.063-1.266-3.564-2.453l-1.355-1.2
							c-0.491-0.504-1.153-1.169-1.621-1.694l-1.177-1.459c-0.377-0.547-0.894-1.268-1.247-1.831L2.76,36.45
							c-0.276-0.589-0.66-1.367-0.909-1.968c-0.047-0.118-0.11-0.275-0.158-0.394c0.069,0.136,0.162,0.317,0.23,0.453
							c0.653,0.75,0.653,0.75,1.817,1.101C5.361,40.515,8.538,44.407,12.666,46.753"/>
					</g>
					<path fill="#6BB7F0" d="M20.368,11.762c-0.528,0.892-2.186,3.068-6.177,4c-0.684,0.16-1.681,0.045-2.331-0.22
						c-0.013-0.005-1.574-1.203-1.654-1.404c-0.668-1.689-0.314-4.441,1.658-6.214c3.179-2.859,7.068-1.68,7.104-1.666
						C19.124,6.318,22.729,7.772,20.368,11.762"/>
					<path fill="#74BBF1" d="M19.877,11.72c-1.445,2.335-4.27,3.385-5.562,3.614c-0.669,0.119-1.652,0.039-2.248-0.289
						c-0.898-0.494-1.254-1.353-1.365-1.699c-1.308-4.075,4.705-7.685,7.886-6.561c0.014,0.005,1.373,0.516,1.57,1.273
						C20.748,10.313,20.748,10.313,19.877,11.72"/>
					<path fill="#7BBFF2" d="M19.339,11.668c-0.01,0.016-1.536,1.884-2.106,2.113c-0.814,0.328-1.866,0.918-2.735,1.044
						c-0.658,0.096-1.641,0.044-2.193-0.327c-0.01-0.007-1.072-1.475-1.168-2.342c-0.07-0.63,0.394-1.436,0.687-1.998
						c0.375-0.722,1.423-2.049,4.214-2.827c0.899-0.25,1.896-0.065,2.179-0.002l1.239,0.759c0.33,0.433,0.534,1.195,0.516,1.739
						C19.953,10.413,19.633,11.164,19.339,11.668"/>
					<path fill="#81C2F2" d="M17.46,13.077c-0.765,0.677-2.731,1.177-2.749,1.18c-0.635,0.097-1.581-0.057-2.094-0.443
						c-0.975-0.734-0.864-2.333-0.193-3.454c0.354-0.59,1.062-1.228,1.636-1.606c0.567-0.375,1.43-0.729,2.097-0.857
						c0.496-0.095,1.204-0.144,1.684,0.014c0.448,0.147,0.979,0.566,1.253,0.95c0.687,0.963-0.248,2.678-0.288,2.751
						C18.519,12.134,17.908,12.681,17.46,13.077"/>
					<path fill="#86C4F3" d="M17.812,12.05c-1.702,1.485-2.765,1.633-2.88,1.645c-0.616,0.063-1.432-0.285-1.989-0.555
						c-0.171-0.083-0.278-0.368-0.307-0.556c-0.095-0.616,0.119-1.497,0.442-2.029c0.37-0.607,1.213-1.132,1.758-1.588
						c0.194-0.163,0.527-0.288,0.777-0.327c0.544-0.085,1.314-0.268,1.834-0.084C17.459,8.56,18.75,9.65,18.754,9.69
						C18.755,9.705,18.803,11.186,17.812,12.05"/>
					<path fill="#8BC6F3" d="M15.195,13.126c-0.191,0.101-1.652-1.119-1.658-1.136c-0.668-1.814,2.909-2.979,3.525-2.771
						c0.113,0.038,0.243,0.159,0.293,0.267c0.249,0.534,0.359,1.418,0.125,1.958C17.141,12.225,15.948,12.729,15.195,13.126"/>
					<path fill="#90C9F4" d="M15.792,11.7c-0.266-0.025-0.43-0.452-0.614-0.646c0.341-0.131,0.826-0.627,1.138-0.436
						c0.169,0.104,0.15,0.477,0.069,0.658C16.295,11.476,16.01,11.721,15.792,11.7"/>
				</g>
			</g>
		</g>
	</g>
</g>
<path fill="#FFFFFF" d="M43.975,14.886c-0.529,0.714-1.071,1.415-1.675,2.056c-0.14,0.113-0.267,0.239-0.381,0.379
	c-0.51,0.479-1.064,0.916-1.611,1.359c0,0.148,0,0.295,0,0.443c0,0.327,0,0.653,0,0.981c-0.319,6.51-2.795,10.863-6.071,14.417
	c-0.161,0.136-0.309,0.282-0.442,0.442c-3.275,3.091-7.394,5.339-13.438,5.66c-0.146,0-0.295,0-0.442,0c-0.4,0-0.801,0-1.202,0
	c-0.137,0-0.274,0-0.411,0c-4.27-0.23-7.624-1.545-10.276-3.288c0.331,0.027,0.637,0.079,1.012,0.062
	c0.138,0.073,0.41,0.012,0.601,0.032c0.063,0,0.126,0,0.189,0c0.19-0.021,0.463,0.041,0.601-0.032
	c3.42-0.14,6.024-1.355,8.063-2.845c0.131-0.096,0.386-0.175,0.316-0.285c-2.099-0.093-3.503-0.881-4.711-1.865
	c-0.177-0.203-0.366-0.393-0.569-0.569c-0.606-0.763-1.252-1.657-1.485-2.688c0.306,0.041,0.587,0.107,0.948,0.096
	c0.2,0.052,0.621,0.052,0.822,0c0.563-0.018,1.079-0.081,1.486-0.253c-3.392-0.867-5.492-3.024-5.881-6.894
	c0.02-0.127-0.042-0.336,0.031-0.411c0.886,0.506,1.947,0.835,3.257,0.917c-1.623-1.243-3.044-2.963-3.226-5.754
	c0-0.264,0-0.527,0-0.791c0.076-1.356,0.467-2.4,0.98-3.32c0.421,0.464,0.814,0.956,1.265,1.392c0.114,0.139,0.24,0.266,0.379,0.379
	c3.348,3.167,7.486,5.541,13.597,5.945c-0.621-2.795,0.412-5.343,1.801-6.736c0.13-0.103,0.245-0.218,0.349-0.347
	c1.132-1.051,2.564-1.8,4.554-1.992c0.325,0,0.652,0,0.979,0c2.237,0.197,3.721,1.148,4.963,2.339
	c1.744-0.354,3.299-1.065,4.618-1.739c-0.348,1.086-0.929,1.938-1.582,2.719c-0.149,0.124-0.286,0.261-0.41,0.411
	c-0.396,0.299-0.767,0.626-1.201,0.886c1.607-0.173,2.945-0.616,4.204-1.138C43.975,14.865,43.975,14.875,43.975,14.886z"/>
</svg>
