<?xml version="1.0" encoding="utf-8"?>
<!-- Generator: Adobe Illustrator 15.0.0, SVG Export Plug-In . SVG Version: 6.00 Build 0)  -->
<!DOCTYPE svg PUBLIC "-//W3C//DTD SVG 1.1//EN" "http://www.w3.org/Graphics/SVG/1.1/DTD/svg11.dtd">
<svg version="1.1" id="Layer_1" xmlns="http://www.w3.org/2000/svg" xmlns:xlink="http://www.w3.org/1999/xlink" x="0px" y="0px"
	 width="160px" height="100px" viewBox="0 0 160 100" enable-background="new 0 0 160 100" xml:space="preserve">
<g>
	<g>
		<path d="M17.951,49.316l-0.09,7.974c0,1.236,0.036,2.406,0.108,3.51c0.72,0.049,1.374,0.072,1.962,0.072l3.78-0.072
			c0.588,0,0.882,0.169,0.882,0.505c0,0.396-1.26,0.594-3.78,0.594c-0.612,0-1.398-0.03-2.358-0.09
			c-0.96-0.061-1.542-0.156-1.746-0.288c-0.061-1.272-0.09-3.349-0.09-6.229l0.09-6.336c0.312-0.24,0.564-0.36,0.756-0.36
			C17.79,48.596,17.951,48.836,17.951,49.316z"/>
		<path d="M27.059,48.326c-0.012,0.276-0.018,0.582-0.018,0.918s0.018,0.684,0.054,1.044c-0.168,0.192-0.396,0.288-0.684,0.288
			c-0.36,0-0.54-0.288-0.54-0.864c0-0.024,0-0.114,0-0.27s0.003-0.297,0.009-0.423c0.006-0.126,0.027-0.272,0.063-0.441
			c0.083-0.288,0.27-0.432,0.558-0.432C26.789,48.146,26.975,48.207,27.059,48.326z M25.907,57.146c0-2.353,0.12-3.708,0.36-4.068
			c0.084-0.132,0.186-0.198,0.306-0.198c0.12,0,0.318,0.066,0.594,0.198c-0.061,1.021-0.09,2.13-0.09,3.33l0.036,3.978
			c0,0.373-0.081,0.634-0.243,0.783c-0.162,0.15-0.312,0.226-0.45,0.226c-0.138,0-0.279-0.036-0.423-0.108
			C25.937,59.727,25.907,58.347,25.907,57.146z"/>
		<path d="M30.839,48.218c0.012,0.84,0.018,1.467,0.018,1.881s-0.003,0.825-0.009,1.233c-0.006,0.408-0.027,1.197-0.063,2.367
			c-0.036,1.17-0.06,2.097-0.072,2.781c0.456-0.312,1.002-0.795,1.638-1.449c0.636-0.654,1.212-1.215,1.728-1.683
			c0.816-0.732,1.398-0.954,1.746-0.666c0.132,0.107,0.174,0.21,0.126,0.306c-0.12,0.252-0.393,0.558-0.819,0.918
			c-0.426,0.36-0.927,0.768-1.503,1.224s-1.032,0.876-1.368,1.261c0.876,0.12,1.578,0.611,2.106,1.476
			c0.228,0.396,0.45,0.792,0.666,1.188c0.552,1.044,1.152,1.752,1.8,2.123c-0.24,0.24-0.516,0.36-0.828,0.36
			s-0.621-0.149-0.927-0.45c-0.306-0.3-0.57-0.666-0.792-1.098s-0.447-0.864-0.675-1.296c-0.516-1.044-1.116-1.566-1.8-1.566
			c-0.324,0-0.601,0.105-0.828,0.315c-0.228,0.21-0.342,0.429-0.342,0.657c0,1.439-0.024,2.508-0.072,3.204
			c-0.168,0.228-0.348,0.342-0.54,0.342c-0.06,0-0.126-0.013-0.198-0.036c-0.264-0.108-0.394-0.33-0.387-0.666
			c0.006-0.336,0.039-1.356,0.099-3.061c0.132-4.355,0.198-7.139,0.198-8.352c0-0.564,0.057-0.942,0.171-1.134
			c0.114-0.192,0.252-0.288,0.414-0.288C30.488,48.11,30.659,48.146,30.839,48.218z"/>
		<path d="M38.489,57.92c-0.024,0.24-0.036,0.402-0.036,0.486c0,0.72,0.219,1.278,0.657,1.674c0.438,0.396,0.957,0.594,1.557,0.594
			c0.6,0,1.089-0.083,1.467-0.252c0.378-0.168,0.651-0.348,0.819-0.54c0.432-0.54,0.828-0.81,1.188-0.81
			c0.132,0,0.288,0.036,0.468,0.108c-0.12,0.588-0.573,1.125-1.359,1.61c-0.786,0.486-1.773,0.729-2.961,0.729
			c-0.84,0-1.563-0.268-2.169-0.802c-0.606-0.533-0.909-1.263-0.909-2.187s0.183-1.821,0.549-2.691
			c0.366-0.869,0.894-1.613,1.584-2.231s1.392-0.927,2.106-0.927s1.29,0.146,1.728,0.44s0.657,0.724,0.657,1.287
			c0,1.044-0.465,1.905-1.395,2.583c-0.93,0.678-1.917,1.017-2.961,1.017C39.203,58.01,38.873,57.98,38.489,57.92z M39.857,57.326
			c0.564,0,1.068-0.18,1.512-0.54s0.759-0.738,0.945-1.134c0.186-0.396,0.279-0.756,0.279-1.08s-0.126-0.609-0.378-0.855
			c-0.252-0.245-0.546-0.368-0.882-0.368c-0.601,0-1.155,0.414-1.665,1.241c-0.51,0.828-0.873,1.687-1.089,2.574
			C39.107,57.272,39.533,57.326,39.857,57.326z"/>
		<path d="M50.999,53.708c0.132,0,0.198,0.792,0.198,2.376c0,0.252-0.003,0.654-0.009,1.206c-0.006,0.553-0.009,0.84-0.009,0.864
			c0.12-1.356,0.243-2.28,0.369-2.772c0.126-0.491,0.255-0.914,0.387-1.269c0.132-0.354,0.276-0.627,0.432-0.819
			c0.384-0.491,0.828-0.737,1.332-0.737c0.636,0,1.113,0.317,1.431,0.953c0.318,0.637,0.483,1.482,0.495,2.538
			c0.3-2.172,1.092-3.258,2.376-3.258c0.552,0,0.942,0.282,1.17,0.846c0.228,0.564,0.342,1.236,0.342,2.017l-0.054,2.736
			c0,1.8,0.39,2.699,1.17,2.699l1.026-0.162c0.06,0,0.12,0.007,0.18,0.019c-0.12,0.18-0.342,0.321-0.666,0.423
			c-0.324,0.103-0.642,0.153-0.954,0.153c-0.612,0-1.071-0.273-1.377-0.819s-0.471-1.122-0.495-1.728
			c-0.024-0.606-0.036-1.125-0.036-1.558l0.036-1.602c0-0.528-0.033-1.032-0.099-1.513c-0.066-0.479-0.237-0.72-0.513-0.72
			c-0.408,0-0.801,0.855-1.179,2.565s-0.609,3.333-0.693,4.869c-0.204,0.216-0.462,0.33-0.774,0.342
			c-0.096,0-0.187-0.019-0.27-0.054c-0.108-0.624-0.165-1.665-0.171-3.123c-0.006-1.458-0.081-2.619-0.225-3.483
			s-0.468-1.296-0.972-1.296c-0.336,0-0.612,0.372-0.828,1.116c-0.348,1.164-0.66,2.976-0.936,5.436
			c-0.072,0.576-0.126,0.99-0.162,1.242c-0.252,0.216-0.51,0.324-0.774,0.324l-0.27-0.036c-0.168-2.004-0.252-4.488-0.252-7.452
			C50.357,53.816,50.615,53.708,50.999,53.708z"/>
		<path d="M66.479,54.015c0-0.864,0.276-1.297,0.828-1.297c0.108,0,0.216,0.013,0.324,0.036c0,0.145,0,0.534,0,1.17
			c0,0.637,0.083,1.908,0.252,3.816c0.168,1.908,0.252,3.336,0.252,4.284c0,1.512-0.264,2.556-0.792,3.132
			c-0.528,0.576-1.425,0.864-2.691,0.864c-1.266,0-2.457-0.408-3.573-1.225c0.216-0.264,0.498-0.396,0.846-0.396
			c0.132,0.012,0.342,0.102,0.63,0.27c0.852,0.504,1.56,0.756,2.124,0.756c0.84,0,1.434-0.264,1.782-0.792
			c0.348-0.527,0.522-1.416,0.522-2.663c0-0.301-0.03-1.38-0.09-3.24c-0.012,0.036-0.054,0.188-0.126,0.459
			c-0.072,0.27-0.126,0.447-0.162,0.531c-0.036,0.084-0.099,0.239-0.189,0.468c-0.09,0.228-0.183,0.39-0.279,0.485
			c-0.096,0.097-0.222,0.211-0.378,0.343c-0.264,0.24-0.597,0.359-0.999,0.359c-0.402,0-0.723-0.054-0.963-0.162
			c-0.24-0.107-0.441-0.275-0.603-0.504c-0.162-0.228-0.306-0.468-0.432-0.72s-0.225-0.573-0.297-0.963
			c-0.072-0.39-0.129-0.747-0.171-1.071c-0.042-0.324-0.072-0.72-0.09-1.188c-0.018-0.469-0.03-0.858-0.036-1.17
			c-0.006-0.312-0.009-0.708-0.009-1.188v-1.08c0.12-0.204,0.336-0.306,0.648-0.306c0.432,0,0.648,0.156,0.648,0.468l-0.108,1.746
			c0,1.524,0.162,2.838,0.486,3.942c0.324,1.104,0.66,1.655,1.008,1.655c0.264,0,0.498-0.144,0.702-0.432
			c0.204-0.288,0.36-0.693,0.468-1.215c0.108-0.522,0.198-1.018,0.27-1.485s0.12-1.014,0.144-1.638
			C66.461,55.118,66.479,54.435,66.479,54.015z"/>
		<path d="M75.244,61.017c0.036,0.972,0.156,2.346,0.36,4.122c-0.228,0.228-0.498,0.342-0.81,0.342c-0.06,0-0.126-0.007-0.198-0.019
			c-0.012-0.468-0.099-1.529-0.261-3.186c-0.162-1.656-0.243-2.925-0.243-3.808c0-0.882,0.054-1.646,0.162-2.295
			c0.108-0.647,0.293-1.254,0.558-1.817c0.54-1.164,1.536-1.746,2.988-1.746c0.9,0,1.638,0.492,2.214,1.476
			c0.576,0.984,0.864,2.131,0.864,3.438c0,1.032-0.336,1.938-1.008,2.718c-0.672,0.78-1.602,1.17-2.79,1.17
			C76.348,61.412,75.736,61.28,75.244,61.017z M77.656,53.582c-1.02,0-1.698,0.528-2.034,1.584c-0.288,0.9-0.432,2.143-0.432,3.727
			c0,0.575,0.006,1.002,0.018,1.277c1.068,0.229,1.794,0.343,2.178,0.343c0.696,0,1.248-0.279,1.656-0.838
			c0.408-0.558,0.612-1.238,0.612-2.043c0-1.188-0.177-2.159-0.531-2.916C78.769,53.96,78.28,53.582,77.656,53.582z"/>
		<path d="M88.366,56.391l-0.09,2.069c0,1.044,0.12,1.746,0.36,2.106c0.144,0.24,0.342,0.359,0.594,0.359
			c0.072,0,0.174-0.018,0.306-0.054c0.252-0.072,0.462-0.036,0.63,0.108c-0.084,0.42-0.504,0.63-1.26,0.63
			c-0.516,0-0.857-0.216-1.025-0.648c-0.133-0.323-0.229-0.729-0.289-1.215c-0.06-0.486-0.107-0.819-0.144-0.999
			c-0.78,1.488-1.536,2.395-2.269,2.718c-0.371,0.168-0.804,0.252-1.295,0.252c-0.492,0-0.873-0.236-1.144-0.711
			c-0.271-0.474-0.405-1.167-0.405-2.079c0-0.911,0.15-1.868,0.45-2.87s0.738-1.849,1.313-2.538c0.576-0.69,1.207-1.035,1.891-1.035
			c0.984,0,1.639,0.408,1.962,1.224C88.229,54.404,88.366,55.299,88.366,56.391z M83.956,55.806
			c-0.168,0.653-0.294,1.271-0.378,1.854s-0.126,1.098-0.126,1.548s0.093,0.837,0.279,1.161c0.186,0.324,0.429,0.486,0.729,0.486
			c0.647,0,1.271-0.612,1.871-1.836c0.6-1.225,0.9-2.364,0.9-3.42c0-0.685-0.18-1.248-0.54-1.692
			c-0.24-0.288-0.556-0.432-0.945-0.432s-0.744,0.225-1.062,0.675C84.367,54.6,84.124,55.151,83.956,55.806z"/>
		<path d="M93.91,52.574c1.092,0,1.848,0.444,2.268,1.332c0.229,0.468,0.414,0.912,0.559,1.332c0.143,0.42,0.24,0.996,0.287,1.728
			c0.072,1.116,0.107,2.386,0.107,3.808s-0.338,2.556-1.016,3.401c-0.678,0.847-1.668,1.27-2.971,1.27
			c-1.301,0-2.385-0.42-3.248-1.26c0.24-0.24,0.5-0.36,0.783-0.36c0.281,0,0.672,0.123,1.17,0.369s1.028,0.369,1.593,0.369
			c0.563,0,1.032-0.129,1.403-0.388c0.373-0.258,0.648-0.62,0.828-1.089c0.301-0.828,0.449-1.848,0.449-3.06
			c0-0.18-0.017-0.846-0.053-1.998c-0.324,0.984-0.786,1.797-1.387,2.438c-0.6,0.643-1.277,0.964-2.033,0.964
			s-1.312-0.339-1.665-1.018c-0.354-0.678-0.531-1.449-0.531-2.312c0-0.864,0.12-1.707,0.36-2.529s0.63-1.527,1.17-2.115
			S93.166,52.574,93.91,52.574z M92.002,55.311c-0.156,0.528-0.27,1.025-0.342,1.494c-0.072,0.468-0.107,0.938-0.107,1.412
			c0,0.475,0.099,0.999,0.297,1.575c0.197,0.576,0.488,0.864,0.873,0.864c0.756,0,1.428-0.567,2.016-1.701s0.882-2.277,0.882-3.429
			c0-0.396-0.183-0.843-0.549-1.341s-0.825-0.747-1.377-0.747c-0.384,0-0.724,0.18-1.017,0.54
			C92.383,54.338,92.158,54.782,92.002,55.311z"/>
		<path d="M100.066,57.92c-0.025,0.24-0.037,0.402-0.037,0.486c0,0.72,0.219,1.278,0.656,1.674c0.439,0.396,0.957,0.594,1.559,0.594
			c0.6,0,1.088-0.083,1.467-0.252c0.377-0.168,0.65-0.348,0.818-0.54c0.432-0.54,0.828-0.81,1.188-0.81
			c0.133,0,0.289,0.036,0.469,0.108c-0.121,0.588-0.574,1.125-1.359,1.61c-0.785,0.486-1.773,0.729-2.961,0.729
			c-0.84,0-1.562-0.268-2.168-0.802c-0.607-0.533-0.91-1.263-0.91-2.187s0.184-1.821,0.549-2.691
			c0.367-0.869,0.895-1.613,1.584-2.231c0.691-0.618,1.393-0.927,2.107-0.927c0.713,0,1.289,0.146,1.727,0.44
			s0.658,0.724,0.658,1.287c0,1.044-0.467,1.905-1.396,2.583s-1.916,1.017-2.961,1.017C100.779,58.01,100.449,57.98,100.066,57.92z
			 M101.434,57.326c0.564,0,1.068-0.18,1.512-0.54s0.76-0.738,0.945-1.134c0.186-0.396,0.279-0.756,0.279-1.08
			s-0.127-0.609-0.379-0.855c-0.252-0.245-0.545-0.368-0.881-0.368c-0.602,0-1.156,0.414-1.666,1.241
			c-0.51,0.828-0.873,1.687-1.088,2.574C100.684,57.272,101.109,57.326,101.434,57.326z"/>
		<path d="M112.35,54.104c0.607-0.937,1.486-1.404,2.639-1.404c1.15,0,2.072,0.468,2.762,1.404c0.689,0.936,1.035,2.001,1.035,3.194
			c0,1.194-0.377,2.205-1.133,3.033c-0.758,0.828-1.717,1.242-2.881,1.242s-2.01-0.327-2.537-0.981
			c-0.529-0.653-0.793-1.574-0.793-2.763C111.441,56.282,111.744,55.04,112.35,54.104z M113.143,55.049
			c-0.162,0.475-0.281,0.945-0.359,1.413c-0.078,0.469-0.117,0.903-0.117,1.306c0,0.401,0.029,0.768,0.09,1.098
			c0.059,0.33,0.162,0.654,0.305,0.972c0.145,0.318,0.361,0.57,0.648,0.756c0.289,0.187,0.631,0.279,1.027,0.279
			c0.803,0,1.479-0.33,2.023-0.99c0.547-0.659,0.82-1.458,0.82-2.394c0-0.937-0.25-1.845-0.748-2.728
			c-0.498-0.882-1.107-1.322-1.826-1.322c-0.432,0-0.811,0.15-1.135,0.45S113.305,54.575,113.143,55.049z"/>
		<path d="M127.947,61.07c-0.215,0.228-0.461,0.342-0.738,0.342c-0.516,0-0.898-0.275-1.15-0.828
			c-0.252-0.552-0.4-1.224-0.441-2.016c-0.043-0.792-0.07-1.584-0.082-2.376s-0.074-1.464-0.188-2.017
			c-0.115-0.552-0.328-0.827-0.641-0.827c-0.42,0-0.775,0.378-1.07,1.134s-0.502,1.596-0.621,2.52
			c-0.336,2.58-0.66,4.026-0.973,4.338c-0.215,0.108-0.4,0.162-0.557,0.162s-0.289-0.018-0.396-0.054
			c-0.252-1.104-0.414-3.006-0.486-5.706c-0.023-1.344-0.047-2.214-0.072-2.61c0.252-0.168,0.469-0.252,0.648-0.252
			s0.324,0.019,0.432,0.055c0.061,0.516,0.094,1.572,0.1,3.168s0.016,2.514,0.027,2.754c0.059-0.252,0.135-0.66,0.225-1.225
			c0.09-0.563,0.172-1.028,0.242-1.395c0.072-0.366,0.188-0.795,0.342-1.287c0.156-0.492,0.33-0.885,0.523-1.179
			c0.191-0.294,0.455-0.546,0.791-0.756s0.715-0.315,1.135-0.315c0.564,0,0.975,0.255,1.232,0.765
			c0.258,0.511,0.398,1.144,0.424,1.899c0.023,0.756,0.039,1.524,0.045,2.304c0.006,0.78,0.102,1.494,0.287,2.143
			C127.17,60.458,127.492,60.878,127.947,61.07z"/>
		<path d="M23.063,70.25l0.81,0.018c0.324,0,0.576,0.019,0.756,0.055l0.486,0.071c0.252,0.036,0.474,0.126,0.666,0.271
			c-0.096,0.504-0.492,0.756-1.188,0.756l-4.77-0.145c-0.516,0-1.134,0.024-1.854,0.072c0.024,1.309,0.036,3.078,0.036,5.311
			c1.368-0.12,2.508-0.181,3.42-0.181c1.764,0,2.646,0.175,2.646,0.522c0,0.444-0.276,0.666-0.828,0.666
			c-0.192,0-0.402-0.019-0.63-0.054c-0.912-0.108-1.704-0.162-2.376-0.162c-0.672,0-1.422,0.048-2.25,0.144
			c-0.024,0.396-0.054,1.023-0.09,1.881c-0.036,0.858-0.063,1.432-0.081,1.719c-0.018,0.288-0.033,0.492-0.045,0.612
			c-0.012,0.12-0.027,0.265-0.045,0.433c-0.018,0.168-0.042,0.306-0.072,0.413c-0.03,0.108-0.069,0.223-0.117,0.343
			c-0.072,0.191-0.205,0.336-0.396,0.432c-0.06,0.024-0.114,0.036-0.162,0.036c-0.156,0-0.331-0.048-0.522-0.145
			c0-0.132,0-0.51,0-1.134s0.054-1.953,0.162-3.986c0.108-2.034,0.162-3.573,0.162-4.617s-0.024-1.891-0.072-2.538
			c0-0.288,0.294-0.492,0.882-0.612c0.648-0.132,1.269-0.2,1.863-0.207c0.594-0.006,1.046-0.009,1.359-0.009L23.063,70.25z"/>
		<path d="M31.469,77.99l-0.09,2.069c0,1.044,0.12,1.746,0.36,2.106c0.144,0.24,0.342,0.359,0.594,0.359
			c0.072,0,0.174-0.018,0.306-0.054c0.252-0.072,0.462-0.036,0.63,0.108c-0.084,0.42-0.504,0.63-1.26,0.63
			c-0.516,0-0.858-0.216-1.026-0.648c-0.132-0.323-0.228-0.729-0.288-1.215s-0.108-0.819-0.144-0.999
			c-0.78,1.488-1.536,2.395-2.268,2.718c-0.372,0.168-0.804,0.252-1.296,0.252c-0.492,0-0.873-0.236-1.143-0.711
			c-0.27-0.474-0.405-1.167-0.405-2.079c0-0.911,0.15-1.868,0.45-2.87s0.738-1.849,1.314-2.538c0.576-0.69,1.206-1.035,1.89-1.035
			c0.984,0,1.638,0.408,1.962,1.224C31.331,76.004,31.469,76.898,31.469,77.99z M27.059,77.405
			c-0.168,0.653-0.294,1.271-0.378,1.854s-0.126,1.098-0.126,1.548s0.093,0.837,0.279,1.161c0.186,0.324,0.429,0.486,0.729,0.486
			c0.648,0,1.271-0.612,1.872-1.836c0.6-1.225,0.9-2.364,0.9-3.42c0-0.685-0.18-1.248-0.54-1.692
			c-0.24-0.288-0.555-0.432-0.945-0.432s-0.744,0.225-1.062,0.675S27.227,76.751,27.059,77.405z"/>
		<path d="M39.911,76.424c-0.228,0.229-0.456,0.342-0.684,0.342s-0.411-0.099-0.549-0.297c-0.138-0.198-0.249-0.414-0.333-0.647
			c-0.084-0.234-0.237-0.45-0.459-0.648s-0.501-0.297-0.837-0.297c-0.468,0.048-0.894,0.381-1.278,0.999
			c-0.384,0.618-0.666,1.299-0.846,2.043s-0.27,1.443-0.27,2.097c0,0.654,0.183,1.219,0.549,1.692s0.861,0.711,1.485,0.711
			c0.72,0,1.296-0.252,1.728-0.756c0.18-0.216,0.348-0.433,0.504-0.648c0.384-0.504,0.732-0.756,1.044-0.756
			c0.108,0,0.264,0.03,0.468,0.09c0,0.444-0.405,1.029-1.215,1.755c-0.81,0.727-1.689,1.089-2.637,1.089
			c-0.948,0-1.695-0.303-2.241-0.908c-0.546-0.606-0.819-1.39-0.819-2.35c0-1.235,0.3-2.472,0.9-3.708
			c0.3-0.6,0.708-1.095,1.224-1.484c0.516-0.391,1.092-0.585,1.728-0.585c0.636,0,1.149,0.213,1.539,0.639
			S39.635,75.764,39.911,76.424z"/>
		<path d="M42.809,79.52c-0.024,0.24-0.036,0.402-0.036,0.486c0,0.72,0.219,1.278,0.657,1.674c0.438,0.396,0.957,0.594,1.557,0.594
			c0.6,0,1.089-0.083,1.467-0.252c0.378-0.168,0.651-0.348,0.819-0.54c0.432-0.54,0.828-0.81,1.188-0.81
			c0.132,0,0.288,0.036,0.468,0.108c-0.12,0.588-0.573,1.125-1.359,1.61c-0.786,0.486-1.773,0.729-2.961,0.729
			c-0.84,0-1.563-0.268-2.169-0.802c-0.606-0.533-0.909-1.263-0.909-2.187s0.183-1.821,0.549-2.691
			c0.366-0.869,0.894-1.613,1.584-2.231s1.392-0.927,2.106-0.927s1.29,0.146,1.728,0.44s0.657,0.724,0.657,1.287
			c0,1.044-0.465,1.905-1.395,2.583c-0.93,0.678-1.917,1.017-2.961,1.017C43.523,79.609,43.193,79.58,42.809,79.52z M44.177,78.926
			c0.564,0,1.068-0.18,1.512-0.54s0.759-0.738,0.945-1.134c0.186-0.396,0.279-0.756,0.279-1.08s-0.126-0.609-0.378-0.855
			c-0.252-0.245-0.546-0.368-0.882-0.368c-0.601,0-1.155,0.414-1.665,1.241c-0.51,0.828-0.873,1.687-1.089,2.574
			C43.427,78.872,43.853,78.926,44.177,78.926z"/>
		<path d="M50.621,70.231c0.144-0.264,0.408-0.396,0.792-0.396c0.084,0,0.168,0.012,0.252,0.036
			c0.024,0.636,0.036,2.412,0.036,5.328c0.012-0.012,0.069-0.066,0.171-0.162s0.165-0.156,0.189-0.181
			c0.024-0.023,0.084-0.081,0.18-0.171s0.171-0.149,0.225-0.18c0.054-0.03,0.129-0.078,0.225-0.144
			c0.096-0.066,0.18-0.114,0.252-0.145c0.072-0.029,0.156-0.062,0.252-0.099c0.18-0.061,0.39-0.09,0.63-0.09
			c0.888,0,1.602,0.368,2.142,1.106s0.81,1.563,0.81,2.476c0,0.911-0.138,1.778-0.414,2.601c-0.276,0.822-0.702,1.539-1.278,2.151
			c-0.576,0.611-1.245,0.918-2.007,0.918S51.68,83,51.17,82.436c-0.51-0.563-0.765-1.209-0.765-1.935s0.042-2.07,0.126-4.032
			s0.126-3.372,0.126-4.229C50.657,71.381,50.645,70.712,50.621,70.231z M53.195,82.399c0.468,0,0.888-0.222,1.26-0.666
			c0.756-0.875,1.134-2.117,1.134-3.726c0-0.864-0.168-1.629-0.504-2.295c-0.336-0.666-0.81-0.999-1.422-0.999
			c-0.348,0-0.654,0.171-0.918,0.513s-0.468,0.795-0.612,1.359c-0.276,1.068-0.414,2.256-0.414,3.563
			c0,1.104,0.228,1.782,0.684,2.034C52.607,82.304,52.871,82.376,53.195,82.399z"/>
		<path d="M59.162,75.704c0.605-0.937,1.485-1.404,2.637-1.404c1.152,0,2.073,0.468,2.763,1.404c0.69,0.936,1.035,2.001,1.035,3.194
			c0,1.194-0.378,2.205-1.134,3.033c-0.756,0.828-1.716,1.242-2.88,1.242c-1.164,0-2.01-0.327-2.538-0.981
			c-0.528-0.653-0.792-1.574-0.792-2.763C58.253,77.882,58.556,76.64,59.162,75.704z M59.954,76.648
			c-0.162,0.475-0.282,0.945-0.36,1.413c-0.079,0.469-0.117,0.903-0.117,1.306c0,0.401,0.03,0.768,0.09,1.098
			s0.162,0.654,0.306,0.972c0.144,0.318,0.36,0.57,0.648,0.756c0.288,0.187,0.63,0.279,1.026,0.279c0.804,0,1.479-0.33,2.025-0.99
			c0.546-0.659,0.819-1.458,0.819-2.394c0-0.937-0.25-1.845-0.747-2.728c-0.498-0.882-1.107-1.322-1.827-1.322
			c-0.432,0-0.81,0.15-1.134,0.45C60.359,75.788,60.116,76.175,59.954,76.648z"/>
		<path d="M67.982,75.704c0.605-0.937,1.485-1.404,2.637-1.404c1.152,0,2.073,0.468,2.763,1.404c0.69,0.936,1.035,2.001,1.035,3.194
			c0,1.194-0.378,2.205-1.134,3.033c-0.756,0.828-1.716,1.242-2.88,1.242c-1.164,0-2.01-0.327-2.538-0.981
			c-0.528-0.653-0.792-1.574-0.792-2.763C67.073,77.882,67.376,76.64,67.982,75.704z M68.774,76.648
			c-0.162,0.475-0.282,0.945-0.36,1.413c-0.079,0.469-0.117,0.903-0.117,1.306c0,0.401,0.03,0.768,0.09,1.098
			s0.162,0.654,0.306,0.972c0.144,0.318,0.36,0.57,0.648,0.756c0.288,0.187,0.63,0.279,1.026,0.279c0.804,0,1.479-0.33,2.025-0.99
			c0.546-0.659,0.819-1.458,0.819-2.394c0-0.937-0.25-1.845-0.747-2.728c-0.498-0.882-1.107-1.322-1.827-1.322
			c-0.432,0-0.81,0.15-1.134,0.45C69.179,75.788,68.936,76.175,68.774,76.648z"/>
		<path d="M77.639,69.817c0.012,0.841,0.018,1.468,0.018,1.882s-0.003,0.825-0.009,1.232c-0.006,0.408-0.027,1.197-0.063,2.367
			c-0.036,1.17-0.06,2.097-0.072,2.781c0.456-0.312,1.002-0.795,1.638-1.449c0.636-0.654,1.212-1.215,1.728-1.683
			c0.816-0.732,1.398-0.954,1.747-0.666c0.131,0.107,0.174,0.21,0.125,0.306c-0.119,0.252-0.393,0.558-0.818,0.918
			s-0.927,0.768-1.503,1.224s-1.032,0.876-1.368,1.261c0.876,0.12,1.578,0.611,2.105,1.476c0.229,0.396,0.451,0.792,0.666,1.188
			c0.553,1.044,1.152,1.752,1.801,2.123c-0.24,0.24-0.516,0.36-0.828,0.36s-0.621-0.149-0.928-0.45
			c-0.305-0.3-0.569-0.666-0.791-1.098c-0.223-0.432-0.447-0.864-0.675-1.296c-0.516-1.044-1.116-1.566-1.8-1.566
			c-0.324,0-0.601,0.105-0.828,0.315c-0.228,0.21-0.342,0.429-0.342,0.657c0,1.439-0.024,2.508-0.072,3.204
			c-0.168,0.228-0.348,0.342-0.54,0.342c-0.06,0-0.126-0.013-0.198-0.036c-0.264-0.108-0.394-0.33-0.387-0.666
			c0.006-0.336,0.039-1.356,0.099-3.061c0.132-4.355,0.198-7.14,0.198-8.352c0-0.563,0.057-0.942,0.171-1.134
			c0.114-0.192,0.252-0.288,0.414-0.288C77.288,69.71,77.458,69.746,77.639,69.817z"/>
		<path d="M85.379,81.932c0.131-0.023,0.29-0.036,0.477-0.036c0.186,0,0.381,0.072,0.585,0.217c0.204,0.144,0.306,0.342,0.306,0.594
			s-0.129,0.482-0.387,0.692s-0.498,0.315-0.721,0.315c-0.222,0-0.459-0.081-0.711-0.243s-0.377-0.333-0.377-0.513
			C84.551,82.382,84.826,82.04,85.379,81.932z M85.234,70.952c0.012-0.145,0.096-0.262,0.252-0.352s0.33-0.135,0.521-0.135
			c0.324,0,0.486,0.12,0.486,0.36c-0.023,3.54-0.114,6.198-0.27,7.974c-0.012,0.132-0.105,0.243-0.279,0.333
			s-0.346,0.135-0.514,0.135c-0.299,0-0.449-0.119-0.449-0.359C85.15,77.144,85.234,74.492,85.234,70.952z"/>
	</g>
	<g>
		<g>
			<path fill="none" stroke="#C83796" stroke-miterlimit="10" d="M34.586,44.667C-12.489,6.363,54.09,14.483,69.58,5.131"/>
			<g>
				<polygon fill="#C83796" points="70.558,9.3 68.452,5.871 64.523,5.006 72.629,0 				"/>
			</g>
		</g>
	</g>
	<g>
		<g>
			<path fill="none" stroke="#C83796" stroke-miterlimit="10" d="M97.92,48.667C63.06,2.816,98.87,34.147,86.126,9.493"/>
			<g>
				<polygon fill="#C83796" points="90.677,10.193 86.674,10.6 84.188,13.763 83.201,4.287 				"/>
			</g>
		</g>
	</g>
	<g>
		<g>
			<path fill="none" stroke="#C83796" stroke-miterlimit="10" d="M94.253,78.667c106.622-38.372,13.52-41.724,2.671-72.783"/>
			<g>
				<polygon fill="#C83796" points="101.263,7.888 97.324,7.067 93.999,9.332 95.92,0 				"/>
			</g>
		</g>
	</g>
</g>
</svg>
