<?xml version="1.0" encoding="utf-8"?>
<!-- Generator: Adobe Illustrator 15.0.0, SVG Export Plug-In . SVG Version: 6.00 Build 0)  -->
<!DOCTYPE svg PUBLIC "-//W3C//DTD SVG 1.1//EN" "http://www.w3.org/Graphics/SVG/1.1/DTD/svg11.dtd">
<svg version="1.1" id="Layer_1" xmlns="http://www.w3.org/2000/svg" xmlns:xlink="http://www.w3.org/1999/xlink" x="0px" y="0px"
	 width="160px" height="100px" viewBox="0 0 160 100" enable-background="new 0 0 160 100" xml:space="preserve">
<g>
	<g>
		<path fill="none" stroke="#C83796" stroke-miterlimit="10" d="M8.473,47.451C21.915,22.174-0.156,16.238,7.815,5.105"/>
		<g>
			<polygon fill="#C83796" points="8.7,9.799 7.089,6.112 3.317,4.712 12.039,0.876 			"/>
		</g>
	</g>
</g>
<g>
	<g>
		<path fill="none" stroke="#C83796" stroke-miterlimit="10" d="M52.421,47.32c13.173-28.65-18.707-22.936-27.059-36.75"/>
		<g>
			<polygon fill="#C83796" points="30.017,11.853 25.998,11.654 23.065,14.409 23.512,4.892 			"/>
		</g>
	</g>
</g>
<g>
	<g>
		<path fill="none" stroke="#C83796" stroke-miterlimit="10" d="M124.17,47.451c0-20.607-48.416-22.926-76.203-43.654"/>
		<g>
			<polygon fill="#C83796" points="52.507,2.652 48.953,4.538 47.843,8.405 43.356,0 			"/>
		</g>
	</g>
</g>
<g>
	<path d="M11.263,56.473c-0.672,0-1.008-0.113-1.008-0.342c0-0.264,0.414-0.471,1.242-0.621c0.828-0.149,1.668-0.225,2.52-0.225
		s1.47,0.023,1.854,0.071c0.384,0.049,0.633,0.114,0.747,0.198c0.114,0.084,0.171,0.204,0.171,0.36c0,2.16-0.516,3.75-1.548,4.77
		c-1.032,1.021-2.517,1.53-4.455,1.53s-3.456-0.474-4.554-1.422c-1.098-0.948-1.647-2.256-1.647-3.924
		c0-2.305,0.69-4.174,2.07-5.607c1.38-1.434,3.096-2.151,5.148-2.151c0.9,0,1.752,0.186,2.556,0.558
		c0.804,0.372,1.296,0.852,1.476,1.44c-0.168,0.144-0.33,0.215-0.486,0.215c-0.156,0-0.345-0.035-0.567-0.107
		c-0.222-0.072-0.447-0.21-0.675-0.414c-0.229-0.204-0.576-0.411-1.044-0.621c-0.468-0.21-0.96-0.315-1.476-0.315
		c-1.596,0-2.979,0.681-4.149,2.043c-1.17,1.362-1.755,2.967-1.755,4.814c0,1.465,0.537,2.61,1.611,3.438
		c1.074,0.828,2.331,1.242,3.771,1.242c1.644,0,2.808-0.511,3.492-1.53c0.648-0.937,0.972-2.13,0.972-3.582
		c-0.096-0.084-0.222-0.126-0.378-0.126c-0.156,0-0.342,0.006-0.558,0.018c-0.552,0.024-1.188,0.078-1.908,0.162
		C11.965,56.431,11.491,56.473,11.263,56.473z"/>
	<path d="M19.399,58.309c-0.024,0.24-0.036,0.402-0.036,0.486c0,0.72,0.219,1.278,0.657,1.674c0.438,0.396,0.957,0.594,1.557,0.594
		c0.6,0,1.089-0.083,1.467-0.252c0.378-0.168,0.651-0.348,0.819-0.54c0.432-0.54,0.828-0.81,1.188-0.81
		c0.132,0,0.288,0.036,0.468,0.108c-0.12,0.588-0.573,1.125-1.359,1.61c-0.786,0.486-1.773,0.729-2.961,0.729
		c-0.84,0-1.563-0.268-2.169-0.802c-0.606-0.533-0.909-1.263-0.909-2.187s0.183-1.821,0.549-2.691
		c0.366-0.869,0.894-1.613,1.584-2.231s1.392-0.927,2.106-0.927s1.29,0.146,1.728,0.44s0.657,0.724,0.657,1.287
		c0,1.044-0.465,1.905-1.395,2.583c-0.93,0.678-1.917,1.017-2.961,1.017C20.113,58.398,19.783,58.369,19.399,58.309z M20.767,57.715
		c0.564,0,1.068-0.18,1.512-0.54s0.759-0.738,0.945-1.134c0.186-0.396,0.279-0.756,0.279-1.08s-0.126-0.609-0.378-0.855
		c-0.252-0.245-0.546-0.368-0.882-0.368c-0.601,0-1.155,0.414-1.665,1.241c-0.51,0.828-0.873,1.687-1.089,2.574
		C20.017,57.661,20.443,57.715,20.767,57.715z"/>
	<path d="M27.013,54.421c-0.54,0-0.906-0.132-1.098-0.396c0-0.191,0.081-0.342,0.243-0.449c0.162-0.108,0.339-0.177,0.531-0.207
		s0.504-0.057,0.936-0.081c0.036-0.324,0.057-0.741,0.063-1.251c0.006-0.511,0.015-0.945,0.027-1.305
		c0.036-0.948,0.18-1.53,0.432-1.746c0.108-0.096,0.225-0.144,0.351-0.144s0.237,0.012,0.333,0.036
		c0.036,0.864,0.054,1.386,0.054,1.566l-0.108,2.7c0.023,0.013,0.09,0.019,0.198,0.019l1.296-0.055c0.936,0,1.404,0.145,1.404,0.433
		c0,0.408-0.168,0.647-0.504,0.72c-0.156,0.036-0.339,0.054-0.549,0.054s-0.48-0.026-0.81-0.081c-0.33-0.054-0.567-0.08-0.711-0.08
		s-0.24,0.006-0.288,0.018c-0.036,0.348-0.054,0.693-0.054,1.035s0.009,0.768,0.027,1.277c0.018,0.511,0.066,1.119,0.144,1.827
		c0.078,0.708,0.249,1.317,0.513,1.827c0.264,0.511,0.6,0.766,1.008,0.766c0.204,0,0.444-0.081,0.72-0.243s0.489-0.243,0.639-0.243
		s0.282,0.033,0.396,0.099c0.114,0.066,0.171,0.142,0.171,0.226c0,0.252-0.255,0.495-0.765,0.729
		c-0.51,0.234-0.945,0.352-1.305,0.352c-1.32,0-2.142-1.248-2.466-3.744c-0.096-0.721-0.168-1.956-0.216-3.708
		C27.433,54.403,27.229,54.421,27.013,54.421z"/>
	<path d="M38.784,48.715c-0.012,0.276-0.018,0.582-0.018,0.918s0.018,0.684,0.054,1.044c-0.168,0.192-0.396,0.288-0.684,0.288
		c-0.36,0-0.54-0.288-0.54-0.864c0-0.024,0-0.114,0-0.27s0.003-0.297,0.009-0.423c0.006-0.126,0.027-0.272,0.063-0.441
		c0.083-0.288,0.27-0.432,0.558-0.432C38.514,48.535,38.7,48.595,38.784,48.715z M37.632,57.535c0-2.353,0.12-3.708,0.36-4.068
		c0.084-0.132,0.186-0.198,0.306-0.198c0.12,0,0.318,0.066,0.594,0.198c-0.061,1.021-0.09,2.13-0.09,3.33l0.036,3.978
		c0,0.373-0.081,0.634-0.243,0.783c-0.162,0.15-0.312,0.226-0.45,0.226c-0.138,0-0.279-0.036-0.423-0.108
		C37.662,60.115,37.632,58.735,37.632,57.535z"/>
	<path d="M48.504,61.459c-0.216,0.228-0.462,0.342-0.738,0.342c-0.516,0-0.9-0.275-1.152-0.828
		c-0.252-0.552-0.399-1.224-0.441-2.016s-0.069-1.584-0.081-2.376s-0.075-1.464-0.189-2.017c-0.114-0.552-0.327-0.827-0.639-0.827
		c-0.42,0-0.777,0.378-1.071,1.134s-0.501,1.596-0.621,2.52c-0.336,2.58-0.66,4.026-0.972,4.338
		c-0.216,0.108-0.402,0.162-0.558,0.162c-0.156,0-0.288-0.018-0.396-0.054c-0.252-1.104-0.414-3.006-0.486-5.706
		c-0.024-1.344-0.048-2.214-0.072-2.61c0.252-0.168,0.468-0.252,0.648-0.252c0.18,0,0.324,0.019,0.432,0.055
		c0.06,0.516,0.093,1.572,0.099,3.168c0.006,1.596,0.015,2.514,0.027,2.754c0.06-0.252,0.135-0.66,0.225-1.225
		c0.09-0.563,0.171-1.028,0.243-1.395c0.072-0.366,0.186-0.795,0.342-1.287c0.156-0.492,0.33-0.885,0.522-1.179
		s0.456-0.546,0.792-0.756s0.714-0.315,1.134-0.315c0.564,0,0.975,0.255,1.233,0.765c0.258,0.511,0.398,1.144,0.423,1.899
		c0.024,0.756,0.039,1.524,0.045,2.304c0.006,0.78,0.102,1.494,0.288,2.143C47.728,60.847,48.048,61.267,48.504,61.459z"/>
	<path d="M53.76,54.421c-0.54,0-0.906-0.132-1.098-0.396c0-0.191,0.081-0.342,0.243-0.449c0.162-0.108,0.339-0.177,0.531-0.207
		s0.504-0.057,0.936-0.081c0.036-0.324,0.057-0.741,0.063-1.251c0.006-0.511,0.015-0.945,0.027-1.305
		c0.036-0.948,0.18-1.53,0.432-1.746c0.108-0.096,0.225-0.144,0.351-0.144s0.237,0.012,0.333,0.036
		c0.036,0.864,0.054,1.386,0.054,1.566l-0.108,2.7c0.023,0.013,0.09,0.019,0.198,0.019l1.296-0.055c0.936,0,1.404,0.145,1.404,0.433
		c0,0.408-0.168,0.647-0.504,0.72c-0.156,0.036-0.339,0.054-0.549,0.054s-0.48-0.026-0.81-0.081c-0.33-0.054-0.567-0.08-0.711-0.08
		s-0.24,0.006-0.288,0.018c-0.036,0.348-0.054,0.693-0.054,1.035s0.009,0.768,0.027,1.277c0.018,0.511,0.066,1.119,0.144,1.827
		c0.078,0.708,0.249,1.317,0.513,1.827c0.264,0.511,0.6,0.766,1.008,0.766c0.204,0,0.444-0.081,0.72-0.243s0.489-0.243,0.639-0.243
		s0.282,0.033,0.396,0.099c0.114,0.066,0.171,0.142,0.171,0.226c0,0.252-0.255,0.495-0.765,0.729
		c-0.51,0.234-0.945,0.352-1.305,0.352c-1.32,0-2.142-1.248-2.466-3.744c-0.096-0.721-0.168-1.956-0.216-3.708
		C54.18,54.403,53.976,54.421,53.76,54.421z"/>
	<path d="M60.807,54.493c0.605-0.937,1.485-1.404,2.637-1.404c1.152,0,2.073,0.468,2.763,1.404c0.69,0.936,1.035,2.001,1.035,3.194
		c0,1.194-0.378,2.205-1.134,3.033c-0.756,0.828-1.716,1.242-2.88,1.242c-1.164,0-2.01-0.327-2.538-0.981
		c-0.528-0.653-0.792-1.574-0.792-2.763C59.898,56.671,60.201,55.429,60.807,54.493z M61.599,55.438
		c-0.162,0.475-0.282,0.945-0.36,1.413c-0.079,0.469-0.117,0.903-0.117,1.306c0,0.401,0.03,0.768,0.09,1.098
		s0.162,0.654,0.306,0.972c0.144,0.318,0.36,0.57,0.648,0.756c0.288,0.187,0.63,0.279,1.026,0.279c0.804,0,1.479-0.33,2.025-0.99
		c0.546-0.659,0.819-1.458,0.819-2.394c0-0.937-0.25-1.845-0.747-2.728c-0.498-0.882-1.107-1.322-1.827-1.322
		c-0.432,0-0.81,0.15-1.134,0.45C62.004,54.577,61.761,54.964,61.599,55.438z"/>
	<path d="M70.482,53.521c-0.312,0.589-0.468,1.465-0.468,2.628c0,1.753,0.33,3.15,0.99,4.194c0.384,0.612,0.843,0.918,1.377,0.918
		c0.534,0,0.963-0.281,1.287-0.846c0.384-0.696,0.576-1.656,0.576-2.88c0-1.536-0.216-2.67-0.648-3.402
		c-0.192-0.348-0.303-0.6-0.333-0.756s0.009-0.271,0.117-0.342c0.108-0.072,0.288-0.108,0.54-0.108c0.732,0,1.212,0.756,1.44,2.269
		c0.072,0.42,0.108,0.84,0.108,1.26c0,1.092-0.216,2.184-0.648,3.275c-0.612,1.501-1.578,2.25-2.898,2.25
		c-0.696,0-1.29-0.258-1.782-0.773c-0.924-0.984-1.386-2.466-1.386-4.446c0-0.864,0.06-1.523,0.18-1.979
		c0.12-0.456,0.222-0.753,0.306-0.892c0.084-0.138,0.186-0.267,0.306-0.387c0.12-0.12,0.255-0.168,0.405-0.144
		C70.101,53.383,70.278,53.438,70.482,53.521z"/>
	<path d="M83.298,55.213c-0.228,0.229-0.456,0.342-0.685,0.342c-0.228,0-0.41-0.099-0.549-0.297
		c-0.138-0.198-0.248-0.414-0.332-0.647c-0.084-0.234-0.237-0.45-0.459-0.648c-0.223-0.198-0.501-0.297-0.837-0.297
		c-0.468,0.048-0.894,0.381-1.278,0.999c-0.384,0.618-0.666,1.299-0.846,2.043s-0.27,1.443-0.27,2.097
		c0,0.654,0.183,1.219,0.549,1.692s0.861,0.711,1.485,0.711c0.72,0,1.296-0.252,1.729-0.756c0.18-0.216,0.348-0.433,0.504-0.648
		c0.383-0.504,0.731-0.756,1.043-0.756c0.108,0,0.264,0.03,0.469,0.09c0,0.444-0.405,1.029-1.215,1.755
		c-0.811,0.727-1.689,1.089-2.638,1.089c-0.948,0-1.695-0.303-2.241-0.908c-0.546-0.606-0.819-1.39-0.819-2.35
		c0-1.235,0.3-2.472,0.9-3.708c0.3-0.6,0.708-1.095,1.224-1.484c0.516-0.391,1.092-0.585,1.728-0.585
		c0.637,0,1.148,0.213,1.539,0.639S83.021,54.553,83.298,55.213z"/>
	<path d="M85.387,58.237l0.162-8.064c0-0.624-0.037-1.05-0.109-1.278c0.217-0.192,0.547-0.288,0.99-0.288
		c0.18,1.284,0.271,2.934,0.271,4.95c0,0.601-0.055,1.992-0.162,4.176c0.562-3.035,1.57-4.554,3.023-4.554
		c0.516,0,0.914,0.273,1.197,0.819c0.281,0.546,0.459,1.209,0.531,1.989c0.072,0.779,0.131,1.56,0.18,2.34
		c0.119,1.872,0.455,2.808,1.008,2.808c0.012,0,0.125-0.036,0.342-0.107c0.48-0.145,0.75-0.181,0.811-0.108
		c0,0.132-0.188,0.297-0.559,0.495s-0.715,0.297-1.025,0.297c-0.529,0-0.934-0.272-1.215-0.819
		c-0.283-0.546-0.457-1.209-0.523-1.988c-0.064-0.78-0.113-1.558-0.143-2.331c-0.031-0.774-0.111-1.435-0.244-1.98
		c-0.131-0.546-0.354-0.819-0.666-0.819c-0.383,0-0.734,0.418-1.053,1.251c-0.318,0.835-0.566,1.756-0.746,2.764
		c-0.182,1.008-0.4,1.929-0.658,2.763s-0.52,1.251-0.783,1.251C85.596,61.801,85.387,60.613,85.387,58.237z"/>
	<path d="M102.973,59.875c-0.193,0.552-0.562,1.02-1.107,1.404c-0.547,0.384-1.141,0.575-1.783,0.575
		c-0.641,0-1.139-0.32-1.492-0.963c-0.355-0.642-0.531-1.532-0.531-2.673c0-3.216,0.473-4.824,1.422-4.824
		c0.119,0,0.27,0.019,0.449,0.055c-0.035,0.191-0.119,0.558-0.252,1.098c-0.264,1.056-0.396,1.986-0.396,2.79
		s0.115,1.653,0.342,2.547c0.229,0.895,0.553,1.341,0.973,1.341c0.217,0,0.426-0.138,0.631-0.414
		c0.203-0.275,0.365-0.566,0.484-0.873c0.121-0.306,0.246-0.656,0.379-1.053c0.133-0.396,0.217-0.636,0.252-0.72
		c-0.18-0.696-0.27-1.404-0.27-2.124c0-0.036,0-0.146,0-0.333c0-0.186,0.006-0.369,0.018-0.549c0.012-0.181,0.047-0.396,0.107-0.648
		c0.121-0.504,0.445-0.756,0.973-0.756c0.443,0,0.666,0.672,0.666,2.016c0,0.24-0.033,0.589-0.1,1.044
		c-0.066,0.457-0.098,0.774-0.098,0.954c0,0.553,0.264,1.267,0.791,2.143s1.023,1.313,1.484,1.313c0.463,0,0.803-0.264,1.018-0.792
		c0.217-0.527,0.324-1.116,0.324-1.764c0-0.744-0.062-1.311-0.189-1.701c-0.125-0.39-0.203-0.645-0.234-0.765
		c-0.029-0.12-0.107-0.309-0.232-0.567c-0.127-0.258-0.205-0.423-0.234-0.495c-0.031-0.071-0.123-0.245-0.279-0.521
		s-0.246-0.433-0.27-0.468c-0.35-0.612-0.553-0.948-0.613-1.009c0.301-0.252,0.576-0.378,0.828-0.378
		c0.732,0.528,1.314,1.39,1.746,2.583c0.432,1.194,0.648,2.28,0.648,3.258c0,0.979-0.207,1.746-0.621,2.305
		c-0.414,0.558-1.059,0.837-1.936,0.837c-0.611,0-1.189-0.171-1.736-0.513C103.586,60.892,103.199,60.439,102.973,59.875z"/>
	<path d="M111.504,48.715c-0.012,0.276-0.018,0.582-0.018,0.918s0.018,0.684,0.053,1.044c-0.168,0.192-0.395,0.288-0.684,0.288
		c-0.359,0-0.539-0.288-0.539-0.864c0-0.024,0-0.114,0-0.27s0.002-0.297,0.008-0.423s0.027-0.272,0.062-0.441
		c0.084-0.288,0.271-0.432,0.559-0.432C111.234,48.535,111.42,48.595,111.504,48.715z M110.352,57.535
		c0-2.353,0.119-3.708,0.359-4.068c0.084-0.132,0.188-0.198,0.307-0.198s0.318,0.066,0.594,0.198c-0.061,1.021-0.09,2.13-0.09,3.33
		l0.035,3.978c0,0.373-0.08,0.634-0.242,0.783c-0.162,0.15-0.312,0.226-0.449,0.226c-0.139,0-0.279-0.036-0.424-0.108
		C110.381,60.115,110.352,58.735,110.352,57.535z"/>
	<path d="M113.844,54.421c-0.541,0-0.906-0.132-1.098-0.396c0-0.191,0.08-0.342,0.242-0.449c0.162-0.108,0.338-0.177,0.531-0.207
		c0.191-0.03,0.504-0.057,0.936-0.081c0.035-0.324,0.057-0.741,0.062-1.251c0.006-0.511,0.016-0.945,0.027-1.305
		c0.037-0.948,0.18-1.53,0.432-1.746c0.109-0.096,0.227-0.144,0.352-0.144c0.127,0,0.236,0.012,0.334,0.036
		c0.035,0.864,0.053,1.386,0.053,1.566l-0.107,2.7c0.023,0.013,0.09,0.019,0.197,0.019l1.297-0.055c0.936,0,1.404,0.145,1.404,0.433
		c0,0.408-0.168,0.647-0.504,0.72c-0.156,0.036-0.34,0.054-0.549,0.054c-0.211,0-0.48-0.026-0.811-0.081
		c-0.33-0.054-0.568-0.08-0.711-0.08c-0.145,0-0.24,0.006-0.289,0.018c-0.035,0.348-0.053,0.693-0.053,1.035
		s0.008,0.768,0.025,1.277c0.02,0.511,0.066,1.119,0.145,1.827s0.25,1.317,0.514,1.827c0.264,0.511,0.6,0.766,1.008,0.766
		c0.203,0,0.443-0.081,0.721-0.243c0.275-0.162,0.488-0.243,0.639-0.243s0.281,0.033,0.396,0.099c0.113,0.066,0.17,0.142,0.17,0.226
		c0,0.252-0.256,0.495-0.766,0.729c-0.51,0.234-0.943,0.352-1.305,0.352c-1.32,0-2.141-1.248-2.465-3.744
		c-0.098-0.721-0.168-1.956-0.217-3.708C114.264,54.403,114.059,54.421,113.844,54.421z"/>
	<path d="M120.377,58.237l0.162-8.064c0-0.624-0.035-1.05-0.107-1.278c0.217-0.192,0.545-0.288,0.99-0.288
		c0.18,1.284,0.27,2.934,0.27,4.95c0,0.601-0.055,1.992-0.162,4.176c0.564-3.035,1.572-4.554,3.023-4.554
		c0.516,0,0.916,0.273,1.197,0.819c0.283,0.546,0.459,1.209,0.531,1.989c0.072,0.779,0.133,1.56,0.18,2.34
		c0.121,1.872,0.457,2.808,1.008,2.808c0.012,0,0.127-0.036,0.342-0.107c0.48-0.145,0.75-0.181,0.811-0.108
		c0,0.132-0.186,0.297-0.557,0.495c-0.373,0.198-0.715,0.297-1.027,0.297c-0.527,0-0.934-0.272-1.215-0.819
		c-0.281-0.546-0.455-1.209-0.521-1.988c-0.066-0.78-0.115-1.558-0.145-2.331c-0.029-0.774-0.111-1.435-0.242-1.98
		c-0.133-0.546-0.355-0.819-0.666-0.819c-0.385,0-0.736,0.418-1.053,1.251c-0.318,0.835-0.568,1.756-0.748,2.764
		s-0.398,1.929-0.656,2.763s-0.52,1.251-0.783,1.251C120.588,61.801,120.377,60.613,120.377,58.237z"/>
	<path d="M133.967,54.097c0.133,0,0.199,0.792,0.199,2.376c0,0.252-0.004,0.654-0.01,1.206c-0.006,0.553-0.01,0.84-0.01,0.864
		c0.121-1.356,0.244-2.28,0.369-2.772c0.127-0.491,0.256-0.914,0.387-1.269c0.133-0.354,0.277-0.627,0.434-0.819
		c0.383-0.491,0.826-0.737,1.332-0.737c0.635,0,1.111,0.317,1.43,0.953c0.318,0.637,0.482,1.482,0.496,2.538
		c0.299-2.172,1.092-3.258,2.375-3.258c0.553,0,0.941,0.282,1.17,0.846c0.229,0.564,0.342,1.236,0.342,2.017l-0.053,2.736
		c0,1.8,0.389,2.699,1.17,2.699l1.025-0.162c0.061,0,0.119,0.007,0.18,0.019c-0.119,0.18-0.342,0.321-0.666,0.423
		c-0.324,0.103-0.643,0.153-0.953,0.153c-0.613,0-1.072-0.273-1.377-0.819c-0.307-0.546-0.471-1.122-0.496-1.728
		c-0.023-0.606-0.035-1.125-0.035-1.558l0.035-1.602c0-0.528-0.033-1.032-0.098-1.513c-0.066-0.479-0.238-0.72-0.514-0.72
		c-0.408,0-0.801,0.855-1.18,2.565c-0.377,1.71-0.609,3.333-0.693,4.869c-0.203,0.216-0.461,0.33-0.773,0.342
		c-0.096,0-0.186-0.019-0.27-0.054c-0.107-0.624-0.166-1.665-0.172-3.123s-0.08-2.619-0.225-3.483s-0.467-1.296-0.971-1.296
		c-0.338,0-0.613,0.372-0.828,1.116c-0.35,1.164-0.66,2.976-0.938,5.436c-0.072,0.576-0.125,0.99-0.162,1.242
		c-0.252,0.216-0.51,0.324-0.773,0.324l-0.27-0.036c-0.168-2.004-0.252-4.488-0.252-7.452
		C133.324,54.205,133.582,54.097,133.967,54.097z"/>
	<path d="M146.064,58.309c-0.025,0.24-0.037,0.402-0.037,0.486c0,0.72,0.219,1.278,0.656,1.674c0.439,0.396,0.957,0.594,1.559,0.594
		c0.6,0,1.088-0.083,1.467-0.252c0.377-0.168,0.65-0.348,0.818-0.54c0.432-0.54,0.828-0.81,1.188-0.81
		c0.133,0,0.289,0.036,0.469,0.108c-0.121,0.588-0.574,1.125-1.359,1.61c-0.785,0.486-1.773,0.729-2.961,0.729
		c-0.84,0-1.562-0.268-2.168-0.802c-0.607-0.533-0.91-1.263-0.91-2.187s0.184-1.821,0.549-2.691
		c0.367-0.869,0.895-1.613,1.584-2.231c0.691-0.618,1.393-0.927,2.107-0.927c0.713,0,1.289,0.146,1.727,0.44
		s0.658,0.724,0.658,1.287c0,1.044-0.467,1.905-1.396,2.583s-1.916,1.017-2.961,1.017C146.777,58.398,146.447,58.369,146.064,58.309
		z M147.432,57.715c0.564,0,1.068-0.18,1.512-0.54s0.76-0.738,0.945-1.134c0.186-0.396,0.279-0.756,0.279-1.08
		s-0.127-0.609-0.379-0.855c-0.252-0.245-0.545-0.368-0.881-0.368c-0.602,0-1.156,0.414-1.666,1.241
		c-0.51,0.828-0.873,1.687-1.088,2.574C146.682,57.661,147.107,57.715,147.432,57.715z"/>
	<path d="M3.937,74.904c0.108-0.228,0.342-0.342,0.702-0.342c0.156,0,0.288,0.036,0.396,0.108c0.336,0.924,0.666,1.854,0.99,2.79
		c0.612,1.716,1.182,3.071,1.71,4.067c0.252-1.464,0.741-2.939,1.467-4.428s1.389-2.232,1.989-2.232c0.18,0,0.36,0.043,0.54,0.126
		c-1.38,1.812-2.37,4.212-2.97,7.2c-0.12,0.696-0.252,1.092-0.396,1.188c-0.156,0.107-0.318,0.162-0.486,0.162
		c-0.168,0-0.297-0.036-0.387-0.108s-0.156-0.144-0.198-0.216c-0.042-0.072-0.096-0.192-0.162-0.36
		c-0.066-0.168-0.117-0.281-0.153-0.342C5.755,80.227,4.741,77.688,3.937,74.904z"/>
	<path d="M14.143,70.314c-0.012,0.276-0.018,0.582-0.018,0.918s0.018,0.684,0.054,1.044c-0.168,0.192-0.396,0.288-0.684,0.288
		c-0.36,0-0.54-0.288-0.54-0.864c0-0.023,0-0.113,0-0.27s0.003-0.297,0.009-0.423c0.006-0.126,0.027-0.273,0.063-0.441
		c0.083-0.288,0.27-0.432,0.558-0.432C13.873,70.135,14.059,70.194,14.143,70.314z M12.991,79.135c0-2.353,0.12-3.708,0.36-4.068
		c0.084-0.132,0.186-0.198,0.306-0.198c0.12,0,0.318,0.066,0.594,0.198c-0.061,1.021-0.09,2.13-0.09,3.33l0.036,3.978
		c0,0.373-0.081,0.634-0.243,0.783c-0.162,0.15-0.312,0.226-0.45,0.226c-0.138,0-0.279-0.036-0.423-0.108
		C13.021,81.715,12.991,80.335,12.991,79.135z"/>
	<path d="M22.153,78.379l-0.09,2.069c0,1.044,0.12,1.746,0.36,2.106c0.144,0.24,0.342,0.359,0.594,0.359
		c0.072,0,0.174-0.018,0.306-0.054c0.252-0.072,0.462-0.036,0.63,0.108c-0.084,0.42-0.504,0.63-1.26,0.63
		c-0.516,0-0.858-0.216-1.026-0.648c-0.132-0.323-0.228-0.729-0.288-1.215s-0.108-0.819-0.144-0.999
		c-0.78,1.488-1.536,2.395-2.268,2.718c-0.372,0.168-0.804,0.252-1.296,0.252c-0.492,0-0.873-0.236-1.143-0.711
		c-0.27-0.474-0.405-1.167-0.405-2.079c0-0.911,0.15-1.868,0.45-2.87s0.738-1.849,1.314-2.538c0.576-0.69,1.206-1.035,1.89-1.035
		c0.984,0,1.638,0.408,1.962,1.224C22.015,76.393,22.153,77.287,22.153,78.379z M17.743,77.794
		c-0.168,0.653-0.294,1.271-0.378,1.854s-0.126,1.098-0.126,1.548s0.093,0.837,0.279,1.161c0.186,0.324,0.429,0.486,0.729,0.486
		c0.648,0,1.271-0.612,1.872-1.836c0.6-1.225,0.9-2.364,0.9-3.42c0-0.685-0.18-1.248-0.54-1.692
		c-0.24-0.288-0.555-0.432-0.945-0.432s-0.744,0.225-1.062,0.675S17.911,77.14,17.743,77.794z"/>
	<path d="M30.415,71.305l-0.09,7.974c0,1.236,0.036,2.406,0.108,3.51c0.72,0.049,1.374,0.072,1.962,0.072l3.78-0.072
		c0.588,0,0.882,0.169,0.882,0.505c0,0.396-1.26,0.594-3.78,0.594c-0.612,0-1.398-0.03-2.358-0.09
		c-0.96-0.061-1.542-0.156-1.746-0.288c-0.061-1.272-0.09-3.349-0.09-6.229l0.09-6.336c0.312-0.239,0.564-0.359,0.756-0.359
		C30.253,70.585,30.415,70.824,30.415,71.305z"/>
	<path d="M39.522,70.314c-0.012,0.276-0.018,0.582-0.018,0.918s0.018,0.684,0.054,1.044c-0.168,0.192-0.396,0.288-0.684,0.288
		c-0.36,0-0.54-0.288-0.54-0.864c0-0.023,0-0.113,0-0.27s0.003-0.297,0.009-0.423c0.006-0.126,0.027-0.273,0.063-0.441
		c0.083-0.288,0.27-0.432,0.558-0.432C39.252,70.135,39.438,70.194,39.522,70.314z M38.371,79.135c0-2.353,0.12-3.708,0.36-4.068
		c0.084-0.132,0.186-0.198,0.306-0.198c0.12,0,0.318,0.066,0.594,0.198c-0.061,1.021-0.09,2.13-0.09,3.33l0.036,3.978
		c0,0.373-0.081,0.634-0.243,0.783c-0.162,0.15-0.312,0.226-0.45,0.226c-0.138,0-0.279-0.036-0.423-0.108
		C38.4,81.715,38.371,80.335,38.371,79.135z"/>
	<path d="M49.243,83.059c-0.216,0.228-0.462,0.342-0.738,0.342c-0.516,0-0.9-0.275-1.152-0.828
		c-0.252-0.552-0.399-1.224-0.441-2.016s-0.069-1.584-0.081-2.376s-0.075-1.464-0.189-2.017c-0.114-0.552-0.327-0.827-0.639-0.827
		c-0.42,0-0.777,0.378-1.071,1.134s-0.501,1.596-0.621,2.52c-0.336,2.58-0.66,4.026-0.972,4.338
		c-0.216,0.108-0.402,0.162-0.558,0.162c-0.156,0-0.288-0.018-0.396-0.054c-0.252-1.104-0.414-3.006-0.486-5.706
		c-0.024-1.344-0.048-2.214-0.072-2.61c0.252-0.168,0.468-0.252,0.648-0.252c0.18,0,0.324,0.019,0.432,0.055
		c0.06,0.516,0.093,1.572,0.099,3.168c0.006,1.596,0.015,2.514,0.027,2.754c0.06-0.252,0.135-0.66,0.225-1.225
		c0.09-0.563,0.171-1.028,0.243-1.395c0.072-0.366,0.186-0.795,0.342-1.287c0.156-0.492,0.33-0.885,0.522-1.179
		s0.456-0.546,0.792-0.756s0.714-0.315,1.134-0.315c0.564,0,0.975,0.255,1.233,0.765c0.258,0.511,0.398,1.144,0.423,1.899
		c0.024,0.756,0.039,1.524,0.045,2.304c0.006,0.78,0.102,1.494,0.288,2.143C48.466,82.446,48.787,82.866,49.243,83.059z"/>
	<path d="M51.871,70.206c0.012,0.841,0.018,1.468,0.018,1.882s-0.003,0.825-0.009,1.232c-0.006,0.408-0.027,1.197-0.063,2.367
		c-0.036,1.17-0.06,2.097-0.072,2.781c0.456-0.312,1.002-0.795,1.638-1.449c0.636-0.654,1.212-1.215,1.728-1.683
		c0.816-0.732,1.398-0.954,1.746-0.666c0.132,0.107,0.174,0.21,0.126,0.306c-0.12,0.252-0.393,0.558-0.819,0.918
		c-0.426,0.36-0.927,0.768-1.503,1.224s-1.032,0.876-1.368,1.261c0.876,0.12,1.578,0.611,2.106,1.476
		c0.228,0.396,0.45,0.792,0.666,1.188c0.552,1.044,1.152,1.752,1.8,2.123c-0.24,0.24-0.516,0.36-0.828,0.36s-0.621-0.149-0.927-0.45
		c-0.306-0.3-0.57-0.666-0.792-1.098s-0.447-0.864-0.675-1.296c-0.516-1.044-1.116-1.566-1.8-1.566
		c-0.324,0-0.601,0.105-0.828,0.315c-0.228,0.21-0.342,0.429-0.342,0.657c0,1.439-0.024,2.508-0.072,3.204
		c-0.168,0.228-0.348,0.342-0.54,0.342c-0.06,0-0.126-0.013-0.198-0.036c-0.264-0.108-0.394-0.33-0.387-0.666
		c0.006-0.336,0.039-1.356,0.099-3.061c0.132-4.355,0.198-7.14,0.198-8.352c0-0.563,0.057-0.942,0.171-1.134
		c0.114-0.192,0.252-0.288,0.414-0.288C51.52,70.099,51.69,70.135,51.871,70.206z"/>
	<path d="M59.52,79.908c-0.024,0.24-0.036,0.402-0.036,0.486c0,0.72,0.219,1.278,0.657,1.674c0.438,0.396,0.957,0.594,1.557,0.594
		c0.6,0,1.089-0.083,1.467-0.252c0.378-0.168,0.651-0.348,0.819-0.54c0.432-0.54,0.828-0.81,1.188-0.81
		c0.132,0,0.288,0.036,0.468,0.108c-0.12,0.588-0.573,1.125-1.359,1.61c-0.786,0.486-1.773,0.729-2.961,0.729
		c-0.84,0-1.563-0.268-2.169-0.802c-0.606-0.533-0.909-1.263-0.909-2.187s0.183-1.821,0.549-2.691
		c0.366-0.869,0.894-1.613,1.584-2.231s1.392-0.927,2.106-0.927s1.29,0.146,1.728,0.44s0.657,0.724,0.657,1.287
		c0,1.044-0.465,1.905-1.395,2.583c-0.93,0.678-1.917,1.017-2.961,1.017C60.234,79.998,59.904,79.969,59.52,79.908z M60.888,79.314
		c0.564,0,1.068-0.18,1.512-0.54s0.759-0.738,0.945-1.134c0.186-0.396,0.279-0.756,0.279-1.08s-0.126-0.609-0.378-0.855
		c-0.252-0.245-0.546-0.368-0.882-0.368c-0.601,0-1.155,0.414-1.665,1.241c-0.51,0.828-0.873,1.687-1.089,2.574
		C60.138,79.261,60.564,79.314,60.888,79.314z"/>
	<path d="M73.884,69.145c-0.456,4.128-0.684,7.071-0.684,8.829s0.162,3.513,0.486,5.265c-0.24,0.24-0.45,0.36-0.63,0.36
		s-0.33-0.024-0.45-0.072c-0.252-0.888-0.402-1.854-0.45-2.897c-0.288,0.456-0.501,0.779-0.639,0.972
		c-0.138,0.192-0.375,0.474-0.711,0.846c-0.612,0.72-1.338,1.08-2.178,1.08c-0.636,0-1.095-0.297-1.377-0.891
		c-0.282-0.595-0.423-1.356-0.423-2.286s0.105-1.818,0.315-2.664s0.573-1.578,1.089-2.196c0.516-0.617,1.152-0.927,1.908-0.927
		c0.456,0,0.876,0.096,1.26,0.288c0.384,0.192,0.648,0.45,0.792,0.773c0.024-0.323,0.048-0.821,0.072-1.493s0.051-1.27,0.081-1.791
		c0.03-0.522,0.081-1.054,0.153-1.594c0.132-1.151,0.426-1.728,0.882-1.728C73.536,69.019,73.704,69.061,73.884,69.145z
		 M71.787,76.272c-0.15-0.264-0.351-0.459-0.603-0.585s-0.585-0.189-0.999-0.189s-0.801,0.234-1.161,0.702
		c-0.708,0.925-1.062,2.263-1.062,4.015c0,0.563,0.09,1.125,0.27,1.683c0.18,0.558,0.443,0.837,0.792,0.837
		c0.504,0,0.996-0.33,1.476-0.99c0.48-0.659,0.852-1.419,1.116-2.276c0.264-0.858,0.396-1.629,0.396-2.313
		C72.012,76.83,71.937,76.536,71.787,76.272z"/>
	<path d="M77.376,70.891c-0.12,5.424-0.186,9.66-0.198,12.708c-0.18,0.191-0.339,0.288-0.477,0.288c-0.138,0-0.255-0.03-0.351-0.09
		c-0.276-0.181-0.414-0.517-0.414-1.009c0.024-5.771,0.065-9.149,0.126-10.134c0.06-0.983,0.15-1.554,0.27-1.71
		c0.12-0.155,0.264-0.233,0.432-0.233S77.136,70.771,77.376,70.891z"/>
	<path d="M87.15,83.059c-0.217,0.228-0.463,0.342-0.738,0.342c-0.516,0-0.9-0.275-1.152-0.828c-0.252-0.552-0.398-1.224-0.441-2.016
		c-0.041-0.792-0.068-1.584-0.08-2.376s-0.075-1.464-0.189-2.017c-0.114-0.552-0.327-0.827-0.639-0.827
		c-0.42,0-0.777,0.378-1.071,1.134s-0.501,1.596-0.621,2.52c-0.336,2.58-0.66,4.026-0.972,4.338
		c-0.217,0.108-0.402,0.162-0.558,0.162c-0.156,0-0.288-0.018-0.396-0.054c-0.252-1.104-0.414-3.006-0.486-5.706
		c-0.024-1.344-0.048-2.214-0.072-2.61c0.252-0.168,0.468-0.252,0.648-0.252c0.18,0,0.324,0.019,0.432,0.055
		c0.06,0.516,0.093,1.572,0.099,3.168c0.006,1.596,0.015,2.514,0.027,2.754c0.06-0.252,0.134-0.66,0.225-1.225
		c0.09-0.563,0.171-1.028,0.243-1.395s0.186-0.795,0.342-1.287s0.33-0.885,0.521-1.179c0.192-0.294,0.457-0.546,0.793-0.756
		s0.713-0.315,1.133-0.315c0.564,0,0.977,0.255,1.234,0.765c0.258,0.511,0.398,1.144,0.422,1.899s0.039,1.524,0.045,2.304
		c0.006,0.78,0.102,1.494,0.289,2.143C86.373,82.446,86.693,82.866,87.15,83.059z"/>
	<path d="M89.021,82.32c0.133-0.023,0.291-0.036,0.479-0.036c0.186,0,0.381,0.072,0.584,0.217c0.205,0.144,0.307,0.342,0.307,0.594
		s-0.129,0.482-0.387,0.692c-0.26,0.21-0.498,0.315-0.721,0.315s-0.459-0.081-0.711-0.243s-0.379-0.333-0.379-0.513
		C88.193,82.771,88.471,82.429,89.021,82.32z M88.879,71.341c0.012-0.145,0.096-0.262,0.252-0.352
		c0.154-0.09,0.33-0.135,0.521-0.135c0.324,0,0.486,0.12,0.486,0.36c-0.025,3.54-0.115,6.198-0.27,7.974
		c-0.014,0.132-0.105,0.243-0.279,0.333s-0.346,0.135-0.514,0.135c-0.301,0-0.449-0.119-0.449-0.359
		C88.795,77.532,88.879,74.881,88.879,71.341z"/>
</g>
</svg>
