<?xml version="1.0" encoding="utf-8"?>
<!-- Generator: Adobe Illustrator 15.0.0, SVG Export Plug-In . SVG Version: 6.00 Build 0)  -->
<!DOCTYPE svg PUBLIC "-//W3C//DTD SVG 1.1//EN" "http://www.w3.org/Graphics/SVG/1.1/DTD/svg11.dtd">
<svg version="1.1" id="Layer_1" xmlns="http://www.w3.org/2000/svg" xmlns:xlink="http://www.w3.org/1999/xlink" x="0px" y="0px"
	 width="160px" height="100px" viewBox="0 0 160 100" enable-background="new 0 0 160 100" xml:space="preserve">
<g>
	<path d="M18.465,47.65l0.81,0.018c0.324,0,0.576,0.018,0.756,0.054l0.486,0.072c0.252,0.036,0.474,0.126,0.666,0.27
		c-0.096,0.504-0.492,0.756-1.188,0.756l-4.77-0.144c-0.516,0-1.134,0.024-1.854,0.072c0.024,1.308,0.036,3.078,0.036,5.311
		c1.368-0.12,2.508-0.181,3.42-0.181c1.764,0,2.646,0.175,2.646,0.522c0,0.444-0.276,0.666-0.828,0.666
		c-0.192,0-0.402-0.019-0.63-0.054c-0.912-0.108-1.704-0.162-2.376-0.162c-0.672,0-1.422,0.048-2.25,0.144
		c-0.024,0.396-0.054,1.023-0.09,1.881c-0.036,0.858-0.063,1.432-0.081,1.719c-0.018,0.288-0.033,0.492-0.045,0.612
		c-0.012,0.12-0.027,0.265-0.045,0.433c-0.018,0.168-0.042,0.306-0.072,0.413c-0.03,0.108-0.069,0.223-0.117,0.343
		c-0.072,0.191-0.205,0.336-0.396,0.432c-0.06,0.024-0.114,0.036-0.162,0.036c-0.156,0-0.331-0.048-0.522-0.145
		c0-0.132,0-0.51,0-1.134s0.054-1.953,0.162-3.986c0.108-2.034,0.162-3.573,0.162-4.617c0-1.044-0.024-1.89-0.072-2.538
		c0-0.288,0.294-0.492,0.882-0.612c0.648-0.132,1.269-0.201,1.863-0.207c0.594-0.006,1.046-0.009,1.359-0.009L18.465,47.65z"/>
	<path d="M22.056,53.104c0.605-0.937,1.485-1.404,2.637-1.404c1.152,0,2.073,0.468,2.763,1.404c0.69,0.936,1.035,2.001,1.035,3.194
		c0,1.194-0.378,2.205-1.134,3.033c-0.756,0.828-1.716,1.242-2.88,1.242c-1.164,0-2.01-0.327-2.538-0.981
		c-0.528-0.653-0.792-1.574-0.792-2.763C21.146,55.282,21.45,54.04,22.056,53.104z M22.848,54.049
		c-0.162,0.475-0.282,0.945-0.36,1.413c-0.079,0.469-0.117,0.903-0.117,1.306c0,0.401,0.03,0.768,0.09,1.098
		s0.162,0.654,0.306,0.972c0.144,0.318,0.36,0.57,0.648,0.756c0.288,0.187,0.63,0.279,1.026,0.279c0.804,0,1.479-0.33,2.025-0.99
		c0.546-0.659,0.819-1.458,0.819-2.394c0-0.937-0.25-1.845-0.747-2.728c-0.498-0.882-1.107-1.322-1.827-1.322
		c-0.432,0-0.81,0.15-1.134,0.45C23.252,53.188,23.01,53.575,22.848,54.049z"/>
	<path d="M30.848,49.81c0-1.188-0.162-1.986-0.486-2.394c0.156-0.228,0.426-0.342,0.81-0.342c0.072,0,0.15,0.006,0.234,0.018
		c0.3,0.3,0.45,1.17,0.45,2.61c0,0.78-0.036,1.687-0.108,2.718c-0.144,1.801-0.216,3.12-0.216,3.96c0,2.269,0.438,3.402,1.314,3.402
		l0.666-0.126c0.108,0,0.198,0.048,0.27,0.144c-0.036,0.433-0.387,0.648-1.053,0.648s-1.179-0.201-1.539-0.603
		c-0.36-0.402-0.585-0.906-0.675-1.513c-0.09-0.605-0.135-1.106-0.135-1.503c0-0.396,0.006-0.831,0.018-1.305
		c0.012-0.474,0.066-1.155,0.162-2.043C30.752,51.683,30.848,50.458,30.848,49.81z"/>
	<path d="M35.132,49.81c0-1.188-0.162-1.986-0.486-2.394c0.156-0.228,0.426-0.342,0.81-0.342c0.072,0,0.15,0.006,0.234,0.018
		c0.3,0.3,0.45,1.17,0.45,2.61c0,0.78-0.036,1.687-0.108,2.718c-0.144,1.801-0.216,3.12-0.216,3.96c0,2.269,0.438,3.402,1.314,3.402
		l0.666-0.126c0.108,0,0.198,0.048,0.27,0.144c-0.036,0.433-0.387,0.648-1.053,0.648s-1.179-0.201-1.539-0.603
		c-0.36-0.402-0.585-0.906-0.675-1.513c-0.09-0.605-0.135-1.106-0.135-1.503c0-0.396,0.006-0.831,0.018-1.305
		c0.012-0.474,0.066-1.155,0.162-2.043C35.036,51.683,35.132,50.458,35.132,49.81z"/>
	<path d="M39.443,53.104c0.605-0.937,1.485-1.404,2.637-1.404c1.152,0,2.073,0.468,2.763,1.404c0.69,0.936,1.035,2.001,1.035,3.194
		c0,1.194-0.378,2.205-1.134,3.033c-0.756,0.828-1.716,1.242-2.88,1.242c-1.164,0-2.01-0.327-2.538-0.981
		c-0.528-0.653-0.792-1.574-0.792-2.763C38.534,55.282,38.837,54.04,39.443,53.104z M40.235,54.049
		c-0.162,0.475-0.282,0.945-0.36,1.413c-0.079,0.469-0.117,0.903-0.117,1.306c0,0.401,0.03,0.768,0.09,1.098
		s0.162,0.654,0.306,0.972c0.144,0.318,0.36,0.57,0.648,0.756c0.288,0.187,0.63,0.279,1.026,0.279c0.804,0,1.479-0.33,2.025-0.99
		c0.546-0.659,0.819-1.458,0.819-2.394c0-0.937-0.25-1.845-0.747-2.728c-0.498-0.882-1.107-1.322-1.827-1.322
		c-0.432,0-0.81,0.15-1.134,0.45C40.64,53.188,40.397,53.575,40.235,54.049z"/>
	<path d="M52.484,58.486c-0.192,0.552-0.561,1.02-1.107,1.404c-0.546,0.384-1.14,0.575-1.782,0.575c-0.642,0-1.14-0.32-1.494-0.963
		c-0.354-0.642-0.531-1.532-0.531-2.673c0-3.216,0.474-4.824,1.422-4.824c0.12,0,0.27,0.019,0.45,0.055
		c-0.036,0.191-0.12,0.558-0.252,1.098c-0.264,1.056-0.396,1.986-0.396,2.79s0.114,1.653,0.342,2.547
		c0.228,0.895,0.552,1.341,0.972,1.341c0.216,0,0.426-0.138,0.63-0.414c0.204-0.275,0.366-0.566,0.486-0.873
		c0.12-0.306,0.246-0.656,0.378-1.053c0.132-0.396,0.216-0.636,0.252-0.72c-0.18-0.696-0.27-1.404-0.27-2.124
		c0-0.036,0-0.146,0-0.333c0-0.186,0.006-0.369,0.018-0.549c0.012-0.181,0.048-0.396,0.108-0.648
		c0.12-0.504,0.444-0.756,0.972-0.756c0.444,0,0.666,0.672,0.666,2.016c0,0.24-0.033,0.589-0.099,1.044
		c-0.066,0.457-0.099,0.774-0.099,0.954c0,0.553,0.264,1.267,0.792,2.143c0.528,0.876,1.023,1.313,1.485,1.313
		c0.461,0,0.801-0.264,1.017-0.792c0.216-0.527,0.324-1.116,0.324-1.764c0-0.744-0.063-1.311-0.189-1.701
		c-0.126-0.39-0.204-0.645-0.234-0.765c-0.03-0.12-0.108-0.309-0.234-0.567c-0.126-0.258-0.204-0.423-0.234-0.495
		c-0.03-0.071-0.123-0.245-0.279-0.521c-0.156-0.276-0.246-0.433-0.27-0.468c-0.348-0.612-0.552-0.948-0.612-1.009
		c0.3-0.252,0.576-0.378,0.828-0.378c0.732,0.528,1.314,1.39,1.746,2.583c0.432,1.194,0.648,2.28,0.648,3.258
		c0,0.979-0.207,1.746-0.621,2.305c-0.414,0.558-1.059,0.837-1.935,0.837c-0.612,0-1.191-0.171-1.737-0.513
		C53.099,59.503,52.712,59.051,52.484,58.486z"/>
	<path d="M64.652,52.708c0.132,0,0.198,0.792,0.198,2.376c0,0.252-0.003,0.654-0.009,1.206c-0.006,0.553-0.009,0.84-0.009,0.864
		c0.12-1.356,0.243-2.28,0.369-2.772c0.126-0.491,0.255-0.914,0.387-1.269c0.132-0.354,0.276-0.627,0.432-0.819
		c0.384-0.491,0.828-0.737,1.332-0.737c0.636,0,1.113,0.317,1.431,0.953c0.318,0.637,0.483,1.482,0.495,2.538
		c0.3-2.172,1.092-3.258,2.376-3.258c0.552,0,0.942,0.282,1.17,0.846c0.228,0.564,0.342,1.236,0.342,2.017l-0.054,2.736
		c0,1.8,0.39,2.699,1.17,2.699l1.026-0.162c0.06,0,0.12,0.007,0.18,0.019c-0.12,0.18-0.342,0.321-0.666,0.423
		c-0.324,0.103-0.642,0.153-0.954,0.153c-0.612,0-1.071-0.273-1.377-0.819s-0.471-1.122-0.495-1.728
		c-0.024-0.606-0.036-1.125-0.036-1.558l0.036-1.602c0-0.528-0.033-1.032-0.099-1.513c-0.066-0.479-0.237-0.72-0.513-0.72
		c-0.408,0-0.801,0.855-1.179,2.565s-0.609,3.333-0.693,4.869c-0.204,0.216-0.462,0.33-0.774,0.342c-0.096,0-0.187-0.019-0.27-0.054
		c-0.108-0.624-0.165-1.665-0.171-3.123c-0.006-1.458-0.081-2.619-0.225-3.483s-0.468-1.296-0.972-1.296
		c-0.336,0-0.612,0.372-0.828,1.116c-0.348,1.164-0.66,2.976-0.936,5.436c-0.072,0.576-0.126,0.99-0.162,1.242
		c-0.252,0.216-0.51,0.324-0.774,0.324l-0.27-0.036c-0.168-2.004-0.252-4.488-0.252-7.452C64.01,52.816,64.268,52.708,64.652,52.708
		z"/>
	<path d="M80.132,53.015c0-0.864,0.276-1.297,0.828-1.297c0.108,0,0.216,0.013,0.324,0.036c0,0.145,0,0.534,0,1.17
		c0,0.637,0.083,1.908,0.252,3.816c0.168,1.908,0.252,3.336,0.252,4.284c0,1.512-0.265,2.556-0.792,3.132
		c-0.528,0.576-1.425,0.864-2.691,0.864c-1.266,0-2.457-0.408-3.573-1.225c0.216-0.264,0.498-0.396,0.846-0.396
		c0.132,0.012,0.342,0.102,0.63,0.27c0.852,0.504,1.56,0.756,2.124,0.756c0.84,0,1.434-0.264,1.782-0.792
		c0.348-0.527,0.522-1.416,0.522-2.663c0-0.301-0.03-1.38-0.09-3.24c-0.012,0.036-0.054,0.188-0.126,0.459
		c-0.072,0.27-0.126,0.447-0.162,0.531c-0.036,0.084-0.099,0.239-0.189,0.468c-0.09,0.228-0.183,0.39-0.279,0.485
		c-0.096,0.097-0.222,0.211-0.378,0.343c-0.264,0.24-0.597,0.359-0.999,0.359c-0.402,0-0.723-0.054-0.963-0.162
		c-0.24-0.107-0.441-0.275-0.603-0.504c-0.162-0.228-0.306-0.468-0.432-0.72s-0.225-0.573-0.297-0.963
		c-0.072-0.39-0.129-0.747-0.171-1.071c-0.042-0.324-0.072-0.72-0.09-1.188c-0.018-0.469-0.03-0.858-0.036-1.17
		c-0.006-0.312-0.009-0.708-0.009-1.188v-1.08c0.12-0.204,0.336-0.306,0.648-0.306c0.432,0,0.648,0.156,0.648,0.468L77,54.238
		c0,1.524,0.162,2.838,0.486,3.942c0.324,1.104,0.66,1.655,1.008,1.655c0.264,0,0.498-0.144,0.702-0.432
		c0.204-0.288,0.36-0.693,0.468-1.215c0.108-0.522,0.198-1.018,0.27-1.485s0.12-1.014,0.144-1.638
		C80.114,54.118,80.132,53.435,80.132,53.015z"/>
	<path d="M88.897,60.017c0.036,0.972,0.155,2.346,0.36,4.122c-0.229,0.228-0.498,0.342-0.811,0.342
		c-0.061,0-0.126-0.007-0.197-0.019c-0.013-0.468-0.1-1.529-0.262-3.186s-0.242-2.925-0.242-3.808c0-0.882,0.053-1.646,0.162-2.295
		c0.107-0.647,0.293-1.254,0.557-1.817c0.541-1.164,1.537-1.746,2.988-1.746c0.9,0,1.639,0.492,2.215,1.476
		c0.576,0.984,0.863,2.131,0.863,3.438c0,1.032-0.336,1.938-1.008,2.718s-1.602,1.17-2.79,1.17
		C90.002,60.412,89.39,60.28,88.897,60.017z M91.31,52.582c-1.021,0-1.698,0.528-2.034,1.584c-0.288,0.9-0.432,2.143-0.432,3.727
		c0,0.575,0.006,1.002,0.018,1.277c1.068,0.229,1.794,0.343,2.178,0.343c0.697,0,1.248-0.279,1.656-0.838
		c0.408-0.558,0.611-1.238,0.611-2.043c0-1.188-0.176-2.159-0.529-2.916C92.422,52.96,91.934,52.582,91.31,52.582z"/>
	<path d="M98.096,58.811l0.053,1.025c0,0.265-0.074,0.447-0.225,0.549c-0.15,0.103-0.301,0.153-0.449,0.153
		c-0.15,0-0.305-0.023-0.459-0.072c-0.266-1.392-0.465-3.125-0.604-5.201s-0.219-3.252-0.242-3.528
		c0.18-0.168,0.367-0.252,0.566-0.252c0.197,0,0.375,0.023,0.531,0.072c0.047,0.348,0.084,1.115,0.107,2.304
		c0.023,1.188,0.055,1.932,0.09,2.231c0.168-1.008,0.469-1.949,0.9-2.825c0.24-0.492,0.555-0.885,0.945-1.18
		c0.389-0.294,0.809-0.44,1.26-0.44c0.449,0,0.863,0.201,1.242,0.603c0.377,0.402,0.566,0.766,0.566,1.089
		c0,0.12-0.072,0.214-0.217,0.279c-0.143,0.066-0.303,0.099-0.477,0.099s-0.309-0.065-0.404-0.197s-0.162-0.279-0.197-0.441
		c-0.037-0.162-0.115-0.309-0.234-0.441c-0.121-0.132-0.283-0.197-0.486-0.197c-0.541,0-1.002,0.485-1.387,1.458
		C98.389,55.349,98.096,56.986,98.096,58.811z"/>
	<path d="M104.045,53.104c0.605-0.937,1.484-1.404,2.637-1.404s2.072,0.468,2.764,1.404c0.689,0.936,1.035,2.001,1.035,3.194
		c0,1.194-0.379,2.205-1.135,3.033s-1.717,1.242-2.881,1.242s-2.01-0.327-2.537-0.981c-0.527-0.653-0.791-1.574-0.791-2.763
		C103.137,55.282,103.439,54.04,104.045,53.104z M104.836,54.049c-0.16,0.475-0.281,0.945-0.359,1.413
		c-0.078,0.469-0.117,0.903-0.117,1.306c0,0.401,0.029,0.768,0.09,1.098s0.162,0.654,0.307,0.972
		c0.145,0.318,0.359,0.57,0.648,0.756c0.287,0.187,0.629,0.279,1.025,0.279c0.805,0,1.479-0.33,2.025-0.99
		c0.545-0.659,0.818-1.458,0.818-2.394c0-0.937-0.248-1.845-0.746-2.728c-0.498-0.882-1.107-1.322-1.828-1.322
		c-0.432,0-0.809,0.15-1.133,0.45S104.998,53.575,104.836,54.049z"/>
	<path d="M118.291,53.824c-0.229,0.229-0.455,0.342-0.684,0.342s-0.412-0.099-0.549-0.297c-0.139-0.198-0.25-0.414-0.334-0.647
		c-0.084-0.234-0.236-0.45-0.459-0.648c-0.221-0.198-0.5-0.297-0.836-0.297c-0.469,0.048-0.895,0.381-1.279,0.999
		c-0.383,0.618-0.666,1.299-0.846,2.043s-0.27,1.443-0.27,2.097c0,0.654,0.184,1.219,0.549,1.692s0.861,0.711,1.484,0.711
		c0.721,0,1.297-0.252,1.729-0.756c0.18-0.216,0.348-0.433,0.504-0.648c0.385-0.504,0.732-0.756,1.045-0.756
		c0.107,0,0.264,0.03,0.467,0.09c0,0.444-0.404,1.029-1.215,1.755c-0.809,0.727-1.689,1.089-2.637,1.089s-1.695-0.303-2.24-0.908
		c-0.547-0.606-0.82-1.39-0.82-2.35c0-1.235,0.301-2.472,0.9-3.708c0.301-0.6,0.709-1.095,1.225-1.484
		c0.516-0.391,1.092-0.585,1.729-0.585c0.635,0,1.148,0.213,1.539,0.639C117.682,52.621,118.016,53.164,118.291,53.824z"/>
	<path d="M121.189,56.92c-0.023,0.24-0.035,0.402-0.035,0.486c0,0.72,0.219,1.278,0.656,1.674c0.438,0.396,0.957,0.594,1.557,0.594
		s1.09-0.083,1.467-0.252c0.379-0.168,0.65-0.348,0.82-0.54c0.432-0.54,0.828-0.81,1.188-0.81c0.131,0,0.287,0.036,0.467,0.108
		c-0.119,0.588-0.572,1.125-1.357,1.61c-0.787,0.486-1.773,0.729-2.961,0.729c-0.842,0-1.564-0.268-2.17-0.802
		c-0.605-0.533-0.908-1.263-0.908-2.187s0.182-1.821,0.549-2.691c0.365-0.869,0.893-1.613,1.584-2.231
		c0.689-0.618,1.391-0.927,2.105-0.927s1.289,0.146,1.729,0.44c0.438,0.294,0.656,0.724,0.656,1.287
		c0,1.044-0.465,1.905-1.395,2.583s-1.918,1.017-2.961,1.017C121.902,57.01,121.574,56.98,121.189,56.92z M122.557,56.326
		c0.564,0,1.068-0.18,1.514-0.54c0.443-0.36,0.758-0.738,0.943-1.134c0.188-0.396,0.279-0.756,0.279-1.08s-0.125-0.609-0.377-0.855
		c-0.252-0.245-0.547-0.368-0.883-0.368c-0.6,0-1.154,0.414-1.664,1.241c-0.512,0.828-0.873,1.687-1.09,2.574
		C121.807,56.272,122.234,56.326,122.557,56.326z"/>
	<path d="M133.303,53.374c-0.107-0.275-0.312-0.492-0.611-0.647c-0.301-0.156-0.672-0.234-1.117-0.234
		c-0.443,0-0.859,0.132-1.25,0.396c-0.391,0.264-0.586,0.618-0.586,1.062c0,0.444,0.184,0.795,0.551,1.053
		c0.365,0.259,0.809,0.453,1.332,0.585c0.521,0.133,1.045,0.273,1.574,0.423c0.527,0.15,0.975,0.396,1.342,0.738
		c0.365,0.342,0.549,0.789,0.549,1.341c0,0.805-0.334,1.416-1,1.836c-0.666,0.421-1.467,0.631-2.402,0.631
		c-0.553,0-1.275-0.15-2.17-0.45s-1.34-0.66-1.34-1.08c0-0.312,0.264-0.468,0.791-0.468c0.156,0,0.359,0.096,0.611,0.288
		c0.77,0.563,1.555,0.846,2.359,0.846c0.432,0,0.803-0.072,1.115-0.216c0.576-0.276,0.865-0.721,0.865-1.332
		c0-0.372-0.184-0.672-0.551-0.9c-0.365-0.228-0.809-0.408-1.332-0.54c-0.521-0.132-1.047-0.275-1.574-0.432
		s-0.975-0.417-1.342-0.783c-0.365-0.366-0.549-0.831-0.549-1.396c0-0.731,0.33-1.325,0.99-1.781s1.477-0.685,2.449-0.685
		c0.658,0,1.256,0.171,1.791,0.514c0.533,0.342,0.801,0.837,0.801,1.484c0,0.433-0.246,0.648-0.738,0.648
		c-0.205,0-0.34-0.036-0.404-0.108c-0.066-0.072-0.104-0.2-0.109-0.387C133.342,53.594,133.326,53.458,133.303,53.374z"/>
	<path d="M141.15,53.374c-0.107-0.275-0.312-0.492-0.611-0.647c-0.301-0.156-0.672-0.234-1.117-0.234
		c-0.443,0-0.859,0.132-1.25,0.396c-0.391,0.264-0.586,0.618-0.586,1.062c0,0.444,0.184,0.795,0.551,1.053
		c0.365,0.259,0.809,0.453,1.332,0.585c0.521,0.133,1.045,0.273,1.574,0.423c0.527,0.15,0.975,0.396,1.342,0.738
		c0.365,0.342,0.549,0.789,0.549,1.341c0,0.805-0.334,1.416-1,1.836c-0.666,0.421-1.467,0.631-2.402,0.631
		c-0.553,0-1.275-0.15-2.17-0.45s-1.34-0.66-1.34-1.08c0-0.312,0.264-0.468,0.791-0.468c0.156,0,0.359,0.096,0.611,0.288
		c0.77,0.563,1.555,0.846,2.359,0.846c0.432,0,0.803-0.072,1.115-0.216c0.576-0.276,0.865-0.721,0.865-1.332
		c0-0.372-0.184-0.672-0.551-0.9c-0.365-0.228-0.809-0.408-1.332-0.54c-0.521-0.132-1.047-0.275-1.574-0.432
		s-0.975-0.417-1.342-0.783c-0.365-0.366-0.549-0.831-0.549-1.396c0-0.731,0.33-1.325,0.99-1.781s1.477-0.685,2.449-0.685
		c0.658,0,1.256,0.171,1.791,0.514c0.533,0.342,0.801,0.837,0.801,1.484c0,0.433-0.246,0.648-0.738,0.648
		c-0.205,0-0.34-0.036-0.404-0.108c-0.066-0.072-0.104-0.2-0.109-0.387C141.189,53.594,141.174,53.458,141.15,53.374z"/>
	<path d="M12.174,74.704c0.605-0.937,1.485-1.404,2.637-1.404c1.152,0,2.073,0.468,2.763,1.404c0.69,0.936,1.035,2.001,1.035,3.194
		c0,1.194-0.378,2.205-1.134,3.033c-0.756,0.828-1.716,1.242-2.88,1.242c-1.164,0-2.01-0.327-2.538-0.981
		c-0.528-0.653-0.792-1.574-0.792-2.763C11.265,76.882,11.568,75.64,12.174,74.704z M12.966,75.648
		c-0.162,0.475-0.282,0.945-0.36,1.413c-0.079,0.469-0.117,0.903-0.117,1.306c0,0.401,0.03,0.768,0.09,1.098
		s0.162,0.654,0.306,0.972c0.144,0.318,0.36,0.57,0.648,0.756c0.288,0.187,0.63,0.279,1.026,0.279c0.804,0,1.479-0.33,2.025-0.99
		c0.546-0.659,0.819-1.458,0.819-2.394c0-0.937-0.25-1.845-0.747-2.728c-0.498-0.882-1.107-1.322-1.827-1.322
		c-0.432,0-0.81,0.15-1.134,0.45C13.371,74.788,13.128,75.175,12.966,75.648z"/>
	<path d="M27.771,81.67c-0.216,0.228-0.462,0.342-0.738,0.342c-0.516,0-0.9-0.275-1.152-0.828c-0.252-0.552-0.399-1.224-0.441-2.016
		s-0.069-1.584-0.081-2.376s-0.075-1.464-0.189-2.017c-0.114-0.552-0.327-0.827-0.639-0.827c-0.42,0-0.777,0.378-1.071,1.134
		s-0.501,1.596-0.621,2.52c-0.336,2.58-0.66,4.026-0.972,4.338c-0.216,0.108-0.402,0.162-0.558,0.162
		c-0.156,0-0.288-0.018-0.396-0.054c-0.252-1.104-0.414-3.006-0.486-5.706c-0.024-1.344-0.048-2.214-0.072-2.61
		c0.252-0.168,0.468-0.252,0.648-0.252c0.18,0,0.324,0.019,0.432,0.055c0.06,0.516,0.093,1.572,0.099,3.168
		c0.006,1.596,0.015,2.514,0.027,2.754c0.06-0.252,0.135-0.66,0.225-1.225c0.09-0.563,0.171-1.028,0.243-1.395
		c0.072-0.366,0.186-0.795,0.342-1.287c0.156-0.492,0.33-0.885,0.522-1.179s0.456-0.546,0.792-0.756s0.714-0.315,1.134-0.315
		c0.564,0,0.975,0.255,1.233,0.765c0.258,0.511,0.398,1.144,0.423,1.899c0.024,0.756,0.039,1.524,0.045,2.304
		c0.006,0.78,0.102,1.494,0.288,2.143C26.994,81.058,27.314,81.478,27.771,81.67z"/>
	<path d="M39.488,76.684c-0.672,0-1.008-0.113-1.008-0.342c0-0.264,0.414-0.471,1.242-0.621c0.828-0.149,1.668-0.225,2.52-0.225
		s1.47,0.023,1.854,0.071c0.384,0.049,0.633,0.114,0.747,0.198c0.114,0.084,0.171,0.204,0.171,0.36c0,2.16-0.516,3.75-1.548,4.77
		c-1.032,1.021-2.517,1.53-4.455,1.53s-3.456-0.474-4.554-1.422c-1.098-0.948-1.647-2.256-1.647-3.924
		c0-2.305,0.69-4.173,2.07-5.607c1.38-1.434,3.096-2.15,5.148-2.15c0.9,0,1.752,0.186,2.556,0.558
		c0.804,0.372,1.296,0.853,1.476,1.44c-0.168,0.144-0.33,0.216-0.486,0.216c-0.156,0-0.345-0.036-0.567-0.108
		c-0.222-0.072-0.447-0.21-0.675-0.414c-0.229-0.204-0.576-0.411-1.044-0.621c-0.468-0.21-0.96-0.314-1.476-0.314
		c-1.596,0-2.979,0.681-4.149,2.043c-1.17,1.362-1.755,2.967-1.755,4.814c0,1.465,0.537,2.61,1.611,3.438
		c1.074,0.828,2.331,1.242,3.771,1.242c1.644,0,2.808-0.511,3.492-1.53c0.648-0.937,0.972-2.13,0.972-3.582
		c-0.096-0.084-0.222-0.126-0.378-0.126c-0.156,0-0.342,0.006-0.558,0.018c-0.552,0.024-1.188,0.078-1.908,0.162
		C40.19,76.642,39.716,76.684,39.488,76.684z"/>
	<path d="M47.984,68.926c-0.012,0.276-0.018,0.582-0.018,0.918s0.018,0.684,0.054,1.044c-0.168,0.192-0.396,0.288-0.684,0.288
		c-0.36,0-0.54-0.288-0.54-0.864c0-0.023,0-0.113,0-0.27s0.003-0.297,0.009-0.423c0.006-0.126,0.027-0.273,0.063-0.441
		c0.083-0.288,0.27-0.432,0.558-0.432C47.714,68.746,47.9,68.806,47.984,68.926z M46.832,77.746c0-2.353,0.12-3.708,0.36-4.068
		c0.084-0.132,0.186-0.198,0.306-0.198c0.12,0,0.318,0.066,0.594,0.198c-0.061,1.021-0.09,2.13-0.09,3.33l0.036,3.978
		c0,0.373-0.081,0.634-0.243,0.783c-0.162,0.15-0.312,0.226-0.45,0.226c-0.138,0-0.279-0.036-0.423-0.108
		C46.862,80.326,46.832,78.946,46.832,77.746z"/>
	<path d="M50.324,74.632c-0.54,0-0.906-0.132-1.098-0.396c0-0.191,0.081-0.342,0.243-0.449c0.162-0.108,0.339-0.177,0.531-0.207
		s0.504-0.057,0.936-0.081c0.036-0.324,0.057-0.741,0.063-1.251s0.015-0.945,0.027-1.306c0.036-0.947,0.18-1.529,0.432-1.745
		c0.108-0.097,0.225-0.145,0.351-0.145s0.237,0.012,0.333,0.036c0.036,0.864,0.054,1.386,0.054,1.566l-0.108,2.699
		c0.023,0.013,0.09,0.019,0.198,0.019l1.296-0.055c0.936,0,1.404,0.145,1.404,0.433c0,0.408-0.168,0.647-0.504,0.72
		c-0.156,0.036-0.339,0.054-0.549,0.054s-0.48-0.026-0.81-0.081c-0.33-0.054-0.567-0.08-0.711-0.08s-0.24,0.006-0.288,0.018
		c-0.036,0.348-0.054,0.693-0.054,1.035s0.009,0.768,0.027,1.277c0.018,0.511,0.066,1.119,0.144,1.827
		c0.078,0.708,0.249,1.317,0.513,1.827c0.264,0.511,0.6,0.766,1.008,0.766c0.204,0,0.444-0.081,0.72-0.243s0.489-0.243,0.639-0.243
		s0.282,0.033,0.396,0.099c0.114,0.066,0.171,0.142,0.171,0.226c0,0.252-0.255,0.495-0.765,0.729
		c-0.51,0.234-0.945,0.352-1.305,0.352c-1.32,0-2.142-1.248-2.466-3.744c-0.096-0.721-0.168-1.956-0.216-3.708
		C50.744,74.614,50.54,74.632,50.324,74.632z"/>
	<path d="M65.822,69.862c0.18-0.288,0.456-0.433,0.828-0.433c0.144,0,0.276,0.036,0.396,0.108c0.084,1.308,0.126,2.598,0.126,3.87
		c0,1.271-0.027,2.886-0.081,4.842c-0.054,1.956-0.087,3.222-0.099,3.798c-0.288,0.191-0.522,0.288-0.702,0.288
		s-0.318-0.019-0.414-0.054c-0.072-0.637-0.108-1.284-0.108-1.944l0.108-4.104c-1.032-0.096-2.184-0.144-3.456-0.144
		s-2.598,0.126-3.978,0.378c-0.096,2.376-0.144,4.128-0.144,5.256c-0.3,0.24-0.543,0.36-0.729,0.36s-0.333-0.03-0.441-0.09
		c-0.036-0.588-0.054-1.416-0.054-2.484c0-1.067,0.075-2.835,0.225-5.301s0.231-3.891,0.243-4.275
		c0.156-0.252,0.426-0.378,0.81-0.378c0.12,0,0.234,0.024,0.342,0.072c0.036,0.336,0.054,0.762,0.054,1.278
		c0,0.516-0.036,1.305-0.108,2.366c-0.072,1.062-0.108,1.798-0.108,2.205c1.452-0.239,2.796-0.359,4.032-0.359
		s2.328,0.042,3.276,0.126c0.036-0.444,0.054-1.099,0.054-1.962C65.894,72.418,65.87,71.278,65.822,69.862z"/>
	<path d="M71.042,73.731c-0.312,0.589-0.468,1.465-0.468,2.628c0,1.753,0.33,3.15,0.99,4.194c0.384,0.612,0.843,0.918,1.377,0.918
		c0.534,0,0.963-0.281,1.287-0.846c0.384-0.696,0.576-1.656,0.576-2.88c0-1.536-0.216-2.67-0.648-3.402
		c-0.192-0.348-0.303-0.6-0.333-0.756s0.009-0.271,0.117-0.342c0.108-0.072,0.288-0.108,0.54-0.108c0.732,0,1.212,0.756,1.44,2.269
		c0.072,0.42,0.108,0.84,0.108,1.26c0,1.092-0.216,2.184-0.648,3.275c-0.612,1.501-1.578,2.25-2.898,2.25
		c-0.696,0-1.29-0.258-1.782-0.773c-0.924-0.984-1.386-2.466-1.386-4.446c0-0.864,0.06-1.523,0.18-1.979
		c0.12-0.456,0.222-0.753,0.306-0.892c0.084-0.138,0.186-0.267,0.306-0.387c0.12-0.12,0.255-0.168,0.405-0.144
		C70.661,73.594,70.838,73.648,71.042,73.731z"/>
	<path d="M78.026,69.231c0.144-0.264,0.408-0.396,0.792-0.396c0.084,0,0.168,0.012,0.252,0.036c0.024,0.636,0.036,2.412,0.036,5.328
		c0.012-0.012,0.069-0.066,0.171-0.162s0.165-0.156,0.189-0.181c0.024-0.023,0.084-0.081,0.18-0.171s0.171-0.149,0.225-0.18
		c0.054-0.03,0.129-0.078,0.225-0.144c0.096-0.066,0.18-0.114,0.252-0.145c0.072-0.029,0.156-0.062,0.252-0.099
		c0.18-0.061,0.39-0.09,0.63-0.09c0.888,0,1.602,0.368,2.142,1.106s0.81,1.563,0.81,2.476c0,0.911-0.138,1.778-0.414,2.601
		c-0.275,0.822-0.701,1.539-1.277,2.151c-0.576,0.611-1.245,0.918-2.007,0.918S79.085,82,78.575,81.436
		c-0.51-0.563-0.765-1.209-0.765-1.935s0.042-2.07,0.126-4.032s0.126-3.372,0.126-4.229C78.062,70.381,78.05,69.712,78.026,69.231z
		 M80.6,81.399c0.468,0,0.888-0.222,1.259-0.666c0.757-0.875,1.135-2.117,1.135-3.726c0-0.864-0.168-1.629-0.504-2.295
		s-0.811-0.999-1.422-0.999c-0.349,0-0.654,0.171-0.918,0.513s-0.468,0.795-0.612,1.359c-0.276,1.068-0.414,2.256-0.414,3.563
		c0,1.104,0.228,1.782,0.684,2.034C80.012,81.304,80.276,81.376,80.6,81.399z"/>
	<path d="M86.648,80.932c0.131-0.023,0.29-0.036,0.477-0.036c0.186,0,0.381,0.072,0.585,0.217c0.204,0.144,0.306,0.342,0.306,0.594
		s-0.129,0.482-0.387,0.692s-0.498,0.315-0.721,0.315c-0.222,0-0.459-0.081-0.711-0.243s-0.377-0.333-0.377-0.513
		C85.82,81.382,86.096,81.04,86.648,80.932z M86.504,69.952c0.012-0.145,0.096-0.262,0.252-0.352s0.33-0.135,0.521-0.135
		c0.324,0,0.486,0.12,0.486,0.36c-0.023,3.54-0.114,6.198-0.27,7.974c-0.012,0.132-0.105,0.243-0.279,0.333
		s-0.346,0.135-0.514,0.135c-0.299,0-0.449-0.119-0.449-0.359C86.42,76.144,86.504,73.492,86.504,69.952z"/>
</g>
<g>
	<g>
		<path fill="none" stroke="#C83796" stroke-miterlimit="10" d="M9.851,52.667C-5.893,17.402,107.956,37.15,124.279,7.826"/>
		<g>
			<polygon fill="#C83796" points="126.648,11.649 123.687,8.927 119.67,9.168 126.1,2.138 			"/>
		</g>
	</g>
</g>
<g>
	<g>
		<path fill="none" stroke="#C83796" stroke-miterlimit="10" d="M79.518,45.333c29.832-31.075,58.701-6.522,56.451-39.396"/>
		<g>
			<polygon fill="#C83796" points="139.896,8.353 136.052,7.167 132.529,9.112 135.313,0 			"/>
		</g>
	</g>
</g>
<g>
	<g>
		<path fill="none" stroke="#C83796" stroke-miterlimit="10" d="M91.108,77c60.147,19.758,73.599-44.212,57.319-70.271"/>
		<g>
			<polygon fill="#C83796" points="152.979,6.835 149.073,7.797 147.053,11.277 144.752,2.031 			"/>
		</g>
	</g>
</g>
</svg>
